<svg width="28" height="28" viewBox="0 0 28 28" fill="none" xmlns="http://www.w3.org/2000/svg">
<path fill-rule="evenodd" clip-rule="evenodd" d="M14 0C6.26818 0 0 6.26818 0 14C0 21.7318 6.26818 28 14 28C21.7318 28 28 21.7318 28 14C28 6.26818 21.7318 0 14 0ZM8.90909 12.7273C8.57154 12.7273 8.24782 12.8614 8.00914 13.1C7.77045 13.3387 7.63636 13.6625 7.63636 14C7.63636 14.3375 7.77045 14.6613 8.00914 14.9C8.24782 15.1386 8.57154 15.2727 8.90909 15.2727H19.0909C19.4285 15.2727 19.7522 15.1386 19.9909 14.9C20.2295 14.6613 20.3636 14.3375 20.3636 14C20.3636 13.6625 20.2295 13.3387 19.9909 13.1C19.7522 12.8614 19.4285 12.7273 19.0909 12.7273H8.90909Z" fill="#333333"/>
</svg>
