<svg width="24" height="24" viewBox="0 0 24 24" fill="none" xmlns="http://www.w3.org/2000/svg">
<path fill-rule="evenodd" clip-rule="evenodd" d="M23 13.5C23 14.327 22.327 15 21.5 15H20V9H21.5C22.327 9 23 9.673 23 10.5V13.5ZM12.5 23H11.5C11.224 23 11 22.776 11 22.5C11 22.224 11.224 22 11.5 22H12.5C12.776 22 13 22.224 13 22.5C13 22.776 12.776 23 12.5 23ZM4 15H2.5C1.673 15 1 14.327 1 13.5V10.5C1 9.673 1.673 9 2.5 9H4V15ZM21.5 8H20V7.5C20 3.364 16.636 0 12.5 0H11.5C7.364 0 4 3.364 4 7.5V8H2.5C1.122 8 0 9.122 0 10.5V13.5C0 14.878 1.122 16 2.5 16H4.5C4.776 16 5 15.776 5 15.5V8.5V7.5C5 3.916 7.916 1 11.5 1H12.5C16.084 1 19 3.916 19 7.5V8.5V15.5C19 15.776 19.224 16 19.5 16H20V17.5C20 19.379 18.288 22 15.5 22H13.908C13.701 21.419 13.151 21 12.5 21H11.5C10.673 21 10 21.673 10 22.5C10 23.327 10.673 24 11.5 24H12.5C13.151 24 13.701 23.581 13.908 23H15.5C18.648 23 21 20.096 21 17.5V16H21.5C22.878 16 24 14.878 24 13.5V10.5C24 9.122 22.878 8 21.5 8Z" fill="#266C34"/>
</svg>
