<svg width="24" height="18" viewBox="0 0 24 18" fill="none" xmlns="http://www.w3.org/2000/svg">
<path fill-rule="evenodd" clip-rule="evenodd" d="M23 15.5C23 15.949 22.798 16.348 22.484 16.623L14.416 6.767C14.409 6.759 14.4 6.756 14.394 6.748C14.386 6.74 14.383 6.729 14.375 6.722C14.357 6.705 14.335 6.697 14.315 6.684C14.288 6.664 14.263 6.645 14.232 6.632C14.203 6.618 14.173 6.611 14.142 6.604C14.11 6.598 14.08 6.59 14.049 6.588C14.017 6.588 13.986 6.592 13.954 6.598C13.922 6.602 13.892 6.606 13.861 6.617C13.83 6.629 13.802 6.646 13.772 6.664C13.753 6.677 13.73 6.682 13.713 6.696C13.705 6.703 13.701 6.713 13.694 6.719C13.687 6.727 13.676 6.729 13.668 6.737L11.102 9.425L6.288 3.921C6.277 3.908 6.262 3.903 6.25 3.893C6.237 3.88 6.23 3.863 6.216 3.853C6.201 3.842 6.185 3.84 6.17 3.83C6.141 3.812 6.112 3.799 6.081 3.787C6.051 3.775 6.021 3.768 5.989 3.763C5.958 3.758 5.929 3.756 5.897 3.758C5.864 3.758 5.832 3.762 5.8 3.77C5.771 3.777 5.743 3.786 5.716 3.799C5.684 3.812 5.654 3.829 5.625 3.85C5.611 3.859 5.596 3.863 5.583 3.874C5.57 3.885 5.565 3.9 5.554 3.912C5.542 3.925 5.525 3.932 5.515 3.946L1 9.854V2.5C1 1.673 1.673 1 2.5 1H21.5C22.327 1 23 1.673 23 2.5V15.5ZM17.727 17L11.763 10.181L14.001 7.837L21.502 17H21.5H17.727ZM1 15.5V11.502L5.938 5.039L16.398 17H2.5C1.673 17 1 16.327 1 15.5ZM21.5 0H2.5C1.121 0 0 1.121 0 2.5V15.5C0 16.879 1.121 18 2.5 18H21.5C22.879 18 24 16.879 24 15.5V2.5C24 1.121 22.879 0 21.5 0Z" fill="#266C34"/>
<path fill-rule="evenodd" clip-rule="evenodd" d="M19.4414 5.75C18.6144 5.75 17.9414 5.077 17.9414 4.25C17.9414 3.423 18.6144 2.75 19.4414 2.75C20.2684 2.75 20.9414 3.423 20.9414 4.25C20.9414 5.077 20.2684 5.75 19.4414 5.75ZM19.4414 1.75C18.0624 1.75 16.9414 2.871 16.9414 4.25C16.9414 5.629 18.0624 6.75 19.4414 6.75C20.8204 6.75 21.9414 5.629 21.9414 4.25C21.9414 2.871 20.8204 1.75 19.4414 1.75Z" fill="#266C34"/>
</svg>
