<svg width="24" height="24" viewBox="0 0 24 24" fill="none" xmlns="http://www.w3.org/2000/svg">
<mask id="mask0" mask-type="alpha" maskUnits="userSpaceOnUse" x="0" y="8" width="24" height="16">
<path fill-rule="evenodd" clip-rule="evenodd" d="M6.10352e-05 8.97479H24V23.9746H6.10352e-05V8.97479Z" fill="white"/>
</mask>
<g mask="url(#mask0)">
<path fill-rule="evenodd" clip-rule="evenodd" d="M21.9953 9.40379C21.9603 9.15779 21.7493 8.97479 21.5003 8.97479H20.5003C20.2243 8.97479 20.0003 9.19779 20.0003 9.47479C20.0003 9.75079 20.2243 9.97479 20.5003 9.97479H21.0663L22.8703 22.6008L17.7243 20.0278C17.5903 19.9608 17.4333 19.9568 17.2973 20.0178L12.0003 22.3648L6.70329 20.0178C6.56629 19.9568 6.41029 19.9608 6.27629 20.0278L1.13029 22.6008L2.93329 9.97479H3.50029C3.77629 9.97479 4.00029 9.75079 4.00029 9.47479C4.00029 9.19779 3.77629 8.97479 3.50029 8.97479H2.50029C2.25129 8.97479 2.04029 9.15779 2.00529 9.40379L0.00529374 23.4038C-0.0217063 23.5878 0.0572937 23.7718 0.207294 23.8808C0.358294 23.9888 0.557294 24.0048 0.724294 23.9218L6.51329 21.0278L11.7973 23.3688C11.9263 23.4268 12.0743 23.4268 12.2033 23.3688L17.4873 21.0278L23.2763 23.9218C23.3473 23.9568 23.4243 23.9748 23.5003 23.9748C23.6033 23.9748 23.7053 23.9428 23.7923 23.8808C23.9433 23.7718 24.0213 23.5878 23.9953 23.4038L21.9953 9.40379Z" fill="#266C34"/>
</g>
<path fill-rule="evenodd" clip-rule="evenodd" d="M12.0002 1C15.4902 1 18.3292 3.839 18.3292 7.329C18.3292 11.362 13.3802 16.927 11.9992 18.401C10.6162 16.932 5.66421 11.386 5.67121 7.329C5.67121 3.839 8.51022 1 12.0002 1ZM12.0012 19.832L12.3542 19.476C12.6392 19.19 19.3292 12.404 19.3292 7.329C19.3292 3.288 16.0412 0 12.0002 0C7.95921 0 4.67121 3.288 4.67121 7.328C4.66121 12.433 11.3612 19.192 11.6462 19.477L12.0012 19.832Z" fill="#266C34"/>
<path fill-rule="evenodd" clip-rule="evenodd" d="M9.39621 7.09759C9.39621 5.66159 10.5642 4.49359 12.0002 4.49359C13.4362 4.49359 14.6042 5.66159 14.6042 7.09759C14.6042 8.53359 13.4362 9.70159 12.0002 9.70159C10.5642 9.70159 9.39621 8.53359 9.39621 7.09759ZM15.6042 7.09759C15.6042 5.11059 13.9872 3.49359 12.0002 3.49359C10.0132 3.49359 8.39621 5.11059 8.39621 7.09759C8.39621 9.08459 10.0132 10.7016 12.0002 10.7016C13.9872 10.7016 15.6042 9.08459 15.6042 7.09759Z" fill="#266C34"/>
</svg>
