<svg width="24" height="23" viewBox="0 0 24 23" fill="none" xmlns="http://www.w3.org/2000/svg">
<path fill-rule="evenodd" clip-rule="evenodd" d="M23 20.5C23 21.327 22.327 22 21.5 22H3.722C3.895 21.705 4 21.366 4 21V20.5V9.5V1H23V20.5ZM1 21V10H3V20.5V21C3 21.551 2.552 22 2 22C1.448 22 1 21.551 1 21ZM23.5 0H3.5C3.224 0 3 0.224 3 0.5V9H0.5C0.224 9 0 9.224 0 9.5V21C0 22.103 0.897 23 2 23C2.114 23 2.225 22.985 2.333 22.966C2.386 22.985 2.44 23 2.5 23H21.5C22.879 23 24 21.878 24 20.5V0.5C24 0.224 23.776 0 23.5 0Z" fill="#266C34"/>
<path fill-rule="evenodd" clip-rule="evenodd" d="M7 11H13V4H7V11ZM6.5 12H13.5C13.776 12 14 11.776 14 11.5V3.5C14 3.224 13.776 3 13.5 3H6.5C6.224 3 6 3.224 6 3.5V11.5C6 11.776 6.224 12 6.5 12Z" fill="#266C34"/>
<path fill-rule="evenodd" clip-rule="evenodd" d="M16.5 6H21.5C21.776 6 22 5.776 22 5.5C22 5.224 21.776 5 21.5 5H16.5C16.224 5 16 5.224 16 5.5C16 5.776 16.224 6 16.5 6Z" fill="#266C34"/>
<path fill-rule="evenodd" clip-rule="evenodd" d="M16.5 9H21.5C21.776 9 22 8.776 22 8.5C22 8.224 21.776 8 21.5 8H16.5C16.224 8 16 8.224 16 8.5C16 8.776 16.224 9 16.5 9Z" fill="#266C34"/>
<path fill-rule="evenodd" clip-rule="evenodd" d="M16.5 12H21.5C21.776 12 22 11.776 22 11.5C22 11.224 21.776 11 21.5 11H16.5C16.224 11 16 11.224 16 11.5C16 11.776 16.224 12 16.5 12Z" fill="#266C34"/>
<path fill-rule="evenodd" clip-rule="evenodd" d="M21.5 16H7.5C7.224 16 7 16.224 7 16.5C7 16.776 7.224 17 7.5 17H21.5C21.776 17 22 16.776 22 16.5C22 16.224 21.776 16 21.5 16Z" fill="#266C34"/>
<path fill-rule="evenodd" clip-rule="evenodd" d="M21.5 19H7.5C7.224 19 7 19.224 7 19.5C7 19.776 7.224 20 7.5 20H21.5C21.776 20 22 19.776 22 19.5C22 19.224 21.776 19 21.5 19Z" fill="#266C34"/>
</svg>
