<svg width="23" height="25" viewBox="0 0 23 25" fill="none" xmlns="http://www.w3.org/2000/svg">
<path fill-rule="evenodd" clip-rule="evenodd" d="M5.99999 2.70749V6.50049C5.99999 6.77649 5.77499 7.00049 5.49999 7.00049H1.70699L5.99999 2.70749ZM0.499994 8.00049H5.49999C6.32699 8.00049 6.99999 7.32749 6.99999 6.50049V1.50049C6.99999 1.29849 6.87799 1.11549 6.69099 1.03849C6.50699 0.959493 6.28899 1.00349 6.14599 1.14649L0.145994 7.14649C0.00399435 7.29049 -0.0390056 7.50449 0.0379944 7.69149C0.114994 7.87849 0.297994 8.00049 0.499994 8.00049Z" fill="#266C34"/>
<path fill-rule="evenodd" clip-rule="evenodd" d="M19.5 15.0635C19.224 15.0635 19 15.2875 19 15.5635V23.5005C19 23.7765 18.775 24.0005 18.5 24.0005H1.5C1.225 24.0005 1 23.7765 1 23.5005V9.56351C1 9.28751 0.776 9.06351 0.5 9.06351C0.224 9.06351 0 9.28751 0 9.56351V23.5005C0 24.3275 0.673 25.0005 1.5 25.0005H18.5C19.327 25.0005 20 24.3275 20 23.5005V15.5635C20 15.2875 19.776 15.0635 19.5 15.0635Z" fill="#266C34"/>
<path fill-rule="evenodd" clip-rule="evenodd" d="M8.5 2.00049H18.5C18.775 2.00049 19 2.22449 19 2.50049V7.50049C19 7.77649 19.224 8.00049 19.5 8.00049C19.776 8.00049 20 7.77649 20 7.50049V2.50049C20 1.67349 19.327 1.00049 18.5 1.00049H8.5C8.224 1.00049 8 1.22449 8 1.50049C8 1.77649 8.224 2.00049 8.5 2.00049Z" fill="#266C34"/>
<path fill-rule="evenodd" clip-rule="evenodd" d="M19.8496 12.2149L18.4326 10.8039L19.3906 9.84589L20.8046 11.2599L19.8496 12.2149ZM13.0216 19.0439L11.6116 17.6259L17.7256 11.5109L19.1426 12.9219L13.0216 19.0439ZM11.0606 18.4909L12.1566 19.5919L10.1436 20.5059L11.0606 18.4909ZM21.8656 10.9059L19.7446 8.78489C19.5486 8.58989 19.2326 8.58989 19.0376 8.78489L10.5516 17.2709C10.5096 17.3129 10.4746 17.3619 10.4506 17.4169L8.68161 21.3059C8.59561 21.4959 8.63561 21.7189 8.78361 21.8659C8.87861 21.9619 9.00661 22.0129 9.13661 22.0129C9.20661 22.0129 9.27761 21.9979 9.34361 21.9679L13.2336 20.1999C13.2876 20.1749 13.3376 20.1409 13.3796 20.0989L21.8656 11.6129C22.0606 11.4179 22.0606 11.1019 21.8656 10.9059Z" fill="#266C34"/>
</svg>
