<svg width="24" height="24" viewBox="0 0 24 24" fill="none" xmlns="http://www.w3.org/2000/svg">
<mask id="mask0" mask-type="alpha" maskUnits="userSpaceOnUse" x="0" y="0" width="24" height="24">
<path fill-rule="evenodd" clip-rule="evenodd" d="M3.05176e-05 0H24V24H3.05176e-05V0Z" fill="white"/>
</mask>
<g mask="url(#mask0)">
<path fill-rule="evenodd" clip-rule="evenodd" d="M12.0002 23C10.0212 23 8.0842 22.468 6.3962 21.461C6.3172 21.414 6.2292 21.39 6.1402 21.39C6.0942 21.39 6.0482 21.396 6.0022 21.409L1.2742 22.759L2.7652 18.298C2.8122 18.155 2.7932 17.997 2.7102 17.87C1.5922 16.131 1.0002 14.102 1.0002 12C1.0002 5.935 5.9352 1 12.0002 1C18.0652 1 23.0002 5.935 23.0002 12C23.0002 18.065 18.0652 23 12.0002 23ZM12.0002 0C5.3832 0 0.000195891 5.383 0.000195891 12C0.000195891 14.212 0.602196 16.353 1.7412 18.206L0.0251959 23.342C-0.0328041 23.518 0.0111959 23.711 0.139196 23.846C0.234196 23.946 0.365196 24 0.500196 24C0.546196 24 0.592196 23.994 0.638196 23.981L6.0712 22.43C7.8702 23.458 9.9152 24 12.0002 24C18.6172 24 24.0002 18.617 24.0002 12C24.0002 5.383 18.6172 0 12.0002 0Z" fill="#266C34"/>
</g>
<path fill-rule="evenodd" clip-rule="evenodd" d="M17.5002 9H6.50021C6.22421 9 6.00021 9.224 6.00021 9.5C6.00021 9.776 6.22421 10 6.50021 10H17.5002C17.7762 10 18.0002 9.776 18.0002 9.5C18.0002 9.224 17.7762 9 17.5002 9Z" fill="#266C34"/>
<path fill-rule="evenodd" clip-rule="evenodd" d="M17.5002 12H6.50021C6.22421 12 6.00021 12.224 6.00021 12.5C6.00021 12.776 6.22421 13 6.50021 13H17.5002C17.7762 13 18.0002 12.776 18.0002 12.5C18.0002 12.224 17.7762 12 17.5002 12Z" fill="#266C34"/>
<path fill-rule="evenodd" clip-rule="evenodd" d="M17.5002 15H6.50021C6.22421 15 6.00021 15.224 6.00021 15.5C6.00021 15.776 6.22421 16 6.50021 16H17.5002C17.7762 16 18.0002 15.776 18.0002 15.5C18.0002 15.224 17.7762 15 17.5002 15Z" fill="#266C34"/>
</svg>
