<svg width="20" height="24" viewBox="0 0 20 24" fill="none" xmlns="http://www.w3.org/2000/svg">
<path fill-rule="evenodd" clip-rule="evenodd" d="M19 23H14V17.5C14 15.57 12.43 14 10.5 14H9.5C7.57 14 6 15.57 6 17.5V23H1V8.732L10 1.153L14.176 4.67C14.177 4.671 14.177 4.672 14.178 4.673L14.711 5.121L19 8.732V23ZM7 23V17.5C7 16.121 8.122 15 9.5 15H10.5C11.878 15 13 16.121 13 17.5V23H7ZM15 1H17V5.737L15.174 4.203L15 4.057V1ZM19.822 8.117L17.986 6.57C17.989 6.547 18 6.525 18 6.5V0.5C18 0.224 17.776 3.72529e-09 17.5 3.72529e-09H14.5C14.224 3.72529e-09 14 0.224 14 0.5V3.215L10.322 0.117C10.136 -0.039 9.864 -0.039 9.678 0.117L0.178 8.117C0.065 8.213 0 8.353 0 8.5V23.5C0 23.776 0.224 24 0.5 24H6.5H13.5H19.5C19.776 24 20 23.776 20 23.5V8.5C20 8.353 19.935 8.213 19.822 8.117Z" fill="white"/>
<path fill-rule="evenodd" clip-rule="evenodd" d="M10 11C8.897 11 8 10.103 8 9C8 7.897 8.897 7 10 7C11.103 7 12 7.897 12 9C12 10.103 11.103 11 10 11ZM10 6C8.346 6 7 7.346 7 9C7 10.654 8.346 12 10 12C11.654 12 13 10.654 13 9C13 7.346 11.654 6 10 6Z" fill="white"/>
</svg>
