<svg width="24" height="18" viewBox="0 0 24 18" fill="none" xmlns="http://www.w3.org/2000/svg">
<path fill-rule="evenodd" clip-rule="evenodd" d="M10 12.4326V5.4346L14.665 8.5446L10 12.4326ZM9.777 4.0836C9.624 3.9816 9.427 3.9726 9.264 4.0596C9.102 4.1466 9 4.3156 9 4.4996V13.4996C9 13.6946 9.112 13.8696 9.288 13.9536C9.355 13.9846 9.428 13.9996 9.5 13.9996C9.615 13.9996 9.729 13.9606 9.82 13.8836L15.82 8.8836C15.941 8.7836 16.008 8.6306 15.999 8.4736C15.991 8.3156 15.908 8.1716 15.777 8.0836L9.777 4.0836Z" fill="#266C34"/>
<path fill-rule="evenodd" clip-rule="evenodd" d="M23 16.5C23 16.775 22.775 17 22.5 17H1.5C1.225 17 1 16.775 1 16.5V1.5C1 1.225 1.225 1 1.5 1H22.5C22.775 1 23 1.225 23 1.5V16.5ZM22.5 0H1.5C0.673 0 0 0.673 0 1.5V16.5C0 17.327 0.673 18 1.5 18H22.5C23.327 18 24 17.327 24 16.5V1.5C24 0.673 23.327 0 22.5 0Z" fill="#266C34"/>
<path fill-rule="evenodd" clip-rule="evenodd" d="M4.5 3H3.5C3.224 3 3 3.224 3 3.5V4.5C3 4.776 3.224 5 3.5 5H4.5C4.776 5 5 4.776 5 4.5V3.5C5 3.224 4.776 3 4.5 3Z" fill="#266C34"/>
<path fill-rule="evenodd" clip-rule="evenodd" d="M4.5 8H3.5C3.224 8 3 8.224 3 8.5V9.5C3 9.776 3.224 10 3.5 10H4.5C4.776 10 5 9.776 5 9.5V8.5C5 8.224 4.776 8 4.5 8Z" fill="#266C34"/>
<path fill-rule="evenodd" clip-rule="evenodd" d="M4.5 13H3.5C3.224 13 3 13.224 3 13.5V14.5C3 14.776 3.224 15 3.5 15H4.5C4.776 15 5 14.776 5 14.5V13.5C5 13.224 4.776 13 4.5 13Z" fill="#266C34"/>
<path fill-rule="evenodd" clip-rule="evenodd" d="M20.5 3H19.5C19.224 3 19 3.224 19 3.5V4.5C19 4.776 19.224 5 19.5 5H20.5C20.776 5 21 4.776 21 4.5V3.5C21 3.224 20.776 3 20.5 3Z" fill="#266C34"/>
<path fill-rule="evenodd" clip-rule="evenodd" d="M20.5 8H19.5C19.224 8 19 8.224 19 8.5V9.5C19 9.776 19.224 10 19.5 10H20.5C20.776 10 21 9.776 21 9.5V8.5C21 8.224 20.776 8 20.5 8Z" fill="#266C34"/>
<path fill-rule="evenodd" clip-rule="evenodd" d="M20.5 13H19.5C19.224 13 19 13.224 19 13.5V14.5C19 14.776 19.224 15 19.5 15H20.5C20.776 15 21 14.776 21 14.5V13.5C21 13.224 20.776 13 20.5 13Z" fill="#266C34"/>
</svg>
