<svg width="50" height="51" viewBox="0 0 50 51" fill="none" xmlns="http://www.w3.org/2000/svg">
<g clip-path="url(#clip0)">
<path d="M25 21.4718C27.0627 21.4718 28.8508 19.9917 29.2517 17.9526C29.2917 17.7492 29.1607 17.5516 28.9591 17.5113C28.7574 17.471 28.5617 17.6031 28.5217 17.8065C28.1897 19.4952 26.7087 20.7208 25 20.7208C23.02 20.7208 21.4091 19.0952 21.4091 17.0972C21.4091 15.0992 23.02 13.4737 25 13.4737C26.6522 13.4737 28.0848 14.6022 28.4839 16.218C28.5336 16.4192 28.7358 16.5416 28.935 16.4915C29.1344 16.4414 29.2558 16.2376 29.2061 16.0364C28.7242 14.0853 26.9946 12.7227 25 12.7227C22.6096 12.7227 20.6648 14.6851 20.6648 17.0972C20.6648 19.5094 22.6096 21.4718 25 21.4718Z" fill="#00621E"/>
<path d="M26.6433 15.8347L24.732 17.7634L23.3567 16.3755C23.2113 16.2289 22.9757 16.2289 22.8304 16.3755C22.6851 16.5222 22.6851 16.7599 22.8304 16.9065L24.4689 18.5599C24.5387 18.6303 24.6333 18.6698 24.732 18.6698C24.8307 18.6698 24.9254 18.6303 24.9951 18.5599L27.1695 16.3657C27.3149 16.219 27.3149 15.9813 27.1695 15.8346C27.0242 15.6881 26.7886 15.6881 26.6433 15.8347Z" fill="#00621E"/>
<path d="M37.3114 23.0135L36.0976 21.7886C35.9522 21.642 35.7167 21.642 35.5713 21.7886C35.426 21.9353 35.426 22.173 35.5713 22.3197L36.7141 23.4728L34.2343 25.9751L29.6174 21.3161L32.0971 18.8139L34.3433 21.0805C34.4887 21.2271 34.7243 21.2271 34.8696 21.0805C35.0149 20.9338 35.0149 20.6961 34.8696 20.5495L32.5522 18.211C32.3012 17.9579 31.8928 17.9579 31.6418 18.2111L29.0199 20.8569C28.769 21.1101 28.769 21.5222 29.02 21.7756L29.2539 22.0117L28.4551 22.8178C27.8992 23.3788 27.068 23.5519 26.3373 23.2589C25.3303 22.855 24.1845 23.0937 23.4184 23.8668L22.8119 24.4789L20.8293 22.4782L20.9799 22.3262C21.2308 22.073 21.2308 21.6609 20.9798 21.4076L18.358 18.7619C18.107 18.5086 17.6986 18.5087 17.4476 18.7619L12.6886 23.5642C12.567 23.6869 12.5 23.85 12.5 24.0236C12.5 24.1971 12.5669 24.3602 12.6885 24.483L15.3103 27.1285C15.432 27.2513 15.5936 27.3189 15.7656 27.3189C15.9376 27.3189 16.0993 27.2513 16.2208 27.1286L16.3247 27.0237L18.4244 29.1425C18.5021 29.2209 18.5733 29.3045 18.6385 29.3919L16.602 31.447C16.0696 31.9843 16.0696 32.8585 16.602 33.3959C16.8682 33.6645 17.2179 33.7988 17.5676 33.7988C17.5811 33.7988 17.5946 33.7983 17.6081 33.7979C17.6077 33.8116 17.6071 33.8254 17.6071 33.8393C17.6071 34.2074 17.7491 34.5534 18.0071 34.8137C18.265 35.074 18.608 35.2174 18.9727 35.2174C18.9865 35.2174 19.0001 35.2168 19.0138 35.2164C19.0031 35.5827 19.1357 35.9526 19.4122 36.2316C19.6701 36.4919 20.013 36.6353 20.3778 36.6353C20.5527 36.6353 20.7224 36.602 20.8803 36.539C20.9344 36.7871 21.0564 37.023 21.2472 37.2156C21.5135 37.4842 21.8632 37.6185 22.2129 37.6185C22.5625 37.6185 22.9123 37.4842 23.1785 37.2155L23.4717 36.9197L24.4433 37.9001C24.7353 38.1948 25.1234 38.357 25.5362 38.357C25.9491 38.357 26.3373 38.1948 26.6291 37.9002C26.921 37.6056 27.0818 37.2139 27.0818 36.7974C27.0818 36.757 27.0803 36.7169 27.0773 36.6771C27.5122 36.7106 27.9572 36.56 28.2887 36.2256C28.6202 35.8909 28.7693 35.4409 28.736 35.0024C29.1706 35.0361 29.6166 34.8855 29.9482 34.5509C30.2796 34.2165 30.4287 33.7668 30.3957 33.3286C30.4442 33.3324 30.4932 33.3339 30.5424 33.3329C30.9655 33.3253 31.3577 33.1487 31.6466 32.8356C32.2068 32.2288 32.1805 31.2486 31.5879 30.6505L30.4315 29.4837L33.5452 26.3417L33.7791 26.5778C33.9007 26.7005 34.0624 26.7681 34.2344 26.7681C34.4064 26.7681 34.5681 26.7005 34.6896 26.5779L37.3114 23.9322C37.433 23.8095 37.5 23.6464 37.5 23.4728C37.5 23.2992 37.433 23.1361 37.3114 23.0135ZM17.1283 32.8649C16.886 32.6204 16.886 32.2225 17.1283 31.978L19.4308 29.6546C19.5485 29.5358 19.7039 29.4709 19.8698 29.4709C19.8746 29.4709 19.8793 29.471 19.884 29.4711C20.0551 29.4749 20.2133 29.5474 20.3294 29.6754C20.5503 29.9189 20.5316 30.3171 20.2878 30.5634L18.0071 32.8648C17.7648 33.1094 17.3705 33.1093 17.1283 32.8649ZM19.412 34.2828C19.2946 34.4011 19.1387 34.4663 18.9727 34.4663C18.8068 34.4663 18.6507 34.4011 18.5333 34.2827C18.4159 34.1642 18.3513 34.0067 18.3513 33.8393C18.3513 33.6718 18.416 33.5143 18.5333 33.3959L21.0961 30.8098C21.2136 30.6913 21.3694 30.6262 21.5354 30.6262H21.5405C21.7083 30.6275 21.865 30.6952 21.9818 30.8169C22.2166 31.0613 22.2135 31.456 21.975 31.6966L19.4122 34.2827C19.4121 34.2827 19.412 34.2828 19.412 34.2828ZM21.2472 35.2666L20.8173 35.7005C20.6999 35.8189 20.5438 35.8842 20.3779 35.8842C20.2119 35.8842 20.0559 35.8189 19.9385 35.7005C19.8211 35.5821 19.7565 35.4246 19.7565 35.2571C19.7565 35.0896 19.8211 34.9321 19.9385 34.8137L22.043 32.69C22.1605 32.5718 22.3161 32.5069 22.4818 32.5069C22.4834 32.5069 22.4851 32.5069 22.4868 32.5069C22.6546 32.5082 22.8114 32.5759 22.9282 32.6976C23.1629 32.942 23.1599 33.3367 22.9214 33.5773L21.2472 35.2666C21.2472 35.2665 21.2472 35.2666 21.2472 35.2666ZM23.7728 35.5537L22.6523 36.6844C22.41 36.929 22.0157 36.9289 21.7735 36.6845C21.5314 36.4401 21.5312 36.0427 21.7731 35.7981L22.8943 34.6667C23.013 34.5471 23.1708 34.4831 23.3383 34.4832C23.5061 34.4845 23.6629 34.5523 23.7797 34.6739C24.0144 34.9183 24.0113 35.313 23.7728 35.5537ZM31.0615 31.1816C31.3741 31.497 31.3922 32.0093 31.1019 32.3238C30.9519 32.4864 30.7485 32.578 30.5291 32.582C30.3082 32.5845 30.1033 32.5018 29.9482 32.3452C29.8028 32.1986 29.5672 32.1986 29.4219 32.3452C29.3493 32.4186 29.3129 32.5147 29.3129 32.6108C29.3129 32.7069 29.3493 32.803 29.4219 32.8763C29.7344 33.1916 29.7344 33.7046 29.4219 34.0199C29.1095 34.3352 28.6011 34.3352 28.2887 34.0199C28.1433 33.8733 27.9077 33.8733 27.7624 34.0199C27.6898 34.0932 27.6534 34.1893 27.6534 34.2854C27.6534 34.3815 27.6898 34.4776 27.7624 34.551C28.0749 34.8663 28.0749 35.3792 27.7624 35.6945C27.4501 36.0098 26.9416 36.0099 26.6291 35.6946C26.4838 35.548 26.2482 35.548 26.1029 35.6946C25.9576 35.8413 25.9576 36.079 26.1029 36.2256C26.2543 36.3783 26.3376 36.5813 26.3376 36.7974C26.3376 37.0133 26.2542 37.2164 26.1028 37.3692C25.9515 37.5219 25.7503 37.606 25.5362 37.606C25.3222 37.606 25.121 37.5219 24.9696 37.3691L23.998 36.3886L24.2991 36.0848C24.8233 35.5558 24.83 34.6885 24.3141 34.1513C24.1395 33.9694 23.9241 33.8426 23.6881 33.7791C23.9559 33.2654 23.8817 32.6112 23.4626 32.1749C23.2769 31.9814 23.0451 31.8505 22.7914 31.7915C22.9975 31.2965 22.9068 30.7008 22.5163 30.2941C22.2596 30.0268 21.9151 29.878 21.5463 29.8751C21.5426 29.8751 21.539 29.8751 21.5352 29.8751C21.4276 29.8751 21.322 29.8879 21.2198 29.9122C21.1856 29.6425 21.0724 29.3821 20.8784 29.1683C20.6238 28.8877 20.2765 28.7286 19.9005 28.7203C19.6509 28.7145 19.4111 28.7763 19.2003 28.8967C19.1234 28.7971 19.0403 28.7018 18.9508 28.6114L16.8511 26.4927L18.5262 24.8024C18.6716 24.6557 18.6716 24.4179 18.5262 24.2713C18.381 24.1247 18.1453 24.1247 18 24.2713L15.7657 26.5259L13.286 24.0236L17.903 19.3646L20.3827 21.8669L19.228 23.0321C19.0826 23.1788 19.0826 23.4166 19.228 23.5632C19.3733 23.7098 19.6089 23.7098 19.7542 23.5632L20.3031 23.0093L22.2858 25.01L21.8804 25.4191C21.5884 25.7137 21.4277 26.1053 21.4277 26.5219C21.4277 26.9385 21.5884 27.3302 21.8804 27.6247C22.1723 27.9193 22.5604 28.0815 22.9733 28.0815C23.3861 28.0815 23.7743 27.9193 24.0662 27.6247L25.1458 26.5352C25.4425 26.2358 25.9138 26.1854 26.2662 26.4152C26.2667 26.4156 26.2673 26.4159 26.2679 26.4163L31.0615 31.1816ZM29.9052 28.9526L27.5938 26.6201C27.5983 26.6189 27.6029 26.6179 27.6074 26.6166L29.5396 26.0593C29.7372 26.0024 29.8516 25.7945 29.7951 25.5952C29.7386 25.3957 29.5326 25.2801 29.3351 25.3373L27.4029 25.8946C27.1542 25.9663 26.8872 25.9262 26.67 25.7845C26.0252 25.3639 25.1627 25.4561 24.6195 26.0042L23.5398 27.0938C23.3885 27.2465 23.1872 27.3305 22.9732 27.3305C22.7591 27.3305 22.5579 27.2464 22.4066 27.0937C22.0941 26.7784 22.0941 26.2655 22.4066 25.9502L23.9448 24.3979C24.5007 23.837 25.332 23.6638 26.0626 23.9568C27.0696 24.3607 28.2153 24.122 28.9816 23.3489L29.7804 22.5428L33.0189 25.8107L29.9052 28.9526Z" fill="#00621E"/>
<circle cx="25" cy="25.2227" r="24.5" stroke="#00621E"/>
</g>
<defs>
<clipPath id="clip0">
<rect width="50" height="50" fill="white" transform="translate(0 0.222656)"/>
</clipPath>
</defs>
</svg>
