<svg width="10" height="22" viewBox="0 0 10 22" fill="none" xmlns="http://www.w3.org/2000/svg">
<path d="M8.34077 21.0027C8.12731 21.0034 7.9164 20.9563 7.72354 20.8648C7.53068 20.7733 7.36076 20.6398 7.22628 20.474L0.325041 11.9011C0.114887 11.6454 0 11.3247 0 10.9938C0 10.6628 0.114887 10.3421 0.325041 10.0865L7.46918 1.51348C7.71171 1.22169 8.06022 1.03819 8.43804 1.00336C8.81586 0.968526 9.19204 1.08521 9.48383 1.32773C9.77562 1.57026 9.95912 1.91877 9.99395 2.29659C10.0288 2.67441 9.91211 3.05059 9.66958 3.34238L3.28272 11.0009L9.45526 18.6594C9.62998 18.8692 9.74096 19.1245 9.77508 19.3954C9.8092 19.6662 9.76503 19.9412 9.64779 20.1877C9.53054 20.4342 9.34514 20.6419 9.11351 20.7864C8.88188 20.9308 8.61372 21.0059 8.34077 21.0027Z" fill="#1E1E1E"/>
</svg>
