<svg width="50" height="51" viewBox="0 0 50 51" fill="none" xmlns="http://www.w3.org/2000/svg">
<g clip-path="url(#clip0)">
<circle cx="25" cy="25.2227" r="24.5" stroke="#00621E"/>
<path d="M28.4689 26.4126C28.306 26.2496 28.0418 26.2495 27.8788 26.4126L24.9999 29.2914L19.1284 23.4198C18.5926 22.884 18.2975 22.1716 18.2975 21.4139C18.2975 20.6561 18.5926 19.9437 19.1284 19.4078C20.2345 18.3017 22.0343 18.3017 23.1404 19.4078L24.7048 20.9722C24.8677 21.1352 25.1319 21.1352 25.295 20.9722L26.8594 19.4078C27.9654 18.3018 29.7653 18.3017 30.8713 19.4078C31.4072 19.9436 31.7023 20.6561 31.7023 21.4139C31.7023 22.1716 31.4072 22.884 30.8713 23.4198L29.2557 25.0355C29.0927 25.1985 29.0927 25.4627 29.2557 25.6257C29.4187 25.7886 29.6829 25.7885 29.8459 25.6257L31.4615 24.0099C32.155 23.3165 32.5369 22.3945 32.5369 21.4138C32.5369 20.4331 32.155 19.5111 31.4615 18.8177C30.03 17.3862 27.7007 17.3861 26.2692 18.8177L24.9999 20.0871L23.7306 18.8177C22.299 17.3862 19.9698 17.3862 18.5383 18.8177C17.8449 19.5112 17.4629 20.4332 17.4629 21.4139C17.4629 22.3946 17.8448 23.3166 18.5383 24.01L24.5081 29.9799C24.6395 30.1113 24.8142 30.1836 24.9999 30.1836C25.1857 30.1836 25.3604 30.1113 25.4917 29.9799L28.4689 27.0027C28.6319 26.8397 28.6319 26.5755 28.4689 26.4126Z" fill="#00621E"/>
<path d="M25.0001 13.5473C25.2306 13.5473 25.4174 13.3605 25.4174 13.13V11.0566C25.4174 10.8262 25.2306 10.6393 25.0001 10.6393C24.7696 10.6393 24.5828 10.8262 24.5828 11.0566V13.13C24.5828 13.3605 24.7696 13.5473 25.0001 13.5473Z" fill="#00621E"/>
<path d="M32.0374 16.4623C32.1442 16.4623 32.251 16.4215 32.3325 16.34L33.7987 14.8739C33.9616 14.711 33.9616 14.4467 33.7987 14.2838C33.6357 14.1209 33.3715 14.1208 33.2085 14.2838L31.7423 15.7499C31.5794 15.9129 31.5794 16.1771 31.7423 16.34C31.8238 16.4215 31.9306 16.4623 32.0374 16.4623Z" fill="#00621E"/>
<path d="M34.9525 23.4997H37.0259C37.2564 23.4997 37.4432 23.3128 37.4432 23.0824C37.4432 22.8519 37.2564 22.6651 37.0259 22.6651H34.9525C34.7219 22.6651 34.5352 22.8519 34.5352 23.0824C34.5352 23.3128 34.722 23.4997 34.9525 23.4997Z" fill="#00621E"/>
<path d="M25.0001 32.6174C24.7696 32.6174 24.5828 32.8042 24.5828 33.0347V35.1081C24.5828 35.3386 24.7696 35.5254 25.0001 35.5254C25.2306 35.5254 25.4174 35.3386 25.4174 35.1081V33.0347C25.4174 32.8042 25.2306 32.6174 25.0001 32.6174Z" fill="#00621E"/>
<path d="M12.9742 23.4997H15.0476C15.278 23.4997 15.4649 23.3128 15.4649 23.0824C15.4649 22.8519 15.278 22.6651 15.0476 22.6651H12.9742C12.7437 22.6651 12.5569 22.8519 12.5569 23.0824C12.5569 23.3128 12.7437 23.4997 12.9742 23.4997Z" fill="#00621E"/>
<path d="M17.6674 16.34C17.7489 16.4215 17.8557 16.4623 17.9625 16.4623C18.0693 16.4623 18.1761 16.4215 18.2575 16.34C18.4205 16.1771 18.4205 15.9128 18.2575 15.7499L16.7914 14.2838C16.6285 14.1208 16.3642 14.1208 16.2013 14.2838C16.0384 14.4468 16.0384 14.711 16.2013 14.8739L17.6674 16.34Z" fill="#00621E"/>
<path d="M21.0725 32.6253C20.7384 32.6253 20.4243 32.7554 20.1881 32.9916L20.0015 33.1782V30.9478C20.0015 30.7173 19.8147 30.5305 19.5842 30.5305C19.3538 30.5305 19.1669 30.7173 19.1669 30.9478V34.0128L18.9432 34.2365H18.3741C16.8506 34.2365 15.6112 35.4759 15.6112 36.9994C15.6112 37.2298 15.798 37.4167 16.0285 37.4167C16.2589 37.4167 16.4458 37.2298 16.4458 36.9994C16.4458 35.9361 17.3108 35.0711 18.3741 35.0711H19.116C19.2267 35.0711 19.3329 35.0271 19.4111 34.9489L20.7782 33.5818C20.8568 33.5032 20.9613 33.4599 21.0724 33.4599C21.1835 33.4599 21.288 33.5032 21.3666 33.5818C21.5288 33.744 21.5288 34.008 21.3666 34.1702L18.9077 36.6291C18.878 36.6588 18.8529 36.6929 18.8333 36.73C18.327 37.6936 17.3374 38.2922 16.2508 38.2922C14.6428 38.2922 13.3346 36.984 13.3346 35.376V28.7652C13.3346 28.5358 13.5212 28.3492 13.7507 28.3492C13.9801 28.3492 14.1667 28.5358 14.1667 28.7652V32.8765C14.1667 33.107 14.3536 33.2938 14.584 33.2938H17.9175C18.148 33.2938 18.3348 33.107 18.3348 32.8765V28.2097C18.3348 27.9803 18.5214 27.7936 18.7509 27.7936C18.9803 27.7936 19.1669 27.9802 19.1669 28.2097V29.0004C19.1669 29.2308 19.3538 29.4177 19.5842 29.4177C19.8147 29.4177 20.0015 29.2308 20.0015 29.0004V28.2097C20.0015 27.5201 19.4405 26.959 18.7509 26.959C18.605 26.959 18.4651 26.9843 18.3348 27.0305V26.4874C18.3348 25.7977 17.7738 25.2367 17.0841 25.2367C16.4172 25.2367 15.8705 25.7615 15.8354 26.4199C15.7046 26.3734 15.564 26.3479 15.4174 26.3479C14.7319 26.3479 14.1737 26.9022 14.1671 27.5861C14.0367 27.5399 13.8967 27.5146 13.7507 27.5146C13.061 27.5146 12.5 28.0756 12.5 28.7652V35.376C12.5001 37.4442 14.1826 39.1268 16.2508 39.1268C17.6267 39.1268 18.8815 38.3809 19.5414 37.1758L21.9568 34.7603C22.1931 34.524 22.3231 34.21 22.3231 33.876C22.3231 33.5419 22.193 33.2279 21.9568 32.9916C21.7206 32.7554 21.4066 32.6253 21.0725 32.6253ZM16.6681 26.4874C16.6681 26.2579 16.8547 26.0713 17.0842 26.0713C17.3137 26.0713 17.5003 26.2579 17.5003 26.4874V32.4592H16.6681V26.4874ZM15.0014 27.5985C15.0014 27.3691 15.188 27.1825 15.4175 27.1825C15.6469 27.1825 15.8335 27.3691 15.8335 27.5985V32.4592H15.0014V27.5985Z" fill="#00621E"/>
<path d="M37.0828 30.0297C37.3133 30.0297 37.5001 29.8429 37.5001 29.6124V28.7652C37.5001 28.0756 36.9391 27.5146 36.2494 27.5146C36.1035 27.5146 35.9634 27.5399 35.8331 27.5861C35.8264 26.9022 35.2682 26.3479 34.5827 26.3479C34.4362 26.3479 34.2955 26.3734 34.1648 26.4199C34.1296 25.7615 33.583 25.2367 32.916 25.2367C32.2263 25.2367 31.6653 25.7977 31.6653 26.4874V27.0304C31.535 26.9843 31.3951 26.959 31.2492 26.959C30.5595 26.959 29.9985 27.52 29.9985 28.2096V33.1781L29.8119 32.9915C29.3243 32.5038 28.5309 32.5039 28.0432 32.9915C27.5556 33.4791 27.5556 34.2726 28.0432 34.7602L30.4586 37.1757C31.1186 38.3809 32.3735 39.1268 33.7494 39.1268C35.8176 39.1268 37.5001 37.4442 37.5001 35.376V31.5598C37.5001 31.3293 37.3133 31.1425 37.0828 31.1425C36.8523 31.1425 36.6655 31.3293 36.6655 31.5598V35.376C36.6655 36.984 35.3573 38.2922 33.7494 38.2922C32.6628 38.2922 31.6731 37.6936 31.1667 36.73C31.1472 36.6929 31.1221 36.6588 31.0924 36.6291L28.6335 34.1702C28.4713 34.0079 28.4713 33.744 28.6336 33.5817C28.7121 33.5032 28.8166 33.4599 28.9277 33.4599C29.0388 33.4599 29.1433 33.5032 29.2219 33.5817L30.589 34.9489C30.6672 35.0271 30.7733 35.0711 30.8841 35.0711H31.626C32.6893 35.0711 33.5543 35.9361 33.5543 36.9994C33.5543 37.2298 33.7411 37.4167 33.9716 37.4167C34.2021 37.4167 34.3889 37.2298 34.3889 36.9994C34.3889 35.4759 33.1495 34.2365 31.626 34.2365H31.0569L30.8329 34.0125C30.8329 34.011 30.8332 34.0095 30.8332 34.0079V28.2097C30.8332 27.9802 31.0198 27.7936 31.2492 27.7936C31.4787 27.7936 31.6654 27.9802 31.6654 28.2097V32.8765C31.6654 33.107 31.8521 33.2938 32.0827 33.2938H35.4161C35.6466 33.2938 35.8334 33.107 35.8334 32.8765V28.7652C35.8334 28.5358 36.02 28.3492 36.2495 28.3492C36.479 28.3492 36.6656 28.5358 36.6656 28.7652V29.6124C36.6655 29.8429 36.8524 30.0297 37.0828 30.0297ZM33.3321 27.5985V32.4592H32.4999V26.4874C32.4999 26.2579 32.6866 26.0713 32.916 26.0713C33.1455 26.0713 33.3321 26.2579 33.3321 26.4874V27.5985H33.3321ZM34.9988 32.4593H34.1667V27.5986C34.1667 27.3691 34.3533 27.1825 34.5828 27.1825C34.8122 27.1825 34.9989 27.3691 34.9989 27.5986V32.4593H34.9988Z" fill="#00621E"/>
</g>
<defs>
<clipPath id="clip0">
<rect width="50" height="50" fill="white" transform="translate(0 0.222656)"/>
</clipPath>
</defs>
</svg>
