<svg width="33" height="32" viewBox="0 0 33 32" fill="none" xmlns="http://www.w3.org/2000/svg">
<path d="M0.5 5C0.5 2.23858 2.73858 0 5.5 0H27.5C30.2614 0 32.5 2.23858 32.5 5V27C32.5 29.7614 30.2614 32 27.5 32H5.5C2.73858 32 0.5 29.7614 0.5 27V5Z" fill="#1877F2"/>
<path d="M19.7298 16.4996L20.0756 14.0867H17.914V12.5208C17.914 11.8608 18.2158 11.2171 19.1841 11.2171H20.1667V9.16292C20.1667 9.16292 19.2751 9 18.4224 9C16.6423 9 15.4788 10.1558 15.4788 12.2479V14.0871H13.5V16.5H15.4788V22.3333H17.914V16.5L19.7298 16.4996Z" fill="white"/>
</svg>
