<svg width="41" height="48" viewBox="0 0 41 48" fill="none" xmlns="http://www.w3.org/2000/svg">
<path d="M40.369 0.83212C34.4497 0.989749 28.4252 3.21892 22.5836 4.18775C15.5067 5.36148 8.39608 5.86437 1.24775 6.37655C1.0299 6.39211 1.021 6.71365 1.24553 6.71292C7.45033 6.69055 13.6561 6.03801 19.789 5.14592C22.9718 4.68299 26.1414 4.13827 29.292 3.49693C32.5354 2.83672 35.8012 1.78072 39.1141 1.48223C28.9517 7.37617 18.618 13.0834 8.70852 19.3743C8.71507 19.3469 8.71427 19.3173 8.69834 19.2884C8.38047 18.7158 8.04679 18.1545 7.70511 17.5991C8.53147 17.6111 9.37291 17.5702 10.1722 17.3696C10.3124 17.3345 10.2503 17.1462 10.1154 17.1634C9.26819 17.2725 8.43858 17.3903 7.58574 17.4104C6.73235 16.0365 5.82256 14.7036 4.91877 13.366C6.2316 13.4067 7.54934 13.3983 8.85407 13.2488C8.99411 13.2328 9.00406 13.0216 8.85553 13.0282C7.48828 13.0899 6.1282 13.1498 4.76029 13.1306C4.31777 12.4745 3.88164 11.8138 3.45152 11.1486C5.08444 11.0662 6.71712 10.9895 8.34661 10.8532C8.50055 10.8404 8.50746 10.6087 8.34818 10.6145C6.66425 10.6763 4.98467 10.8014 3.30415 10.9187C2.8189 10.1621 2.35585 9.38937 1.9086 8.60523C3.97258 8.56331 6.0362 8.51536 8.09803 8.40747C8.27006 8.39843 8.27514 8.14204 8.09977 8.14347C5.98301 8.15977 3.86863 8.23892 1.75381 8.32333C1.53584 7.93343 1.31128 7.54797 1.10811 7.14728C0.949152 6.83383 0.506073 7.10556 0.63661 7.41261C0.787333 7.76726 0.956377 8.12066 1.12144 8.47423C1.11755 8.52031 1.1364 8.56031 1.17363 8.58837C3.00468 12.4725 5.66135 16.2684 8.49411 19.4404C8.50853 19.4567 8.52583 19.4597 8.54292 19.4641C8.5291 19.4774 8.51292 19.4861 8.50365 19.5026C8.48347 19.5151 8.46328 19.5276 8.44309 19.5405C8.36554 19.5898 8.43284 19.7064 8.51514 19.6628C8.51574 19.6624 8.51673 19.6618 8.51733 19.6616C8.53152 19.6831 8.53714 19.7071 8.56569 19.7232C8.57204 19.7269 8.57878 19.7305 8.58513 19.7342C8.5932 19.7771 8.62102 19.8148 8.68016 19.8116C8.6929 19.8109 8.70564 19.8103 8.71819 19.8096C10.9447 21.0716 13.3453 22.4392 15.7927 23.2121C15.7982 23.2139 15.8019 23.2097 15.8072 23.2111C14.9268 24.0371 14.0398 24.8562 13.1587 25.6812C13.144 25.6817 13.1295 25.6824 13.1147 25.6829C13.0399 25.6852 13.0156 25.7481 13.0305 25.8009C12.9156 25.9087 12.7994 26.0152 12.6847 26.1234C12.4563 26.3389 12.8012 26.6798 13.0305 26.4657C13.2368 26.2732 13.4447 26.0825 13.651 25.8898C15.5517 25.9754 17.459 25.8438 19.3364 25.5536C19.4892 25.5301 19.4569 25.2694 19.3013 25.2869C17.5024 25.4908 15.7093 25.5895 13.9047 25.6542C14.778 24.8394 15.6575 24.0313 16.5315 23.2175C17.6794 23.2815 18.8375 23.2976 19.9778 23.1551C20.1374 23.1353 20.1511 22.8963 19.9795 22.902C18.9114 22.9375 17.8509 22.99 16.785 22.9826C17.1566 22.6368 17.5304 22.2936 17.9022 21.9479C17.9186 21.9891 17.949 22.0233 18.001 22.0172C19.0996 21.8875 20.1949 21.872 21.2985 21.8245C21.4512 21.8178 21.452 21.603 21.3 21.5929C20.2288 21.522 19.1507 21.6287 18.0894 21.7746C24.9148 15.4288 31.7645 9.10842 38.6672 2.84248C34.3712 9.92711 30.5156 17.2635 27.1315 24.8062C26.4598 26.3036 25.7913 27.8048 25.1781 29.3263C24.6305 30.6852 24.4806 32.5047 23.7927 33.7327C24.0714 35.0477 23.7151 35.3625 22.7236 34.6773C22.1307 34.5793 21.6334 34.3176 21.2315 33.8925C21.0123 33.751 20.796 33.5905 20.5815 33.4246C21.6287 33.4566 22.6775 33.4821 23.7221 33.4476C23.8649 33.4428 23.8666 33.2362 23.7236 33.2307C22.6007 33.1859 21.4721 33.2093 20.3463 33.2375C19.7727 32.773 19.2206 32.2641 18.6861 31.795C19.7082 31.8767 20.7353 31.9308 21.7601 31.8843C21.8736 31.8792 21.8765 31.7121 21.7613 31.7108C20.6776 31.6973 19.5971 31.6999 18.5147 31.6435C18.4886 31.621 18.4609 31.5953 18.4349 31.573C17.2054 30.5193 16.0112 29.4284 14.8099 28.3451C16.3146 28.4192 17.831 28.3582 19.3155 28.1096C19.4516 28.0867 19.4236 27.8581 19.284 27.8714C17.7052 28.0207 16.1422 28.1185 14.5568 28.12C14.0426 27.6582 13.5333 27.191 13.008 26.7408C12.8687 26.6213 12.679 26.802 12.8027 26.9391C14.8662 29.2274 17.1845 31.2994 19.5978 33.2544C19.5693 33.2552 19.5409 33.2556 19.5126 33.2564C19.4222 33.2587 19.4211 33.391 19.5117 33.3939C19.6016 33.3968 19.6924 33.3988 19.7823 33.4019C21.1017 34.4656 22.4468 35.497 23.7951 36.5078C23.95 36.624 24.1813 36.469 24.1776 36.2964C24.0382 29.9013 28.3796 23.0757 31.1838 17.4656C33.8877 12.056 36.8612 6.79521 40.0059 1.61993C40.0533 1.57684 40.1002 1.53336 40.1476 1.49027C40.1735 1.46689 40.1908 1.44113 40.2039 1.41455C40.2578 1.41256 40.3116 1.40589 40.3658 1.40429C40.7404 1.3936 40.7458 0.822031 40.369 0.83212ZM26.1623 13.5527C22.7802 16.6747 19.4226 19.8218 16.0658 22.9697C16.0592 22.9694 16.0526 22.9696 16.0461 22.9694C16.0385 22.9162 16.0173 22.8659 15.9592 22.833C15.2969 22.4592 14.6086 22.1156 13.9118 21.7824C13.9255 21.7823 13.9417 21.7807 13.955 21.7809C14.6498 21.795 15.3409 21.7894 16.0355 21.7662C16.1568 21.7621 16.1585 21.5866 16.0367 21.5817C15.4971 21.5599 14.959 21.5413 14.4187 21.5461C14.3021 21.5471 13.8615 21.5916 13.5316 21.6053C12.8801 21.3001 12.2204 21.0066 11.5622 20.7126C12.5291 20.7416 13.4973 20.7736 14.4632 20.7481C14.6085 20.7444 14.6101 20.5331 14.4647 20.5275C13.3666 20.4848 12.2647 20.5157 11.1653 20.5327C10.6036 20.2817 10.0502 20.0253 9.49693 19.7685C10.9813 19.692 12.4665 19.62 13.9463 19.4818C14.0973 19.4678 14.1051 19.241 13.9478 19.2466C12.3185 19.3066 10.6933 19.4461 9.06789 19.5721C8.99903 19.5395 8.92758 19.5091 8.85892 19.4764C13.0247 17.1896 38.7479 2.28442 38.7047 2.21917C38.809 2.37683 27.2785 12.5224 26.1623 13.5527Z" fill="#61AB7A"/>
<path d="M9.07745 34.351C6.11382 34.4719 3.80544 37.792 3.40736 40.5925C3.40024 40.5858 3.39251 40.5803 3.38539 40.5737C0.934859 38.2612 0.881287 33.7447 3.18612 31.3549C3.87971 32.152 4.84151 32.6946 6.01391 32.7226C7.9583 32.769 11.1565 30.0996 8.72846 28.4524C6.90717 27.2169 3.86252 28.4556 3.22726 30.4294C3.204 30.3948 3.17556 30.361 3.15449 30.3262C0.835654 26.4889 5.06386 22.6261 9.00108 23.672C9.15924 23.7141 9.22004 23.489 9.06952 23.4353C6.0928 22.375 2.8533 23.9119 2.10226 26.9914C1.7653 28.3728 2.11458 29.9477 2.97543 31.0977C-0.0246128 33.5388 0.451875 38.9988 3.34302 41.3536C3.3429 41.3711 3.33999 41.3895 3.34008 41.4068C3.33057 45.2872 6.45843 47.0609 9.98936 47.5999C10.3147 47.6496 10.4693 47.1792 10.1324 47.1055C7.30539 46.4874 4.63958 45.5479 4.05816 42.4129C4.02126 42.2135 3.99693 42.0094 3.98397 41.8023C4.78879 42.2739 5.73917 42.5262 6.81963 42.4615C9.29935 42.3133 12.072 40.4235 12.35 37.8767C12.5644 35.908 11.0878 34.111 9.07745 34.351ZM6.67143 28.7041C7.71944 28.6409 9.5498 28.7436 8.6164 30.8327C7.6729 32.9447 4.9606 32.2026 3.63982 30.9219C4.0886 29.5457 5.19311 28.7933 6.67143 28.7041ZM11.5915 38.3453C11.3393 39.3465 10.5476 40.1332 9.72989 40.7152C8.0196 41.9323 5.74519 42.2173 3.99172 41.0508C4.1695 38.4237 6.04718 35.5518 8.65742 34.7787C8.69672 34.825 8.75024 34.859 8.82548 34.8583C10.7179 34.841 12.0874 36.3761 11.5915 38.3453Z" fill="#61AB7A"/>
<path d="M9.36703 15.2291C8.40091 15.2496 7.43684 15.2914 6.47136 15.3357C6.33179 15.3422 6.3288 15.5531 6.46995 15.549C7.43593 15.5198 8.40053 15.488 9.36567 15.4349C9.50008 15.4276 9.5038 15.226 9.36703 15.2291Z" fill="#61AB7A"/>
<path d="M20.4569 29.7056C19.355 29.7401 18.2731 29.8666 17.1664 29.8352C17.0611 29.8322 17.0613 29.9879 17.1653 29.9942C18.2533 30.0595 19.4079 30.1093 20.4833 29.9046C20.5977 29.8826 20.5732 29.7019 20.4569 29.7056Z" fill="#61AB7A"/>
</svg>
