<svg width="19" height="19" viewBox="0 0 19 19" fill="none" xmlns="http://www.w3.org/2000/svg">
<path d="M9.20654 0.891113C4.24394 0.891113 0.206543 4.92851 0.206543 9.89111C0.206543 14.8537 4.24394 18.8911 9.20654 18.8911C14.1691 18.8911 18.2065 14.8537 18.2065 9.89111C18.2065 4.92851 14.1691 0.891113 9.20654 0.891113ZM9.20654 17.0911C5.23664 17.0911 2.00654 13.861 2.00654 9.89111C2.00654 5.92121 5.23664 2.69111 9.20654 2.69111C13.1764 2.69111 16.4065 5.92121 16.4065 9.89111C16.4065 13.861 13.1764 17.0911 9.20654 17.0911Z" fill="#626262"/>
<path d="M10.1065 5.39111H8.30652V10.2637L11.2702 13.2274L12.5428 11.9548L10.1065 9.51851V5.39111Z" fill="#626262"/>
</svg>
