<svg width="50" height="51" viewBox="0 0 50 51" fill="none" xmlns="http://www.w3.org/2000/svg">
<g clip-path="url(#clip0)">
<path d="M29.2913 25.5506C29.1163 25.7255 29.1163 26.0091 29.2913 26.1841C29.4662 26.359 29.7499 26.359 29.9248 26.1841L31.4936 24.6153C32.939 23.1698 32.939 20.8178 31.4936 19.3723C30.048 17.9268 27.6961 17.9268 26.2505 19.3723L25.0004 20.6225L23.7502 19.3723C22.3046 17.9268 19.9527 17.9268 18.5072 19.3723C17.0617 20.8178 17.0617 23.1698 18.5072 24.6153L24.4725 30.5806C24.6134 30.7216 24.801 30.7993 25.0004 30.7993C25.1998 30.7993 25.3874 30.7216 25.5283 30.5806L28.4467 27.6623C28.6216 27.4873 28.6216 27.2037 28.4467 27.0288C28.2717 26.8538 27.9881 26.8538 27.8131 27.0288L25.0004 29.8415L19.1407 23.9819C18.0446 22.8857 18.0446 21.1021 19.1407 20.0059C20.237 18.9096 22.0206 18.9097 23.1167 20.0059L24.6836 21.5728C24.7676 21.6569 24.8815 21.7041 25.0004 21.7041C25.1192 21.7041 25.2331 21.6569 25.3172 21.5728L26.8841 20.0059C27.9803 18.9096 29.764 18.9097 30.86 20.0059C31.9562 21.1021 31.9562 22.8857 30.8601 23.9819L29.2913 25.5506Z" fill="#00621E"/>
<path d="M31.3618 17.3032C31.4764 17.3032 31.5911 17.2595 31.6786 17.172L33.0038 15.8467C33.1787 15.6718 33.1787 15.3882 33.0038 15.2133C32.8288 15.0383 32.5452 15.0383 32.3703 15.2133L31.045 16.5385C30.8701 16.7134 30.8701 16.9971 31.045 17.172C31.1325 17.2595 31.2471 17.3032 31.3618 17.3032Z" fill="#00621E"/>
<path d="M33.9968 23.6646H35.871C36.1184 23.6646 36.3189 23.464 36.3189 23.2166C36.3189 22.9692 36.1184 22.7686 35.871 22.7686H33.9968C33.7493 22.7686 33.5488 22.9692 33.5488 23.2166C33.5488 23.464 33.7494 23.6646 33.9968 23.6646Z" fill="#00621E"/>
<path d="M14.1298 23.6646H16.004C16.2515 23.6646 16.452 23.464 16.452 23.2166C16.452 22.9692 16.2515 22.7686 16.004 22.7686H14.1298C13.8824 22.7686 13.6819 22.9692 13.6819 23.2166C13.6819 23.464 13.8825 23.6646 14.1298 23.6646Z" fill="#00621E"/>
<path d="M18.3224 17.172C18.4099 17.2594 18.5246 17.3032 18.6392 17.3032C18.7538 17.3032 18.8685 17.2595 18.956 17.172C19.1309 16.997 19.1309 16.7134 18.956 16.5385L17.6307 15.2133C17.4557 15.0383 17.1721 15.0383 16.9972 15.2133C16.8222 15.3882 16.8222 15.6719 16.9972 15.8467L18.3224 17.172Z" fill="#00621E"/>
<path d="M21.4997 15.8569C21.5886 16.1089 21.8279 16.2783 22.0952 16.2783H24.5823C24.8297 16.2783 25.0302 16.0778 25.0302 15.8304C25.0302 15.583 24.8297 15.3824 24.5823 15.3824H22.2823L20.9861 11.7072L23.0138 13.1635C23.1644 13.2716 23.3538 13.3081 23.534 13.2635C23.7139 13.2189 23.8645 13.0982 23.9472 12.9324L25.0003 10.8215L26.0534 12.9324C26.1361 13.0982 26.2867 13.2189 26.4666 13.2635C26.6468 13.3081 26.8362 13.2716 26.9869 13.1635L29.0146 11.7072L27.7183 15.3823H26.6727C26.4252 15.3823 26.2247 15.5829 26.2247 15.8303C26.2247 16.0777 26.4252 16.2783 26.6727 16.2783H27.9055C28.1728 16.2783 28.4121 16.1089 28.5011 15.8568L30.1394 11.2117C30.2316 10.9502 30.1445 10.6628 29.9227 10.4964C29.701 10.3301 29.4006 10.3271 29.1755 10.4887L26.7165 12.2546L25.5654 9.9473C25.4579 9.73163 25.2413 9.59766 25.0003 9.59766C24.7593 9.59766 24.5428 9.73163 24.4352 9.9473L23.2842 12.2547L20.8252 10.4887C20.6 10.327 20.2997 10.3302 20.078 10.4964C19.8562 10.6628 19.7691 10.9502 19.8613 11.2117L21.4997 15.8569Z" fill="#00621E"/>
<path d="M36.9795 32.579C36.9614 32.5609 36.9429 32.5436 36.9243 32.5265C36.9264 32.0565 36.7435 31.6017 36.4039 31.2622C36.0677 30.926 35.6207 30.7408 35.1452 30.7408C34.779 30.7408 34.43 30.851 34.1352 31.0551C33.851 30.872 33.5203 30.7735 33.1742 30.7735C33.1548 30.7735 33.1356 30.7743 33.1163 30.7749C33.0957 30.706 33.0582 30.6409 33.0037 30.5864L31.6785 29.2612C31.5035 29.0863 31.2199 29.0863 31.045 29.2612C30.87 29.4362 30.87 29.7198 31.045 29.8947L32.2084 31.0581C32.1039 31.1259 32.0056 31.2048 31.9154 31.2949L28.1355 35.075C28.0271 35.1834 27.8918 35.2608 27.7425 35.3014H23.7481C23.768 35.2646 23.7931 35.2302 23.8233 35.1995C23.9081 35.1135 24.0214 35.0661 24.1422 35.0661H26.6793C27.648 35.0661 28.4617 34.2947 28.4933 33.3466C28.5096 32.8594 28.3323 32.3984 27.994 32.0486C27.6555 31.6986 27.2011 31.5059 26.7142 31.5059H22.9101C22.6626 31.5059 22.4621 31.7065 22.4621 31.9539C22.4621 32.2012 22.6626 32.4018 22.9101 32.4018H26.7142C26.956 32.4018 27.1817 32.4976 27.3499 32.6714C27.5179 32.8452 27.606 33.0743 27.5978 33.3167C27.5821 33.7873 27.1701 34.1702 26.6792 34.1702H24.1422C23.7796 34.1702 23.4398 34.3124 23.1853 34.5706C22.9308 34.8288 22.7934 35.1705 22.7985 35.5331L22.8077 36.1893C22.818 36.9198 23.4209 37.5141 24.1514 37.5141H30.0567C30.5322 37.5141 30.9792 37.3289 31.3154 36.9927L35.0954 33.2127C35.4402 32.8679 36.0012 32.868 36.3459 33.2127C36.6907 33.5574 36.6907 34.1184 36.3459 34.4631L32.1747 38.6343C31.7568 39.0521 31.201 39.2823 30.6099 39.2823H23.1253C22.0734 39.2823 21.0448 39.0844 20.0679 38.6939L18.5864 38.1018V32.4017H20.8195C21.067 32.4017 21.2675 32.2011 21.2675 31.9537C21.2675 31.7063 21.067 31.5058 20.8195 31.5058H18.5864V30.772C18.5864 30.6257 18.5483 30.4883 18.4818 30.3687L18.956 29.8946C19.1309 29.7196 19.1309 29.436 18.956 29.2611C18.781 29.0861 18.4974 29.0861 18.3224 29.2611L17.6456 29.9379H13.3341C12.8742 29.9379 12.5 30.3121 12.5 30.772V39.3208C12.5 39.7807 12.8742 40.1549 13.3341 40.1549H17.7523C18.2122 40.1549 18.5864 39.7807 18.5864 39.3208V39.0666L19.7354 39.5259C20.8185 39.9588 21.959 40.1782 23.1253 40.1782H30.61C31.4404 40.1782 32.2211 39.8548 32.8083 39.2676L36.9796 35.0964C37.6735 34.4024 37.6735 33.2731 36.9795 32.579ZM32.549 31.9284C32.7893 31.6879 33.1347 31.6153 33.4386 31.71L30.1064 35.0422C29.9394 35.2092 29.7173 35.3012 29.4811 35.3012H29.176L32.549 31.9284ZM34.462 32.579L30.6819 36.3591C30.5149 36.5261 30.2929 36.618 30.0567 36.618H24.1515C23.915 36.618 23.7191 36.431 23.7049 36.1971H29.4812C29.9567 36.1971 30.4037 36.012 30.74 35.6758L34.5201 31.8957C34.687 31.7287 34.9091 31.6368 35.1453 31.6368C35.3814 31.6368 35.6035 31.7287 35.7704 31.8957H35.7705C35.8229 31.9482 35.8679 32.0061 35.9048 32.0682C35.3897 32.0151 34.8558 32.1852 34.462 32.579ZM17.6905 39.259H13.3959V30.8338H17.6904V39.259H17.6905Z" fill="#00621E"/>
<circle cx="25" cy="25.2227" r="24.5" stroke="#00621E"/>
</g>
<defs>
<clipPath id="clip0">
<rect width="50" height="50" fill="white" transform="translate(0 0.222656)"/>
</clipPath>
</defs>
</svg>
