<svg width="42" height="48" viewBox="0 0 42 48" fill="none" xmlns="http://www.w3.org/2000/svg">
<path d="M40.869 0.477139C34.9497 0.634769 28.9252 2.86394 23.0836 3.83277C16.0067 5.0065 8.89608 5.50938 1.74775 6.02157C1.5299 6.03713 1.521 6.35867 1.74553 6.35794C7.95033 6.33557 14.1561 5.68303 20.289 4.79094C23.4718 4.32801 26.6414 3.78329 29.792 3.14195C33.0354 2.48174 36.3012 1.42574 39.6141 1.12725C29.4517 7.02119 19.118 12.7284 9.20852 19.0193C9.21507 18.9919 9.21427 18.9623 9.19834 18.9334C8.88047 18.3608 8.54679 17.7996 8.20511 17.2441C9.03147 17.2561 9.87291 17.2153 10.6722 17.0146C10.8124 16.9795 10.7503 16.7912 10.6154 16.8084C9.76819 16.9175 8.93858 17.0353 8.08574 17.0554C7.23235 15.6816 6.32256 14.3486 5.41877 13.011C6.7316 13.0517 8.04934 13.0433 9.35407 12.8939C9.49411 12.8778 9.50406 12.6666 9.35553 12.6732C7.98828 12.7349 6.6282 12.7949 5.26029 12.7756C4.81777 12.1195 4.38164 11.4588 3.95152 10.7936C5.58444 10.7112 7.21712 10.6345 8.84661 10.4982C9.00055 10.4854 9.00746 10.2537 8.84818 10.2595C7.16425 10.3213 5.48467 10.4464 3.80415 10.5637C3.3189 9.80715 2.85585 9.03439 2.4086 8.25025C4.47258 8.20833 6.5362 8.16038 8.59803 8.05249C8.77006 8.04345 8.77514 7.78706 8.59977 7.78849C6.48301 7.80479 4.36863 7.88394 2.25381 7.96835C2.03584 7.57845 1.81128 7.19299 1.60811 6.7923C1.44915 6.47885 1.00607 6.75058 1.13661 7.05763C1.28733 7.41228 1.45638 7.76568 1.62144 8.11925C1.61755 8.16533 1.6364 8.20533 1.67363 8.23339C3.50468 12.1175 6.16135 15.9134 8.99411 19.0855C9.00853 19.1017 9.02583 19.1047 9.04292 19.1091C9.0291 19.1224 9.01292 19.1311 9.00365 19.1476C8.98347 19.1601 8.96328 19.1726 8.94309 19.1855C8.86554 19.2348 8.93284 19.3514 9.01514 19.3078C9.01574 19.3074 9.01673 19.3068 9.01733 19.3066C9.03152 19.3281 9.03714 19.3521 9.06569 19.3682C9.07204 19.3719 9.07878 19.3755 9.08513 19.3792C9.0932 19.4221 9.12102 19.4598 9.18016 19.4567C9.1929 19.456 9.20564 19.4553 9.21819 19.4546C11.4447 20.7166 13.8453 22.0842 16.2927 22.8571C16.2982 22.8589 16.3019 22.8547 16.3072 22.8561C15.4268 23.6821 14.5398 24.5012 13.6587 25.3263C13.644 25.3268 13.6295 25.3274 13.6147 25.3279C13.5399 25.3302 13.5156 25.3931 13.5305 25.4459C13.4156 25.5537 13.2994 25.6602 13.1847 25.7684C12.9563 25.9839 13.3012 26.3248 13.5305 26.1107C13.7368 25.9182 13.9447 25.7275 14.151 25.5348C16.0517 25.6205 17.959 25.4888 19.8364 25.1987C19.9892 25.1751 19.9569 24.9144 19.8013 24.9319C18.0024 25.1358 16.2093 25.2345 14.4047 25.2992C15.278 24.4845 16.1575 23.6763 17.0315 22.8626C18.1794 22.9266 19.3375 22.9426 20.4778 22.8001C20.6374 22.7803 20.6511 22.5413 20.4795 22.547C19.4114 22.5825 18.3509 22.635 17.285 22.6276C17.6566 22.2818 18.0304 21.9387 18.4022 21.5929C18.4186 21.6341 18.449 21.6683 18.501 21.6622C19.5996 21.5325 20.6949 21.517 21.7985 21.4695C21.9512 21.4628 21.952 21.2481 21.8 21.238C20.7288 21.167 19.6507 21.2737 18.5894 21.4196C25.4148 15.0738 32.2645 8.75344 39.1672 2.4875C34.8712 9.57213 31.0156 16.9085 27.6315 24.4512C26.9598 25.9486 26.2913 27.4499 25.6781 28.9713C25.1305 30.3302 24.9806 32.1497 24.2927 33.3777C24.5714 34.6927 24.2151 35.0076 23.2236 34.3223C22.6307 34.2243 22.1334 33.9626 21.7315 33.5375C21.5123 33.396 21.296 33.2355 21.0815 33.0696C22.1287 33.1017 23.1775 33.1271 24.2221 33.0926C24.3649 33.0879 24.3666 32.8812 24.2236 32.8757C23.1007 32.8309 21.9721 32.8544 20.8463 32.8825C20.2727 32.418 19.7206 31.9091 19.1861 31.44C20.2082 31.5217 21.2353 31.5758 22.2601 31.5293C22.3736 31.5242 22.3765 31.3571 22.2613 31.3558C21.1776 31.3424 20.0971 31.3449 19.0147 31.2885C18.9886 31.266 18.9609 31.2403 18.9349 31.218C17.7054 30.1643 16.5112 29.0734 15.3099 27.9902C16.8146 28.0642 18.331 28.0033 19.8155 27.7546C19.9516 27.7317 19.9236 27.5031 19.784 27.5165C18.2052 27.6657 16.6422 27.7635 15.0568 27.765C14.5426 27.3032 14.0333 26.836 13.508 26.3858C13.3687 26.2663 13.179 26.447 13.3027 26.5842C15.3662 28.8724 17.6845 30.9444 20.0978 32.8994C20.0693 32.9002 20.0409 32.9006 20.0126 32.9014C19.9222 32.9038 19.9211 33.0361 20.0117 33.039C20.1016 33.0419 20.1924 33.0438 20.2823 33.0469C21.6017 34.1106 22.9468 35.142 24.2951 36.1528C24.45 36.269 24.6813 36.114 24.6776 35.9414C24.5382 29.5463 28.8796 22.7207 31.6838 17.1106C34.3877 11.701 37.3612 6.44023 40.5059 1.26495C40.5533 1.22186 40.6002 1.17838 40.6476 1.13529C40.6735 1.11191 40.6908 1.08615 40.7039 1.05957C40.7578 1.05758 40.8116 1.05091 40.8658 1.04931C41.2404 1.03862 41.2458 0.467051 40.869 0.477139ZM26.6623 13.1977C23.2802 16.3198 19.9226 19.4668 16.5658 22.6147C16.5592 22.6145 16.5526 22.6146 16.5461 22.6144C16.5385 22.5612 16.5173 22.5109 16.4592 22.478C15.7969 22.1042 15.1086 21.7606 14.4118 21.4274C14.4255 21.4273 14.4417 21.4257 14.455 21.426C15.1498 21.44 15.8409 21.4345 16.5355 21.4112C16.6568 21.4071 16.6585 21.2316 16.5367 21.2268C15.9971 21.2049 15.459 21.1863 14.9187 21.1911C14.8021 21.1921 14.3615 21.2367 14.0316 21.2503C13.3801 20.9451 12.7204 20.6516 12.0622 20.3576C13.0291 20.3867 13.9973 20.4186 14.9632 20.3931C15.1085 20.3894 15.1101 20.1781 14.9647 20.1725C13.8666 20.1298 12.7647 20.1607 11.6653 20.1777C11.1036 19.9267 10.5502 19.6703 9.99693 19.4135C11.4813 19.337 12.9665 19.265 14.4463 19.1268C14.5973 19.1128 14.6051 18.886 14.4478 18.8916C12.8185 18.9517 11.1933 19.0911 9.56789 19.2171C9.49903 19.1845 9.42758 19.1541 9.35892 19.1214C13.5247 16.8347 39.2479 1.92944 39.2047 1.86419C39.309 2.02185 27.7785 12.1674 26.6623 13.1977Z" fill="#FE8222"/>
<path d="M9.57745 33.996C6.61382 34.1169 4.30544 37.4371 3.90736 40.2376C3.90024 40.2309 3.89251 40.2254 3.88539 40.2187C1.43486 37.9063 1.38129 33.3898 3.68612 30.9999C4.37971 31.7971 5.34151 32.3397 6.51391 32.3677C8.4583 32.4141 11.6565 29.7447 9.22846 28.0975C7.40717 26.862 4.36252 28.1007 3.72726 30.0745C3.704 30.0399 3.67556 30.0061 3.65449 29.9713C1.33565 26.134 5.56386 22.2712 9.50108 23.3171C9.65924 23.3591 9.72004 23.134 9.56952 23.0804C6.5928 22.0201 3.3533 23.557 2.60226 26.6365C2.2653 28.0179 2.61458 29.5928 3.47543 30.7428C0.475387 33.1839 0.951875 38.6439 3.84302 40.9986C3.8429 41.0161 3.83999 41.0346 3.84008 41.0519C3.83057 44.9322 6.95843 46.7059 10.4894 47.245C10.8147 47.2947 10.9693 46.8243 10.6324 46.7506C7.80539 46.1325 5.13958 45.193 4.55816 42.058C4.52126 41.8585 4.49693 41.6545 4.48397 41.4474C5.28879 41.919 6.23917 42.1713 7.31963 42.1066C9.79935 41.9584 12.572 40.0685 12.85 37.5218C13.0644 35.5531 11.5878 33.7561 9.57745 33.996ZM7.17143 28.3492C8.21944 28.2859 10.0498 28.3887 9.1164 30.4778C8.1729 32.5898 5.4606 31.8476 4.13982 30.567C4.5886 29.1908 5.69311 28.4384 7.17143 28.3492ZM12.0915 37.9904C11.8393 38.9916 11.0476 39.7782 10.2299 40.3603C8.5196 41.5774 6.24519 41.8623 4.49172 40.6959C4.6695 38.0688 6.54718 35.1969 9.15742 34.4238C9.19672 34.4701 9.25024 34.5041 9.32548 34.5034C11.2179 34.4861 12.5874 36.0212 12.0915 37.9904Z" fill="#FE8222"/>
<path d="M9.86703 14.8741C8.90091 14.8947 7.93684 14.9364 6.97136 14.9807C6.83179 14.9873 6.8288 15.1982 6.96995 15.194C7.93593 15.1649 8.90053 15.133 9.86567 15.08C10.0001 15.0726 10.0038 14.8711 9.86703 14.8741Z" fill="#FE8222"/>
<path d="M20.9569 29.3507C19.855 29.3851 18.7731 29.5117 17.6664 29.4802C17.5611 29.4772 17.5613 29.6329 17.6653 29.6392C18.7533 29.7045 19.9079 29.7543 20.9833 29.5496C21.0977 29.5276 21.0732 29.3469 20.9569 29.3507Z" fill="#FE8222"/>
</svg>
