<svg width="25" height="19" viewBox="0 0 25 19" fill="none" xmlns="http://www.w3.org/2000/svg">
<path d="M5.95484 7.3654C5.68803 7.3654 5.43199 7.40607 5.17715 7.44316C5.25971 7.16559 5.34465 6.88323 5.48105 6.62959C5.61744 6.26108 5.83041 5.94163 6.04218 5.61979C6.21925 5.27163 6.53152 5.03593 6.76124 4.73802C7.00172 4.44848 7.32955 4.25585 7.58917 4.01537C7.84401 3.76411 8.17782 3.63849 8.44343 3.46142C8.721 3.30229 8.96268 3.12641 9.22111 3.04266L9.866 2.77705L10.4331 2.54135L9.85283 0.222656L9.13856 0.394943C8.91004 0.452372 8.63127 0.519373 8.31421 0.599534C7.98998 0.659356 7.64421 0.823268 7.25896 0.972823C6.87849 1.14272 6.4382 1.25758 6.02902 1.53036C5.61744 1.79119 5.14245 2.00894 4.7237 2.3583C4.31811 2.71843 3.82876 3.0307 3.46744 3.48893C3.07262 3.91726 2.68258 4.36712 2.37988 4.8792C2.02932 5.36734 1.79123 5.90335 1.53998 6.43337C1.31265 6.96339 1.1296 7.50538 0.980044 8.03181C0.696488 9.08707 0.569665 10.0897 0.520611 10.9475C0.479932 11.8066 0.503861 12.5209 0.554112 13.0377C0.572058 13.2818 0.605559 13.5187 0.629487 13.6826L0.659398 13.8836L0.690506 13.8764C0.903306 14.8705 1.39318 15.7839 2.10346 16.5112C2.81373 17.2384 3.71539 17.7498 4.70413 17.986C5.69286 18.2222 6.72827 18.1737 7.69058 17.846C8.65288 17.5183 9.50276 16.9249 10.1419 16.1344C10.781 15.3439 11.1833 14.3886 11.3022 13.3791C11.4211 12.3695 11.2518 11.3469 10.8137 10.4295C10.3757 9.51215 9.68693 8.73755 8.82707 8.1953C7.96721 7.65306 6.9714 7.36533 5.95484 7.3654ZM19.1157 7.3654C18.8489 7.3654 18.5928 7.40607 18.338 7.44316C18.4205 7.16559 18.5055 6.88323 18.6419 6.62959C18.7783 6.26108 18.9912 5.94163 19.203 5.61979C19.3801 5.27163 19.6923 5.03593 19.9221 4.73802C20.1625 4.44848 20.4904 4.25585 20.75 4.01537C21.0048 3.76411 21.3386 3.63849 21.6043 3.46142C21.8818 3.30229 22.1235 3.12641 22.3819 3.04266L23.0268 2.77705L23.5939 2.54135L23.0137 0.222656L22.2994 0.394943C22.0709 0.452372 21.7921 0.519373 21.475 0.599534C21.1508 0.659356 20.805 0.823268 20.4198 0.972823C20.0405 1.14391 19.599 1.25758 19.1898 1.53156C18.7783 1.79238 18.3033 2.01014 17.8845 2.3595C17.4789 2.71962 16.9896 3.03189 16.6283 3.48893C16.2334 3.91726 15.8434 4.36712 15.5407 4.8792C15.1901 5.36734 14.9521 5.90335 14.7008 6.43337C14.4735 6.96339 14.2904 7.50538 14.1409 8.03181C13.8573 9.08707 13.7305 10.0897 13.6814 10.9475C13.6408 11.8066 13.6647 12.5209 13.7149 13.0377C13.7329 13.2818 13.7664 13.5187 13.7903 13.6826L13.8202 13.8836L13.8513 13.8764C14.0641 14.8705 14.554 15.7839 15.2643 16.5112C15.9746 17.2384 16.8762 17.7498 17.865 17.986C18.8537 18.2222 19.8891 18.1737 20.8514 17.846C21.8137 17.5183 22.6636 16.9249 23.3027 16.1344C23.9419 15.3439 24.3442 14.3886 24.463 13.3791C24.5819 12.3695 24.4126 11.3469 23.9746 10.4295C23.5365 9.51215 22.8478 8.73755 21.9879 8.1953C21.128 7.65306 20.1322 7.36533 19.1157 7.3654Z" fill="#00621E"/>
</svg>
