<svg width="16" height="16" viewBox="0 0 16 16" fill="none" xmlns="http://www.w3.org/2000/svg">
<path d="M6.73507 8.99749C7.65452 9.93022 8.76704 10.6504 9.99447 11.1073L11.655 9.78591C11.7042 9.75201 11.7626 9.73386 11.8224 9.73386C11.8822 9.73386 11.9405 9.75201 11.9898 9.78591L15.073 11.7724C15.19 11.8428 15.2891 11.9394 15.3624 12.0546C15.4357 12.1699 15.4812 12.3006 15.4953 12.4364C15.5094 12.5723 15.4917 12.7096 15.4436 12.8374C15.3956 12.9652 15.3184 13.0801 15.2183 13.1731L13.7736 14.6001C13.5667 14.8046 13.3124 14.9546 13.0335 15.0368C12.7545 15.1191 12.4595 15.131 12.1748 15.0714C9.33476 14.4849 6.71707 13.1112 4.62085 11.1073C2.57116 9.08349 1.15279 6.50838 0.537785 3.69434C0.477031 3.41405 0.489711 3.12282 0.574597 2.84887C0.659483 2.57491 0.813697 2.32754 1.02229 2.13071L2.51986 0.685995C2.61253 0.590762 2.72555 0.517728 2.85044 0.472362C2.97534 0.426996 3.10888 0.410473 3.24107 0.424031C3.37326 0.437589 3.50067 0.480876 3.61376 0.550651C3.72685 0.620426 3.82268 0.71488 3.8941 0.826943L5.94664 3.87053C5.98204 3.91832 6.00115 3.97622 6.00115 4.0357C6.00115 4.09518 5.98204 4.15308 5.94664 4.20087L4.59443 5.82617C5.06377 7.02904 5.795 8.11235 6.73507 8.99749Z" fill="#ffffff"/>
</svg>
