<svg width="21" height="22" viewBox="0 0 21 22" fill="none" xmlns="http://www.w3.org/2000/svg">
<path d="M19.8126 0.919434H0.825525C0.368907 0.919434 0 1.28834 0 1.74496V20.732C0 21.1887 0.368907 21.5576 0.825525 21.5576H19.8126C20.2692 21.5576 20.6381 21.1887 20.6381 20.732V1.74496C20.6381 1.28834 20.2692 0.919434 19.8126 0.919434ZM17.4289 6.94319H15.7804C14.488 6.94319 14.2377 7.55717 14.2377 8.46009V10.4491H17.3231L16.9207 13.5629H14.2377V21.5576H11.0208V13.5654H8.33007V10.4491H11.0208V8.1531C11.0208 5.4882 12.6486 4.03579 15.0271 4.03579C16.1674 4.03579 17.1451 4.12092 17.4315 4.15962V6.94319H17.4289Z" fill="#ffffff"/>
</svg>
