<svg width="18" height="18" viewBox="0 0 18 18" fill="none" xmlns="http://www.w3.org/2000/svg">
<path d="M9.00005 1.80005C5.0236 1.80005 1.80005 5.0236 1.80005 9.00005C1.80005 12.9765 5.0236 16.2 9.00005 16.2C12.9765 16.2 16.2 12.9765 16.2 9.00005C16.2 5.0236 12.9765 1.80005 9.00005 1.80005ZM10.5935 5.92208C11.4491 5.90872 12.2228 6.37384 12.5896 7.16677C12.9288 8.21504 12.6449 9.28147 12.0465 10.0852C11.6516 10.6302 11.1796 11.1002 10.697 11.5108C10.253 11.9241 9.25931 12.7419 8.99594 12.7646C8.76318 12.7201 8.50187 12.4565 8.31707 12.321C7.27866 11.5317 6.16107 10.5721 5.59428 9.52254C5.11907 8.5149 5.1182 7.26817 5.8578 6.49565C6.8168 5.63107 8.26248 5.8003 8.99594 6.70355C9.19292 6.44801 9.4352 6.24676 9.72269 6.10034C10.014 5.98407 10.3083 5.92655 10.5935 5.92208Z" fill="#EE3737"/>
</svg>
