<svg width="18" height="14" viewBox="0 0 18 14" fill="none" xmlns="http://www.w3.org/2000/svg">
<path d="M7.87476 13.75C7.87476 13.75 6.74976 13.75 6.74976 12.625C6.74976 11.5 7.87476 8.125 12.3748 8.125C16.8748 8.125 17.9998 11.5 17.9998 12.625C17.9998 13.75 16.8748 13.75 16.8748 13.75H7.87476ZM12.3748 7C13.2699 7 14.1283 6.64442 14.7612 6.01149C15.3942 5.37855 15.7498 4.52011 15.7498 3.625C15.7498 2.72989 15.3942 1.87145 14.7612 1.23851C14.1283 0.605579 13.2699 0.25 12.3748 0.25C11.4797 0.25 10.6212 0.605579 9.98827 1.23851C9.35533 1.87145 8.99976 2.72989 8.99976 3.625C8.99976 4.52011 9.35533 5.37855 9.98827 6.01149C10.6212 6.64442 11.4797 7 12.3748 7Z" fill="#FE8222"/>
<path fill-rule="evenodd" clip-rule="evenodd" d="M5.868 13.75C5.70122 13.3988 5.61805 13.0137 5.625 12.625C5.625 11.1006 6.39 9.53124 7.803 8.43999C7.09773 8.22268 6.36294 8.11641 5.625 8.12499C1.125 8.12499 0 11.5 0 12.625C0 13.75 1.125 13.75 1.125 13.75H5.868Z" fill="#FE8222"/>
<path d="M5.0625 7C5.80842 7 6.52379 6.70368 7.05124 6.17624C7.57868 5.64879 7.875 4.93342 7.875 4.1875C7.875 3.44158 7.57868 2.72621 7.05124 2.19876C6.52379 1.67132 5.80842 1.375 5.0625 1.375C4.31658 1.375 3.60121 1.67132 3.07376 2.19876C2.54632 2.72621 2.25 3.44158 2.25 4.1875C2.25 4.93342 2.54632 5.64879 3.07376 6.17624C3.60121 6.70368 4.31658 7 5.0625 7Z" fill="#FE8222"/>
</svg>
