<svg width="25" height="19" viewBox="0 0 25 19" fill="none" xmlns="http://www.w3.org/2000/svg">
<path d="M5.95484 7.80924C5.68803 7.80924 5.43199 7.84992 5.17715 7.88701C5.25971 7.60944 5.34465 7.32708 5.48105 7.07343C5.61744 6.70493 5.83041 6.38548 6.04218 6.06364C6.21925 5.71548 6.53152 5.47978 6.76124 5.18186C7.00172 4.89233 7.32955 4.6997 7.58917 4.45921C7.84401 4.20796 8.17782 4.08234 8.44343 3.90526C8.721 3.74614 8.96268 3.57026 9.22111 3.48651L9.866 3.2209L10.4331 2.9852L9.85283 0.666504L9.13856 0.838791C8.91004 0.89622 8.63127 0.96322 8.31421 1.04338C7.98998 1.1032 7.64421 1.26712 7.25896 1.41667C6.87849 1.58657 6.4382 1.70142 6.02902 1.97421C5.61744 2.23504 5.14245 2.45279 4.7237 2.80215C4.31811 3.16228 3.82876 3.47455 3.46744 3.93278C3.07262 4.36111 2.68258 4.81097 2.37988 5.32304C2.02932 5.81119 1.79123 6.34719 1.53998 6.87722C1.31265 7.40724 1.1296 7.94923 0.980044 8.47566C0.696488 9.53092 0.569665 10.5335 0.520611 11.3914C0.479932 12.2504 0.503861 12.9647 0.554112 13.4816C0.572058 13.7256 0.605559 13.9625 0.629487 14.1264L0.659398 14.3274L0.690506 14.3203C0.903306 15.3143 1.39318 16.2278 2.10346 16.955C2.81373 17.6823 3.71539 18.1936 4.70413 18.4298C5.69286 18.666 6.72827 18.6175 7.69058 18.2898C8.65288 17.9622 9.50276 17.3688 10.1419 16.5783C10.781 15.7878 11.1833 14.8325 11.3022 13.8229C11.4211 12.8133 11.2518 11.7907 10.8137 10.8733C10.3757 9.956 9.68693 9.1814 8.82707 8.63915C7.96721 8.09691 6.9714 7.80918 5.95484 7.80924ZM19.1157 7.80924C18.8489 7.80924 18.5928 7.84992 18.338 7.88701C18.4205 7.60944 18.5055 7.32708 18.6419 7.07343C18.7783 6.70493 18.9912 6.38548 19.203 6.06364C19.3801 5.71548 19.6923 5.47978 19.9221 5.18186C20.1625 4.89233 20.4904 4.6997 20.75 4.45921C21.0048 4.20796 21.3386 4.08234 21.6043 3.90526C21.8818 3.74614 22.1235 3.57026 22.3819 3.48651L23.0268 3.2209L23.5939 2.9852L23.0137 0.666504L22.2994 0.838791C22.0709 0.89622 21.7921 0.96322 21.475 1.04338C21.1508 1.1032 20.805 1.26712 20.4198 1.41667C20.0405 1.58776 19.599 1.70142 19.1898 1.97541C18.7783 2.23623 18.3033 2.45398 17.8845 2.80334C17.4789 3.16347 16.9896 3.47574 16.6283 3.93278C16.2334 4.36111 15.8434 4.81097 15.5407 5.32304C15.1901 5.81119 14.9521 6.34719 14.7008 6.87722C14.4735 7.40724 14.2904 7.94923 14.1409 8.47566C13.8573 9.53092 13.7305 10.5335 13.6814 11.3914C13.6408 12.2504 13.6647 12.9647 13.7149 13.4816C13.7329 13.7256 13.7664 13.9625 13.7903 14.1264L13.8202 14.3274L13.8513 14.3203C14.0641 15.3143 14.554 16.2278 15.2643 16.955C15.9746 17.6823 16.8762 18.1936 17.865 18.4298C18.8537 18.666 19.8891 18.6175 20.8514 18.2898C21.8137 17.9622 22.6636 17.3688 23.3027 16.5783C23.9419 15.7878 24.3442 14.8325 24.463 13.8229C24.5819 12.8133 24.4126 11.7907 23.9746 10.8733C23.5365 9.956 22.8478 9.1814 21.9879 8.63915C21.128 8.09691 20.1322 7.80918 19.1157 7.80924Z" fill="#FE8222"/>
</svg>
