<svg width="18" height="18" viewBox="0 0 18 18" fill="none" xmlns="http://www.w3.org/2000/svg">
<path d="M14.2433 1.5H6.75758C5.92433 1.5 5.25008 2.17425 5.25008 3.0075V7.23525L1.72358 10.7167C1.61792 10.8213 1.54568 10.9548 1.51604 11.1004C1.48641 11.246 1.5007 11.3972 1.55711 11.5347C1.61352 11.6722 1.7095 11.7898 1.83288 11.8727C1.95626 11.9555 2.10147 11.9998 2.25008 12V15.75C2.25008 15.9489 2.3291 16.1397 2.46975 16.2803C2.61041 16.421 2.80117 16.5 3.00008 16.5H15.0001C15.199 16.5 15.3898 16.421 15.5304 16.2803C15.6711 16.1397 15.7501 15.9489 15.7501 15.75V3.00675C15.7501 2.17425 15.0766 1.5 14.2433 1.5ZM8.19158 11.3333V15H3.75008V10.824L5.99033 8.61225L8.19158 10.8645V11.3333ZM9.75008 6.75H8.25008V5.25H9.75008V6.75ZM12.7501 12.75H11.2501V11.25H12.7501V12.75ZM12.7501 9.75H11.2501V8.25H12.7501V9.75ZM12.7501 6.75H11.2501V5.25H12.7501V6.75Z" fill="#FFCB39"/>
<path d="M5.25 11.25H6.75V12.75H5.25V11.25Z" fill="#FFCB39"/>
</svg>
