<svg width="50" height="51" viewBox="0 0 50 51" fill="none" xmlns="http://www.w3.org/2000/svg">
<g clip-path="url(#clip0)">
<path d="M32.2052 26.4135C32.4573 26.4135 32.6786 26.251 32.7559 26.0094C33.0758 25.0099 33.377 24.7059 34.3675 24.3832C34.607 24.3051 34.768 24.0818 34.768 23.8274C34.768 23.5731 34.607 23.3498 34.3674 23.2717C33.377 22.9489 33.0758 22.645 32.7559 21.6455C32.6786 21.4038 32.4572 21.2413 32.2052 21.2413C32.2052 21.2413 32.2052 21.2413 32.2051 21.2413C31.9531 21.2413 31.7318 21.4038 31.6544 21.6455V21.6455C31.3346 22.645 31.0333 22.9489 30.0428 23.2717C29.8032 23.3498 29.6423 23.5731 29.6423 23.8275C29.6423 24.0819 29.8033 24.3052 30.0429 24.3833C31.0333 24.7061 31.3346 25.0099 31.6544 26.0094C31.7317 26.2512 31.9531 26.4135 32.2052 26.4135ZM30.992 23.8274C31.5658 23.5458 31.926 23.1822 32.2051 22.6032C32.4843 23.1822 32.8445 23.5457 33.4183 23.8274C32.8446 24.1091 32.4843 24.4727 32.2051 25.0516C31.926 24.4726 31.5658 24.1091 30.992 23.8274Z" fill="#00621E"/>
<path d="M37.0775 28.602C35.8392 28.1983 35.4626 27.8184 35.0627 26.5689C34.9812 26.3139 34.7477 26.1425 34.4818 26.1425C34.2159 26.1425 33.9824 26.3139 33.9008 26.5689V26.5688C33.501 27.8184 33.1243 28.1984 31.886 28.602C31.6334 28.6843 31.4636 28.9199 31.4636 29.1881C31.4636 29.4564 31.6334 29.692 31.886 29.7743C33.1244 30.1779 33.501 30.5579 33.9009 31.8074C33.9824 32.0624 34.2159 32.2337 34.4818 32.2337C34.7478 32.2337 34.9812 32.0624 35.0628 31.8075C35.4627 30.5579 35.8393 30.1779 37.0776 29.7743C37.3303 29.692 37.5 29.4564 37.5 29.1881C37.5 28.9199 37.3302 28.6843 37.0775 28.602ZM34.4818 30.8927C34.1141 30.0357 33.6419 29.5593 32.7926 29.1881C33.6419 28.8171 34.1141 28.3406 34.4818 27.4836C34.8495 28.3406 35.3217 28.817 36.171 29.1881C35.3217 29.5592 34.8495 30.0357 34.4818 30.8927Z" fill="#00621E"/>
<path d="M25.3185 25.0145C25.4583 25.1557 25.642 25.2261 25.8256 25.2261C26.0093 25.2261 26.193 25.1556 26.3329 25.0145L29.3818 21.9379C29.5499 21.7682 29.5499 21.4933 29.3818 21.3237C29.2137 21.1541 28.9412 21.1541 28.7732 21.3237L25.8257 24.2979L18.9155 17.3249C17.5989 15.9964 17.5989 13.8346 18.9155 12.506C20.2322 11.1774 22.3744 11.1774 23.691 12.506L25.3185 14.1482C25.5982 14.4303 26.0532 14.4303 26.3329 14.1481L27.9603 12.506C29.2769 11.1772 31.4192 11.1774 32.7358 12.506C34.0524 13.8346 34.0524 15.9963 32.7358 17.3249L30.1933 19.8906C30.0252 20.0602 30.0252 20.3352 30.1933 20.5048C30.3614 20.6743 30.6339 20.6744 30.802 20.5048L33.3444 17.9391C34.9967 16.2719 34.9967 13.559 33.3444 11.8917C31.6922 10.2246 29.0038 10.2245 27.3516 11.8917L25.8256 13.4316L24.2996 11.8917C23.4993 11.0841 22.4352 10.6393 21.3033 10.6393C20.1713 10.6393 19.1072 11.0842 18.3069 11.8918C17.5064 12.6994 17.0657 13.7733 17.0657 14.9155C17.0657 16.0577 17.5064 17.1315 18.3069 17.9392L25.3185 25.0145Z" fill="#00621E"/>
<path d="M30.1107 30.7935C30.1107 30.5536 29.918 30.3592 29.6803 30.3592C29.4426 30.3592 29.2499 30.5536 29.2499 30.7935V33.0528C29.2499 33.0965 29.2565 33.14 29.2693 33.1818C29.7975 34.8953 29.3457 36.7467 28.0904 38.0134C28.0899 38.0139 28.0889 38.0148 28.0889 38.0148C26.2311 39.888 23.2096 39.8876 21.3524 38.0134L14.0676 30.6624C13.9036 30.497 13.8133 30.2769 13.8133 30.0429C13.8133 29.8088 13.9036 29.5888 14.0676 29.4233C14.4061 29.0817 14.957 29.0816 15.2956 29.4233L16.7357 30.8765C16.8298 31.2446 17.019 31.5928 17.3041 31.8805L20.4789 35.084C20.6037 35.21 20.7677 35.273 20.9317 35.273C21.0956 35.273 21.2596 35.21 21.3844 35.084L22.7141 33.7423C22.8822 33.5726 22.8822 33.2977 22.7141 33.1281C22.546 32.9585 22.2735 32.9585 22.1055 33.1281L20.9317 34.3126L17.9128 31.2663C17.3969 30.7456 17.3969 29.8985 17.9128 29.3778C18.1627 29.1256 18.495 28.9867 18.8485 28.9867C19.202 28.9867 19.5343 29.1256 19.7843 29.3778L20.6274 30.2286C20.708 30.3101 20.8175 30.3558 20.9317 30.3558C21.0458 30.3558 21.1553 30.3101 21.236 30.2286L22.0791 29.3778C22.329 29.1256 22.6613 28.9867 23.0148 28.9867C23.3682 28.9867 23.7005 29.1256 23.9505 29.3779C24.4665 29.8985 24.4665 30.7456 23.9505 31.2663L23.5256 31.6949C23.3576 31.8646 23.3576 32.1396 23.5256 32.3091C23.6937 32.4788 23.9662 32.4787 24.1343 32.3092L24.5592 31.8805C24.9717 31.4642 25.1989 30.9107 25.1989 30.322C25.1989 29.7334 24.9717 29.1799 24.5592 28.7637C24.1467 28.3474 23.5982 28.1181 23.0148 28.1181C22.8757 28.1181 22.7387 28.1316 22.6048 28.157L19.3504 24.873L20.1228 24.0936C20.2815 23.9334 20.4095 23.7536 20.5072 23.5622L26.6525 29.7633V30.4447L25.961 31.1425C24.8314 32.2825 24.4633 33.9949 25.0234 35.5051C25.088 35.6797 25.2522 35.7874 25.4265 35.7874C25.4766 35.7874 25.5276 35.7785 25.5773 35.7597C25.7999 35.6756 25.9128 35.4254 25.8295 35.2007C25.3874 34.0084 25.6779 32.6565 26.5696 31.7567L27.3872 30.9317C27.468 30.8502 27.5133 30.7398 27.5133 30.6245V27.5842C27.5133 27.101 27.9028 26.708 28.3817 26.708C28.6136 26.708 28.8317 26.7991 28.9957 26.9646C29.1597 27.1301 29.25 27.3502 29.25 27.5842V28.7668C29.25 29.0067 29.4427 29.2011 29.6804 29.2011C29.9181 29.2011 30.1108 29.0067 30.1108 28.7668V27.5842C30.1108 27.1182 29.9309 26.68 29.6044 26.3504C29.2778 26.0209 28.8435 25.8394 28.3817 25.8394C27.4283 25.8394 26.6526 26.6221 26.6526 27.5842V28.5349L20.8021 22.6313C20.7828 22.6118 20.762 22.5944 20.7419 22.5759C20.7403 22.0309 20.534 21.4864 20.1228 21.0715C20.1228 21.0715 20.1228 21.0715 20.1228 21.0715C19.2971 20.2384 17.9536 20.2384 17.128 21.0715L16.6211 21.583L16.1142 21.0715C15.2885 20.2384 13.945 20.2383 13.1193 21.0715C12.2936 21.9047 12.2936 23.2605 13.1193 24.0937L14.3852 25.3711C14.2495 25.4482 14.1231 25.5442 14.01 25.6584C13.6834 25.9879 13.5035 26.4261 13.5035 26.8922C13.5035 27.3583 13.6833 27.7964 14.01 28.126L14.239 28.3571C13.953 28.433 13.6827 28.5834 13.4589 28.8091C13.1324 29.1387 12.9525 29.5768 12.9525 30.0429C12.9525 30.509 13.1323 30.9471 13.4589 31.2767L20.7437 38.6277C21.8404 39.7342 23.2808 40.2875 24.7214 40.2875C26.1615 40.2875 27.6017 39.7344 28.6983 38.6283C28.6985 38.628 28.6988 38.6279 28.699 38.6276C30.1655 37.1478 30.7032 34.9926 30.1107 32.9881V30.7935ZM21.7515 28.5244C21.6524 28.5956 21.5582 28.6751 21.4704 28.7637L20.9317 29.3073L20.3929 28.7637C19.9911 28.3582 19.4603 28.1308 18.8939 28.1192L17.5137 26.7264L18.7417 25.4872L21.7515 28.5244ZM13.7279 23.4795C13.2378 22.9849 13.2378 22.1801 13.7279 21.6856C13.973 21.4383 14.2948 21.3147 14.6167 21.3147C14.9386 21.3147 15.2605 21.4384 15.5055 21.6856L16.3167 22.5042C16.4848 22.6737 16.7573 22.6737 16.9253 22.5042L17.7365 21.6856C18.2266 21.191 19.0241 21.1911 19.5141 21.6856C20.0042 22.1801 20.0042 22.9849 19.5141 23.4794L16.621 26.3988L13.7279 23.4795ZM14.6186 26.2726C14.7375 26.1527 14.8848 26.0725 15.0451 26.037L16.1738 27.176C16.2933 27.2965 16.4521 27.363 16.621 27.363C16.7096 27.363 16.7952 27.3443 16.8741 27.3095L17.8942 28.339C17.6783 28.445 17.4789 28.5874 17.3041 28.7638C17.0433 29.027 16.8627 29.3409 16.7617 29.6744L14.6186 27.5118C14.4546 27.3464 14.3643 27.1264 14.3643 26.8923C14.3643 26.6582 14.4546 26.4381 14.6186 26.2726Z" fill="#00621E"/>
<circle cx="25" cy="25.2227" r="24.5" stroke="#00621E"/>
</g>
<defs>
<clipPath id="clip0">
<rect width="50" height="50" fill="white" transform="translate(0 0.222656)"/>
</clipPath>
</defs>
</svg>
