<svg width="50" height="51" viewBox="0 0 50 51" fill="none" xmlns="http://www.w3.org/2000/svg">
<g clip-path="url(#clip0)">
<path d="M37.5 24.7314C37.5 23.9615 37.4273 23.1872 37.2837 22.43C37.23 22.1465 36.9543 21.9599 36.6685 22.0132C36.3825 22.0664 36.1941 22.3394 36.2479 22.6229C36.3794 23.3165 36.446 24.026 36.446 24.7314C36.446 24.8724 36.4425 25.0126 36.4373 25.1524C35.2999 24.7729 34.9381 24.3899 34.5547 23.2133C34.4598 22.9219 34.1882 22.7261 33.8789 22.7261C33.8788 22.7261 33.8788 22.7261 33.8787 22.7261C33.5694 22.7261 33.2978 22.9218 33.2029 23.2131C32.8073 24.4272 32.4347 24.7964 31.2095 25.1885C30.9155 25.2826 30.718 25.5518 30.718 25.8584C30.7181 26.1649 30.9157 26.4341 31.2096 26.5281C32.4347 26.9202 32.8073 27.2894 33.2029 28.5036C33.2979 28.7949 33.5694 28.9906 33.8787 28.9906H33.8789C34.1882 28.9906 34.4598 28.7947 34.5546 28.5035C34.9206 27.3803 35.2674 26.9803 36.2871 26.6163C35.7719 29.6562 34.0327 32.2899 31.5901 34.0005V28.804C31.5901 28.5156 31.3543 28.2818 31.0632 28.2818C30.7721 28.2818 30.5362 28.5156 30.5362 28.804V34.6562C29.5587 35.1938 28.4941 35.5938 27.369 35.8293V33.0015H28.7931C29.2775 33.0015 29.6714 32.6111 29.6714 32.1311V29.1522C29.6714 28.6722 29.2775 28.2818 28.7931 28.2818H28.6946V26.8287C28.6946 26.3254 28.9009 25.8331 29.2607 25.4778L30.8098 23.9476C31.3665 23.3978 31.6858 22.6357 31.6858 21.8569V17.959C31.6858 17.6706 31.4499 17.4367 31.1588 17.4367C30.8677 17.4367 30.6318 17.6706 30.6318 17.959V18.3367C30.6318 18.5847 30.4283 18.7863 30.1781 18.7863H29.1974C28.9472 18.7863 28.7437 18.5847 28.7437 18.3367V13.0498C28.7437 12.8018 28.9472 12.6001 29.1974 12.6001H30.1781C30.4283 12.6001 30.6318 12.8018 30.6318 13.0498V15.5219C30.6318 15.8103 30.8677 16.0441 31.1588 16.0441C31.4499 16.0441 31.6858 15.8103 31.6858 15.5219V15.5187C33.376 16.7233 34.7386 18.3878 35.5758 20.3868C35.6873 20.6532 35.9959 20.7795 36.2645 20.6689C36.5334 20.5584 36.6608 20.2528 36.5493 19.9864C35.6134 17.7517 34.0483 15.8488 32.0233 14.4831C31.9119 14.408 31.7992 14.3354 31.6858 14.2643V13.0498C31.6858 12.2259 31.0094 11.5556 30.1781 11.5556H29.1974C29.0127 11.5556 28.8364 11.5903 28.6727 11.6508C28.4789 11.0473 27.9083 10.6087 27.2359 10.6087H26.2553C26.06 10.6087 25.8739 10.6469 25.7026 10.7141C25.4866 10.1504 24.9375 9.74792 24.2939 9.74792H23.3132C22.4819 9.74792 21.8055 10.4182 21.8055 11.2421V11.625C21.6622 11.5801 21.5099 11.5556 21.3518 11.5556H20.3711C19.5398 11.5556 18.8634 12.2259 18.8634 13.0498V13.9432C15.0678 16.0718 12.5 20.1097 12.5 24.7314C12.5 29.1666 14.8648 33.0641 18.4099 35.2528V39.215C18.4099 39.5034 18.6458 39.7372 18.9369 39.7372C19.228 39.7372 19.4639 39.5034 19.4639 39.215V35.8354C20.453 36.3217 21.5158 36.6817 22.631 36.8947V42.6432C22.631 42.9316 22.8669 43.1655 23.158 43.1655C23.4491 43.1655 23.685 42.9316 23.685 42.6432V37.0503C24.1173 37.0953 24.5559 37.1188 25 37.1188C25.4441 37.1188 25.8827 37.0953 26.3151 37.0502V42.6432C26.3151 42.9316 26.5509 43.1655 26.842 43.1655C27.1332 43.1655 27.369 42.9316 27.369 42.6432V36.8947C28.4843 36.6818 29.5471 36.3217 30.5363 35.8354V39.215C30.5363 39.5034 30.7721 39.7372 31.0632 39.7372C31.3543 39.7372 31.5902 39.5034 31.5902 39.215V35.2527C35.1353 33.0641 37.5 29.1665 37.5 24.7314ZM33.8787 27.3536C33.5325 26.6447 33.0852 26.2014 32.3698 25.8582C33.0852 25.5151 33.5325 25.0718 33.8787 24.3629C34.2251 25.0718 34.6724 25.5151 35.3877 25.8582C34.6724 26.2015 34.2251 26.6447 33.8787 27.3536ZM25.8016 12.1029C25.8016 11.8549 26.0051 11.6532 26.2553 11.6532H27.2359C27.4862 11.6532 27.6896 11.8549 27.6896 12.1029V18.3367C27.6896 18.5846 27.4862 18.7863 27.2359 18.7863L26.2241 18.7852C26.3304 18.5478 26.39 18.2855 26.39 18.0096V16.9761C26.39 16.5721 26.1485 16.224 25.8016 16.0632V12.1029ZM22.8595 11.2421C22.8595 10.9942 23.063 10.7925 23.3132 10.7925H24.2939C24.5441 10.7925 24.7476 10.9942 24.7476 11.2421V15.9679H22.8595V11.2421ZM19.9174 13.0498C19.9174 12.8018 20.1209 12.6001 20.3711 12.6001H21.3518C21.602 12.6001 21.8055 12.8018 21.8055 13.0498V15.9679H20.3123C20.2789 15.9679 20.2457 15.9688 20.2126 15.9704C20.112 15.9754 20.0135 15.9878 19.9174 16.0069V13.0498ZM20.3123 17.0124H25.336V18.0097C25.336 18.4915 24.9404 18.8835 24.4542 18.8835H21.6459C21.4061 18.8835 21.1965 19.0441 21.136 19.2742C21.0755 19.5042 21.1795 19.7457 21.3889 19.8617L22.9413 20.7213C23.5494 21.058 23.9272 21.6961 23.9272 22.3864V22.9045C23.9272 23.1929 24.1631 23.4268 24.4542 23.4268C24.7453 23.4268 24.9812 23.1929 24.9812 22.9045V22.3864C24.9812 21.3942 24.477 20.472 23.6513 19.928H24.4542C24.8368 19.928 25.1936 19.8169 25.4943 19.6263C25.7222 19.7587 25.9833 19.8308 26.2553 19.8308H27.2359C27.6105 19.8308 27.9527 19.694 28.2166 19.4691C28.4805 19.6939 28.8229 19.8308 29.1974 19.8308H30.1781C30.3361 19.8308 30.4885 19.8063 30.6317 19.7614V21.8569C30.6317 22.3601 30.4255 22.8525 30.0657 23.2078L28.5166 24.738C27.9599 25.2878 27.6406 26.0498 27.6406 26.8287V28.2818H26.9674C26.6763 28.2818 26.4404 28.5156 26.4404 28.804C26.4404 29.0924 26.6763 29.3263 26.9674 29.3263H28.6175V31.9571H27.369V31.0361C27.369 30.7476 27.1331 30.5138 26.842 30.5138C26.5509 30.5138 26.315 30.7476 26.315 31.0361V31.9571H23.6849V31.0361C23.6849 30.7476 23.4491 30.5138 23.158 30.5138C22.8668 30.5138 22.631 30.7476 22.631 31.0361V31.9571H21.3333V29.3263H24.5082C24.7993 29.3263 25.0351 29.0924 25.0351 28.804C25.0351 28.5156 24.7993 28.2818 24.5082 28.2818H22.3104V26.817C22.3104 26.0622 22.0249 25.3496 21.506 24.8008L19.923 23.2084C19.5652 22.8492 19.3682 22.3733 19.3682 21.8686V17.948C19.3683 17.4321 19.7917 17.0124 20.3123 17.0124ZM19.4639 34.6563V28.804C19.4639 28.5156 19.228 28.2818 18.9369 28.2818C18.6458 28.2818 18.4099 28.5156 18.4099 28.804V34.0005C15.4745 31.9448 13.554 28.5563 13.554 24.7314C13.554 20.7132 15.6744 17.178 18.8634 15.1625V16.5866C18.5235 16.9417 18.3143 17.4209 18.3143 17.9479V21.8686C18.3143 22.6496 18.6192 23.386 19.1729 23.942L20.7021 25.4777C21.0596 25.8368 21.2564 26.3125 21.2564 26.817V28.2817H21.1578C20.6735 28.2817 20.2795 28.6721 20.2795 29.1521V32.1311C20.2795 32.6111 20.6735 33.0015 21.1578 33.0015H22.6311V35.8293C21.5059 35.5938 20.4413 35.1939 19.4639 34.6563ZM25 36.0744C24.5553 36.0744 24.1166 36.0482 23.685 35.9991V33.0017H26.3151V35.9991C25.8834 36.0482 25.4448 36.0744 25 36.0744Z" fill="#00621E"/>
<path d="M31.2783 10.6975C32.1949 10.9908 32.4567 11.2503 32.7527 12.1586C32.8422 12.4333 33.0982 12.6179 33.3898 12.6179C33.6814 12.6179 33.9374 12.4333 34.0269 12.1586C34.323 11.2502 34.5847 10.9908 35.5014 10.6974C35.7785 10.6088 35.9647 10.3551 35.9647 10.0662C35.9648 9.77726 35.7786 9.52345 35.5014 9.43467C34.5847 9.14138 34.323 8.88187 34.0269 7.9736C33.9376 7.69891 33.6815 7.51431 33.3899 7.51431C33.0983 7.51431 32.8423 7.69884 32.7528 7.97353C32.4567 8.88187 32.195 9.14138 31.2783 9.43474C31.0011 9.52345 30.8149 9.77726 30.8149 10.0662C30.8149 10.3551 31.0011 10.6088 31.2783 10.6975ZM33.7557 8.29453C33.7557 8.29453 33.7558 8.29446 33.7557 8.29453C33.7556 8.29474 33.7556 8.29502 33.7555 8.29523C33.7556 8.29495 33.7556 8.29474 33.7557 8.29453ZM33.3898 9.15573C33.6193 9.5552 33.9055 9.83888 34.3085 10.0662C33.9054 10.2934 33.6192 10.577 33.3899 10.9765C33.1605 10.5771 32.8743 10.2934 32.4712 10.0662C32.8742 9.83881 33.1606 9.5552 33.3898 9.15573Z" fill="#00621E"/>
<path d="M18.9519 25.2549C18.0351 24.9616 17.7734 24.7021 17.4774 23.7938C17.3879 23.5191 17.1319 23.3345 16.8403 23.3345C16.5488 23.3345 16.2927 23.519 16.2033 23.7937C15.9072 24.7021 15.6454 24.9616 14.7288 25.2549C14.4517 25.3436 14.2654 25.5973 14.2654 25.8863C14.2654 26.1752 14.4516 26.429 14.7288 26.5176C15.6454 26.811 15.9072 27.0704 16.2032 27.9788C16.2926 28.2535 16.5488 28.438 16.8403 28.438C17.1319 28.438 17.388 28.2535 17.4774 27.9788C17.7734 27.0705 18.0351 26.811 18.9519 26.5176C19.229 26.429 19.4153 26.1752 19.4153 25.8863C19.4153 25.5973 19.229 25.3436 18.9519 25.2549ZM17.2061 24.1147C17.2061 24.1148 17.206 24.1149 17.2059 24.1151C17.206 24.115 17.2061 24.1149 17.2061 24.1147ZM16.8402 26.7966C16.6109 26.3972 16.3247 26.1136 15.9216 25.8863C16.3247 25.659 16.6109 25.3754 16.8402 24.9759C17.0696 25.3753 17.3558 25.659 17.7588 25.8863C17.3558 26.1136 17.0696 26.3972 16.8402 26.7966Z" fill="#00621E"/>
<circle cx="25" cy="25.2227" r="24.5" stroke="#00621E"/>
</g>
<defs>
<clipPath id="clip0">
<rect width="50" height="50" fill="white" transform="translate(0 0.222656)"/>
</clipPath>
</defs>
</svg>
