<svg width="81" height="81" viewBox="0 0 81 81" fill="none" xmlns="http://www.w3.org/2000/svg">
<g filter="url(#filter0_ddd_1756:9534)">
<circle cx="40.5" cy="30.4021" r="19.5" transform="rotate(-180 40.5 30.4021)" fill="#679487" stroke="#E1E1E1"/>
<path fill-rule="evenodd" clip-rule="evenodd" d="M33.8334 29.8334C33.8334 30.0402 33.9204 30.2384 34.0751 30.3846C34.2299 30.5308 34.4398 30.6129 34.6587 30.6129L44.22 30.6129L40.6764 33.9586C40.5996 34.0311 40.5388 34.1171 40.4972 34.2118C40.4557 34.3065 40.4343 34.408 40.4343 34.5105C40.4343 34.613 40.4557 34.7145 40.4972 34.8092C40.5388 34.9039 40.5996 34.9899 40.6764 35.0624C40.7531 35.1349 40.8442 35.1924 40.9444 35.2316C41.0447 35.2708 41.1521 35.291 41.2606 35.291C41.3691 35.291 41.4766 35.2708 41.5768 35.2316C41.6771 35.1924 41.7682 35.1349 41.8449 35.0624L46.7964 30.3853C46.8732 30.3129 46.9342 30.2269 46.9758 30.1322C47.0174 30.0375 47.0388 29.936 47.0388 29.8334C47.0388 29.7309 47.0174 29.6294 46.9758 29.5347C46.9342 29.44 46.8732 29.3539 46.7964 29.2815L41.8449 24.6045C41.6899 24.4581 41.4798 24.3759 41.2606 24.3759C41.0415 24.3759 40.8313 24.4581 40.6764 24.6045C40.5214 24.7508 40.4343 24.9494 40.4343 25.1564C40.4343 25.3634 40.5214 25.5619 40.6764 25.7082L44.22 29.0539L34.6587 29.0539C34.4398 29.0539 34.2299 29.136 34.0751 29.2822C33.9204 29.4284 33.8334 29.6267 33.8334 29.8334Z" fill="white"/>
</g>
<defs>
<filter id="filter0_ddd_1756:9534" x="0.5" y="0.4021" width="80" height="80" filterUnits="userSpaceOnUse" color-interpolation-filters="sRGB">
<feFlood flood-opacity="0" result="BackgroundImageFix"/>
<feColorMatrix in="SourceAlpha" type="matrix" values="0 0 0 0 0 0 0 0 0 0 0 0 0 0 0 0 0 0 127 0" result="hardAlpha"/>
<feOffset/>
<feGaussianBlur stdDeviation="0.5"/>
<feColorMatrix type="matrix" values="0 0 0 0 0 0 0 0 0 0 0 0 0 0 0 0 0 0 0.04 0"/>
<feBlend mode="normal" in2="BackgroundImageFix" result="effect1_dropShadow_1756:9534"/>
<feColorMatrix in="SourceAlpha" type="matrix" values="0 0 0 0 0 0 0 0 0 0 0 0 0 0 0 0 0 0 127 0" result="hardAlpha"/>
<feOffset dy="2"/>
<feGaussianBlur stdDeviation="3"/>
<feColorMatrix type="matrix" values="0 0 0 0 0 0 0 0 0 0 0 0 0 0 0 0 0 0 0.04 0"/>
<feBlend mode="normal" in2="effect1_dropShadow_1756:9534" result="effect2_dropShadow_1756:9534"/>
<feColorMatrix in="SourceAlpha" type="matrix" values="0 0 0 0 0 0 0 0 0 0 0 0 0 0 0 0 0 0 127 0" result="hardAlpha"/>
<feOffset dy="10"/>
<feGaussianBlur stdDeviation="10"/>
<feColorMatrix type="matrix" values="0 0 0 0 0 0 0 0 0 0 0 0 0 0 0 0 0 0 0.04 0"/>
<feBlend mode="normal" in2="effect2_dropShadow_1756:9534" result="effect3_dropShadow_1756:9534"/>
<feBlend mode="normal" in="SourceGraphic" in2="effect3_dropShadow_1756:9534" result="shape"/>
</filter>
</defs>
</svg>
