<svg width="81" height="81" viewBox="0 0 81 81" fill="none" xmlns="http://www.w3.org/2000/svg">
<g filter="url(#filter0_ddd_1756:9528)">
<circle cx="40.5" cy="30.4021" r="20" transform="rotate(-180 40.5 30.4021)" fill="white"/>
<path fill-rule="evenodd" clip-rule="evenodd" d="M47.0389 29.8334C47.0389 29.6267 46.952 29.4284 46.7972 29.2822C46.6424 29.1361 46.4325 29.0539 46.2137 29.0539L36.6524 29.0539L40.196 25.7083C40.2727 25.6358 40.3336 25.5497 40.3751 25.4551C40.4166 25.3604 40.438 25.2589 40.438 25.1564C40.438 25.0539 40.4166 24.9524 40.3751 24.8577C40.3336 24.763 40.2727 24.6769 40.196 24.6045C40.1192 24.532 40.0281 24.4745 39.9279 24.4353C39.8276 24.3961 39.7202 24.3759 39.6117 24.3759C39.5032 24.3759 39.3957 24.3961 39.2955 24.4353C39.1952 24.4745 39.1041 24.532 39.0274 24.6045L34.0759 29.2815C33.9991 29.354 33.9381 29.44 33.8965 29.5347C33.8549 29.6294 33.8335 29.7309 33.8335 29.8334C33.8335 29.936 33.8549 30.0375 33.8965 30.1322C33.9381 30.2269 33.9991 30.3129 34.0759 30.3853L39.0274 35.0624C39.1824 35.2088 39.3925 35.291 39.6117 35.291C39.8308 35.291 40.041 35.2088 40.196 35.0624C40.3509 34.916 40.438 34.7175 40.438 34.5105C40.438 34.3035 40.3509 34.105 40.196 33.9586L36.6524 30.613L46.2137 30.613C46.4325 30.613 46.6424 30.5308 46.7972 30.3846C46.952 30.2385 47.0389 30.0402 47.0389 29.8334Z" fill="#679487"/>
</g>
<defs>
<filter id="filter0_ddd_1756:9528" x="0.5" y="0.4021" width="80" height="80" filterUnits="userSpaceOnUse" color-interpolation-filters="sRGB">
<feFlood flood-opacity="0" result="BackgroundImageFix"/>
<feColorMatrix in="SourceAlpha" type="matrix" values="0 0 0 0 0 0 0 0 0 0 0 0 0 0 0 0 0 0 127 0" result="hardAlpha"/>
<feOffset/>
<feGaussianBlur stdDeviation="0.5"/>
<feColorMatrix type="matrix" values="0 0 0 0 0 0 0 0 0 0 0 0 0 0 0 0 0 0 0.04 0"/>
<feBlend mode="normal" in2="BackgroundImageFix" result="effect1_dropShadow_1756:9528"/>
<feColorMatrix in="SourceAlpha" type="matrix" values="0 0 0 0 0 0 0 0 0 0 0 0 0 0 0 0 0 0 127 0" result="hardAlpha"/>
<feOffset dy="2"/>
<feGaussianBlur stdDeviation="3"/>
<feColorMatrix type="matrix" values="0 0 0 0 0 0 0 0 0 0 0 0 0 0 0 0 0 0 0.04 0"/>
<feBlend mode="normal" in2="effect1_dropShadow_1756:9528" result="effect2_dropShadow_1756:9528"/>
<feColorMatrix in="SourceAlpha" type="matrix" values="0 0 0 0 0 0 0 0 0 0 0 0 0 0 0 0 0 0 127 0" result="hardAlpha"/>
<feOffset dy="10"/>
<feGaussianBlur stdDeviation="10"/>
<feColorMatrix type="matrix" values="0 0 0 0 0 0 0 0 0 0 0 0 0 0 0 0 0 0 0.04 0"/>
<feBlend mode="normal" in2="effect2_dropShadow_1756:9528" result="effect3_dropShadow_1756:9528"/>
<feBlend mode="normal" in="SourceGraphic" in2="effect3_dropShadow_1756:9528" result="shape"/>
</filter>
</defs>
</svg>
