<svg width="21" height="22" viewBox="0 0 21 22" fill="none" xmlns="http://www.w3.org/2000/svg">
<path d="M17.623 3.93333C16.6726 2.97408 15.5407 2.21358 14.2934 1.69615C13.0461 1.17873 11.7083 0.914712 10.3579 0.919498C4.69955 0.919498 0.0881085 5.52965 0.0829257 11.1893C0.0829257 13.002 0.557157 14.7655 1.45249 16.3268L0 21.6509L5.44718 20.223C6.9541 21.0431 8.64232 21.473 10.3579 21.4734H10.3631C16.0228 21.4734 20.6329 16.8633 20.6381 11.1984C20.6394 9.84832 20.3736 8.51133 19.8559 7.26445C19.3382 6.01757 18.5789 4.88546 17.6217 3.93333H17.623ZM10.3579 19.7346C8.82769 19.7351 7.32558 19.3233 6.00952 18.5425L5.69855 18.3559L2.46704 19.2033L3.32998 16.0508L3.12785 15.7256C2.27243 14.3655 1.82002 12.7909 1.82307 11.1841C1.82307 6.48588 5.65449 2.65316 10.3631 2.65316C11.4849 2.65115 12.5959 2.8712 13.6322 3.30062C14.6685 3.73004 15.6096 4.36034 16.4011 5.15519C17.1955 5.94693 17.8252 6.88811 18.2539 7.92443C18.6827 8.96074 18.902 10.0717 18.8993 11.1932C18.8941 15.9083 15.0627 19.7346 10.3579 19.7346ZM15.0419 13.3415C14.7867 13.2132 13.526 12.5926 13.2888 12.5045C13.053 12.4203 12.8807 12.3762 12.7122 12.6327C12.5399 12.888 12.0475 13.4698 11.8998 13.6369C11.7521 13.8093 11.5992 13.8287 11.3427 13.7017C11.0874 13.5721 10.2595 13.3026 9.2799 12.4254C8.51543 11.7452 8.00362 10.903 7.85073 10.6477C7.70302 10.3912 7.83648 10.2538 7.96475 10.1255C8.07748 10.0115 8.22001 9.82494 8.34828 9.67723C8.47785 9.52951 8.52061 9.42067 8.60483 9.24964C8.68905 9.07601 8.64889 8.9283 8.5854 8.80003C8.52061 8.67175 8.00881 7.40584 7.79242 6.89533C7.58511 6.3913 7.37391 6.46126 7.21583 6.45479C7.06812 6.44572 6.89579 6.44572 6.72346 6.44572C6.59332 6.44895 6.46526 6.47905 6.3473 6.53412C6.22935 6.5892 6.12406 6.66806 6.03802 6.76576C5.80221 7.02231 5.14269 7.64296 5.14269 8.90887C5.14269 10.1748 6.06264 11.3915 6.19221 11.5638C6.31919 11.7361 7.99844 14.3262 10.5756 15.4406C11.1846 15.7062 11.664 15.863 12.0385 15.9822C12.6539 16.1791 13.2098 16.1493 13.6529 16.0858C14.1453 16.0107 15.1702 15.4639 15.3866 14.864C15.5991 14.2628 15.5991 13.7497 15.5343 13.6421C15.4708 13.5333 15.2985 13.4698 15.0419 13.3415Z" fill="#1E1E1E"/>
</svg>
