<svg width="50" height="51" viewBox="0 0 50 51" fill="none" xmlns="http://www.w3.org/2000/svg">
<g clip-path="url(#clip0)">
<circle cx="25" cy="25.2227" r="24.5" stroke="#00621E"/>
<path d="M34.6058 31.8797H34.1365C34.7634 31.1364 35.1423 30.1775 35.1423 29.1312C35.1423 28.3857 34.9498 27.6845 34.6126 27.0739C35.309 25.8374 35.7757 24.4491 35.9501 22.9622C35.9782 22.7218 35.8062 22.504 35.5658 22.4758C35.3254 22.4479 35.1076 22.6197 35.0795 22.8601C34.9361 24.0835 34.5776 25.2342 34.0455 26.2776C33.7209 25.9171 33.3362 25.6117 32.9069 25.3781C33.4385 24.2506 33.737 22.9925 33.737 21.6656C33.737 16.8481 29.8177 12.9288 25.0001 12.9288C20.1825 12.9288 16.2632 16.8481 16.2632 21.6656C16.2632 22.9925 16.5616 24.2506 17.0933 25.3781C16.6659 25.6107 16.2828 25.9142 15.9591 26.2725C15.2512 24.889 14.8503 23.3235 14.8503 21.6656C14.8502 16.069 19.4034 11.5159 25 11.5159C27.5774 11.5159 30.0346 12.4832 31.9188 14.2396C33.7936 15.9871 34.9308 18.352 35.121 20.8985C35.1391 21.1399 35.35 21.3211 35.5907 21.3029C35.8321 21.2849 36.0131 21.0746 35.9951 20.8332C35.7884 18.0661 34.553 15.4967 32.5165 13.5983C30.4695 11.6902 27.8001 10.6393 25 10.6393C18.92 10.6393 13.9736 15.5857 13.9736 21.6656C13.9736 23.6272 14.4893 25.4702 15.391 27.0676C15.0516 27.6797 14.8576 28.3831 14.8576 29.1312C14.8576 30.1774 15.2365 31.1364 15.8634 31.8797H15.3941C13.7982 31.8797 12.5 33.178 12.5 34.7739V37.4778C12.5 37.8806 12.8277 38.2083 13.2305 38.2083H15.0656C15.3077 38.2083 15.5039 38.012 15.5039 37.77C15.5039 37.528 15.3077 37.3317 15.0656 37.3317H13.3766V34.7739C13.3766 33.6613 14.2816 32.7563 15.3941 32.7563H16.8752C17.5294 33.1641 18.301 33.4006 19.127 33.4006C19.8157 33.4006 20.4663 33.236 21.0427 32.9449C21.2217 33.4192 21.4826 33.8535 21.8082 34.2306H21.2671C19.6712 34.2306 18.3729 35.5289 18.3729 37.1248V37.3317H17.1109C16.8688 37.3317 16.6727 37.528 16.6727 37.77C16.6727 38.012 16.8688 38.2083 17.1109 38.2083H18.3729V39.8287C18.3729 40.2316 18.7006 40.5592 19.1034 40.5592H30.8966C31.2994 40.5592 31.6271 40.2316 31.6271 39.8287V38.2083H36.7695C37.1723 38.2083 37.5 37.8806 37.5 37.4778V34.7739C37.4999 33.178 36.2017 31.8797 34.6058 31.8797ZM34.2658 29.1312C34.2658 31.0021 32.7437 32.5241 30.8729 32.5241C30.2874 32.5241 29.7365 32.3744 29.2553 32.1122C29.2897 31.8945 29.3087 31.6718 29.3087 31.4446C29.3087 30.0738 28.6586 28.8528 27.6514 28.071C28.0976 26.718 29.3724 25.7384 30.873 25.7384C32.7437 25.7383 34.2658 27.2604 34.2658 29.1312ZM20.2481 22.1039H22.6037C22.6172 23.2196 22.6822 24.2963 22.7937 25.2855H20.9786C20.9029 25.2489 20.826 25.2144 20.7479 25.1822C20.4559 24.2309 20.2843 23.1889 20.2481 22.1039ZM23.1286 19.1402C23.369 19.1617 23.5828 18.9842 23.6046 18.7431C23.6266 18.5 23.6506 18.2679 23.6764 18.0458H26.3239C26.4386 19.0283 26.5058 20.1058 26.5196 21.2273H23.4805C23.4825 21.0718 23.4855 20.9159 23.4895 20.7604C23.4958 20.5184 23.3047 20.3171 23.0627 20.3109C22.8214 20.3054 22.6195 20.4956 22.6133 20.7376C22.609 20.9007 22.606 21.0643 22.604 21.2274H20.2482C20.2858 20.1031 20.4682 19.0247 20.7799 18.0458H22.7944C22.7717 18.2479 22.7506 18.454 22.7317 18.6643C22.7098 18.9053 22.8876 19.1184 23.1286 19.1402ZM23.4804 22.1039H26.5195C26.5057 23.2254 26.4385 24.3029 26.3238 25.2855H23.6762C23.5614 24.3029 23.4943 23.2254 23.4804 22.1039ZM22.9089 26.162C22.9858 26.6756 23.076 27.159 23.1796 27.602C23.1606 27.6113 23.1421 27.6215 23.1231 27.631C22.9148 27.0778 22.5949 26.579 22.1907 26.162H22.9089ZM24.0105 27.3012C23.9302 26.9455 23.8578 26.5651 23.7948 26.162H26.2051C26.1432 26.5582 26.0722 26.9323 25.9936 27.2828C25.6866 27.2125 25.3672 27.1751 25.0392 27.1751C24.6846 27.1751 24.3402 27.2193 24.0105 27.3012ZM27.3962 22.1039H29.7519C29.7156 23.1888 29.5441 24.2308 29.252 25.1821C29.1741 25.2142 29.0974 25.2489 29.0218 25.2855H27.2062C27.3178 24.2963 27.3827 23.2196 27.3962 22.1039ZM27.2062 18.0458H29.2202C29.5318 19.0246 29.7143 20.1031 29.7519 21.2273H27.3962C27.3827 20.1116 27.3178 19.0349 27.2062 18.0458ZM27.8102 26.162C27.4143 26.5707 27.0988 27.0577 26.8902 27.5976C26.8697 27.5877 26.8488 27.5782 26.828 27.5686C26.9283 27.1346 27.0161 26.6628 27.0911 26.162H27.8102V26.162ZM30.8729 24.8618C30.6575 24.8618 30.446 24.8783 30.2392 24.9093C30.4656 24.0235 30.5987 23.0782 30.6293 22.1039H32.8479C32.7901 23.1504 32.5261 24.1426 32.0968 25.0414C31.7088 24.9251 31.2982 24.8618 30.8729 24.8618ZM32.8479 21.2273H30.6292C30.5942 20.1137 30.4255 19.038 30.1363 18.0458H31.9756C32.4767 19.0076 32.7848 20.0853 32.8479 21.2273ZM31.4434 17.1692H29.8407C29.6191 16.5942 29.3542 16.0554 29.047 15.5649C28.8006 15.1715 28.5341 14.8192 28.251 14.5097C29.538 15.0968 30.6399 16.0213 31.4434 17.1692ZM28.3041 16.0303C28.5252 16.3833 28.7221 16.7652 28.8952 17.1692H27.0911C27.0124 16.6432 26.9197 16.1487 26.8129 15.6968C26.661 15.0538 26.4908 14.5249 26.301 14.1079C27.0432 14.4604 27.7298 15.1134 28.3041 16.0303ZM25 13.8053C25.0983 13.8053 25.5492 14.1606 25.9599 15.8984C26.0525 16.2906 26.1344 16.7165 26.2051 17.1693H23.7945C24.183 14.669 24.7949 13.8053 25 13.8053ZM23.7022 14.1064C23.6182 14.2907 23.5377 14.4968 23.4607 14.7252C23.2374 15.3879 23.0509 16.2177 22.9087 17.1693H21.1048C21.2779 16.7652 21.4747 16.3834 21.6959 16.0303C22.271 15.1121 22.9587 14.4584 23.7022 14.1064ZM21.7489 14.5097C21.4659 14.8192 21.1994 15.1715 20.953 15.5649C20.6457 16.0553 20.3809 16.5942 20.1592 17.1692H18.5565C19.36 16.0213 20.4619 15.0968 21.7489 14.5097ZM18.0244 18.0458H19.8636C19.5745 19.038 19.4057 20.1137 19.3707 21.2273H17.1521C17.2151 20.0853 17.5232 19.0076 18.0244 18.0458ZM17.1521 22.1039H19.3707C19.4013 23.0784 19.5344 24.0238 19.7609 24.9097C19.5539 24.8787 19.3425 24.8618 19.127 24.8618C18.7017 24.8618 18.2911 24.9251 17.9032 25.0414C17.4739 24.1426 17.2099 23.1504 17.1521 22.1039ZM19.127 32.5241C17.2562 32.5241 15.7342 31.0021 15.7342 29.1312C15.7342 27.2604 17.2562 25.7383 19.127 25.7383C20.6456 25.7383 21.9335 26.7416 22.3649 28.1199C21.3931 28.9031 20.7698 30.1021 20.7698 31.4446C20.7698 31.6575 20.7861 31.8665 20.8164 32.071C20.3186 32.3585 19.7421 32.5241 19.127 32.5241ZM21.6463 31.4446C21.6463 29.5737 23.1683 28.0517 25.0392 28.0517C26.9101 28.0517 28.4321 29.5737 28.4321 31.4446C28.4321 33.3154 26.9101 34.8374 25.0392 34.8374C23.1683 34.8374 21.6463 33.3154 21.6463 31.4446ZM30.7504 39.6826H19.2495V37.1248C19.2495 36.0123 20.1546 35.1072 21.2671 35.1072H22.8482C23.4892 35.4921 24.2386 35.7139 25.0392 35.7139C25.8397 35.7139 26.5892 35.4921 27.2302 35.1072H28.7329C29.8454 35.1072 30.7504 36.0123 30.7504 37.1248V39.6826ZM36.6234 37.3317H31.627V37.1248C31.627 35.5289 30.3287 34.2306 28.7329 34.2306H28.2702C28.5883 33.8622 28.8445 33.439 29.023 32.9774C29.583 33.2482 30.2103 33.4006 30.8729 33.4006C31.699 33.4006 32.4705 33.1641 33.1247 32.7563H34.6058C35.7183 32.7563 36.6234 33.6613 36.6234 34.7739V37.3317Z" fill="#00621E"/>
<path d="M23.731 32.3945C23.731 33.0609 24.3178 33.6029 25.0393 33.6029C25.7607 33.6029 26.3476 33.0609 26.3476 32.3945C26.3476 32.1525 26.1514 31.9563 25.9093 31.9563C25.6672 31.9563 25.471 32.1525 25.471 32.3945C25.471 32.5744 25.2733 32.7264 25.0393 32.7264C24.8052 32.7264 24.6075 32.5744 24.6075 32.3945C24.6075 32.1525 24.4113 31.9563 24.1692 31.9563C23.9271 31.9563 23.731 32.1525 23.731 32.3945Z" fill="#00621E"/>
<path d="M23.7747 31.2421C24.0168 31.2421 24.213 31.0458 24.213 30.8038V30.4343C24.213 30.1922 24.0168 29.996 23.7747 29.996C23.5326 29.996 23.3364 30.1922 23.3364 30.4343V30.8038C23.3364 31.0458 23.5327 31.2421 23.7747 31.2421Z" fill="#00621E"/>
<path d="M26.3038 31.2421C26.5459 31.2421 26.742 31.0458 26.742 30.8038V30.4343C26.742 30.1922 26.5459 29.996 26.3038 29.996C26.0617 29.996 25.8655 30.1922 25.8655 30.4343V30.8038C25.8655 31.0458 26.0617 31.2421 26.3038 31.2421Z" fill="#00621E"/>
</g>
<defs>
<clipPath id="clip0">
<rect width="50" height="50" fill="white" transform="translate(0 0.222656)"/>
</clipPath>
</defs>
</svg>
