<svg width="28" height="28" viewBox="0 0 28 28" fill="none" xmlns="http://www.w3.org/2000/svg">
<path fill-rule="evenodd" clip-rule="evenodd" d="M15.6516 16.7881C15.4847 17.0036 15.244 17.1826 14.9538 17.3071C14.6637 17.4316 14.3343 17.4972 13.999 17.4972C13.6638 17.4972 13.3344 17.4316 13.0442 17.3071C12.7541 17.1826 12.5134 17.0036 12.3464 16.7881L0.783369 2.20822C0.0127222 1.23598 0.938511 5.90124e-05 2.43596 5.91265e-05L25.5638 6.08881e-05C27.0629 6.10023e-05 27.9871 1.23723 27.2164 2.20823L15.6516 16.7881Z" fill="#679487"/>
<path d="M15.2599 26.4774L15.2599 26.4774L15.2564 26.4819C15.1491 26.6204 14.9813 26.7513 14.7567 26.8476C14.5326 26.9438 14.2708 26.9972 13.999 26.9972C13.7273 26.9972 13.4655 26.9438 13.2414 26.8476C13.0168 26.7513 12.849 26.6204 12.7417 26.4819L12.7417 26.4819L12.7382 26.4774L1.17521 11.8976C0.941733 11.6031 0.96241 11.3023 1.15939 11.0392C1.37281 10.7541 1.81896 10.5001 2.43596 10.5001L25.5638 10.5001C26.1816 10.5001 26.6277 10.7544 26.8409 11.0395C27.0377 11.3027 27.0581 11.6034 26.8248 11.8974L26.8247 11.8975L15.2599 26.4774Z" stroke="#679487"/>
</svg>
