<svg width="275" height="70" viewBox="0 0 275 70" fill="none" xmlns="http://www.w3.org/2000/svg">
<mask id="mask0_1202_2242" style="mask-type:luminance" maskUnits="userSpaceOnUse" x="0" y="0" width="72" height="70">
<path fill-rule="evenodd" clip-rule="evenodd" d="M0 0.302704H71.7791V69.0498H0V0.302704Z" fill="white"/>
</mask>
<g mask="url(#mask0_1202_2242)">
<path fill-rule="evenodd" clip-rule="evenodd" d="M70.0346 45.5784C67.8278 47.7905 65.5331 49.9028 62.714 51.353C61.8694 51.7874 60.9697 52.1174 60.0942 52.493C60.0415 52.5154 59.9792 52.5178 59.8606 52.5421C59.7862 52.177 59.7139 51.8265 59.6425 51.4753C59.5027 50.7882 59.4138 50.0859 59.2128 49.4167C58.8123 48.0842 58.0192 46.9823 56.9399 46.1036C56.2028 45.5036 55.3009 45.5179 54.4646 45.9665C53.4834 46.4929 52.4074 46.6488 51.3014 46.584C51.2009 46.5779 51.109 46.4217 51.0143 46.3339C51.0069 46.3273 51.0088 46.3109 51.0063 46.2991C50.7511 45.1437 51.0125 44.7829 52.1849 44.5998C55.327 44.1088 58.2248 42.9888 60.8958 41.2837C62.2341 40.4294 63.3465 39.3636 64.1547 37.9994C64.1835 37.9503 64.2251 37.9085 64.295 37.8202C64.36 37.917 64.402 37.9621 64.4246 38.0154C65.3366 40.1467 66.9639 41.6536 68.8192 42.9724C69.2816 43.3009 69.729 43.6726 70.1032 44.094C70.5105 44.5528 70.4688 45.1431 70.0346 45.5784M61.1652 57.9341C61.4787 57.7098 61.6166 57.7522 61.818 58.0527C62.1869 58.603 62.2072 58.5928 61.6794 58.9678C58.3342 61.3446 54.7904 63.3767 50.9732 64.921C47.0111 66.5241 42.9065 67.5355 38.6201 67.8179C33.7506 68.1391 29.0141 67.4946 24.3781 66.0329C21.2851 65.0579 18.3177 63.7892 15.5115 62.1828C13.6584 61.1218 11.8745 59.9425 10.0533 58.8255C9.79219 58.6651 9.75081 58.521 9.95461 58.2882C10.1051 58.116 10.2261 57.9192 10.3867 57.6968C11.1207 58.1784 11.8114 58.6351 12.5055 59.0868C15.6488 61.1294 18.9585 62.8602 22.4762 64.1837C27.7098 66.153 33.1098 67.0805 38.7237 66.6743C42.996 66.3652 47.0748 65.3179 51.0097 63.6745C54.628 62.1631 57.9885 60.2056 61.1652 57.9341M5.9934 49.3797C4.54327 48.1919 3.17588 46.9045 1.79286 45.6386C1.28201 45.1707 1.24707 44.5677 1.69756 44.0437C2.00983 43.6802 2.38432 43.3493 2.78424 43.0811C4.27022 42.0846 5.57019 40.9035 6.58241 39.4342C6.85607 39.037 7.04944 38.5857 7.27866 38.1589C7.33321 38.0581 7.38439 37.9555 7.47142 37.7869C7.58849 37.9715 7.6651 38.0887 7.73773 38.2082C8.42265 39.3406 9.34844 40.2675 10.4305 41.0052C12.4188 42.361 14.5903 43.3741 16.923 44.0101C17.8997 44.2765 18.9042 44.4472 19.902 44.6285C20.5395 44.7445 20.8306 45.0375 20.833 45.6771C20.8367 46.6291 20.8364 46.6376 19.8573 46.5949C18.8935 46.5531 17.9726 46.356 17.1207 45.8726C16.3046 45.4095 15.2363 45.6038 14.4683 46.3896C13.3513 47.5333 12.5193 48.8385 12.2971 50.4592C12.2184 51.0337 12.0832 51.601 11.995 52.1746C11.9456 52.496 11.8292 52.5635 11.5086 52.4479C9.4986 51.7226 7.63537 50.7243 5.9934 49.3797M8.58844 34.653C8.68344 34.4341 8.84218 34.2005 9.03831 34.0727C10.0551 33.4107 11.1629 33.4246 12.2827 33.7537C12.6535 33.8626 13.0014 34.0518 13.3559 34.2117C13.5101 34.281 13.5854 34.3827 13.465 34.5531C12.4237 36.0282 11.3851 37.5053 10.2988 39.0482C9.5081 38.2809 8.92983 37.4636 8.57833 36.4901C8.35554 35.8732 8.32704 35.2554 8.58844 34.653M19.5824 43.0911L19.5098 43.2052C19.1053 43.1262 18.6968 43.0636 18.2968 42.9664C15.9608 42.3982 13.7604 41.5107 11.7406 40.2079C11.345 39.953 11.3523 39.9512 11.6189 39.5731C12.4865 38.3432 13.3504 37.1103 14.2177 35.8798C14.3482 35.6952 14.4886 35.5175 14.6875 35.2526C16.1388 38.0387 17.7529 40.631 19.5824 43.0911M50.3925 52.3898C48.148 53.7362 45.7629 54.773 43.2255 55.4217C41.677 55.8173 40.0884 56.0607 38.5175 56.3694C38.4151 56.3894 38.3076 56.3827 38.1773 56.39C40.1515 54.8377 42.1517 53.376 44.0201 51.765C45.895 50.1489 47.639 48.3841 49.4345 46.6896C49.5283 47.4297 49.5645 48.2071 49.7364 48.9541C49.957 49.9146 50.2561 50.8615 50.5865 51.7914C50.699 52.108 50.6573 52.2312 50.3925 52.3898M21.1398 51.9339C21.8575 50.3151 22.1961 48.6172 22.2651 46.8594C22.2679 46.7889 22.2887 46.719 22.3252 46.5144C23.228 47.4594 24.0431 48.3511 24.9015 49.1999C25.7752 50.0644 26.6731 50.9075 27.5949 51.722C28.5072 52.5281 29.4468 53.3064 30.4032 54.061C31.3569 54.8135 32.3468 55.5215 33.3041 56.334C33.1705 56.334 33.0344 56.3497 32.9033 56.3316C28.8636 55.7788 25.0572 54.5529 21.5431 52.4864C21.4377 52.4246 21.309 52.3753 21.2419 52.2838C21.1726 52.1888 21.1009 52.022 21.1398 51.9339M15.738 47.2451C16.0509 46.9914 16.3254 47.0414 16.5792 47.1803C17.748 47.8211 19.006 48.0545 20.3286 48.027C20.7607 48.0179 20.815 48.0633 20.7154 48.4862C20.5303 49.2741 20.3112 50.0548 20.0966 50.8357C20.0593 50.9713 19.9762 51.0948 19.8892 51.2759C18.2141 50.1889 16.7128 48.9926 15.738 47.2451M16.8553 55.893C16.9319 56.1905 17.0885 56.4732 17.2405 56.7457C17.471 57.158 17.7514 57.5442 17.9692 57.9625C18.2861 58.5704 18.3456 59.1939 17.8942 59.7733C17.4241 60.3775 16.7726 60.5736 16.034 60.481C15.4309 60.4056 14.9228 60.1217 14.5079 59.6798C13.9811 59.1192 13.9805 59.1198 13.2055 59.0895C13.6452 58.436 14.054 57.8284 14.4628 57.2209L14.5885 57.2597C14.5741 57.3829 14.5771 57.5109 14.5425 57.6283C14.3531 58.2686 14.4003 58.8731 14.8033 59.4261C15.1459 59.8962 15.7343 60.129 16.2114 59.9928C16.6466 59.8686 16.8817 59.5087 16.7661 59.0747C16.7021 58.8337 16.5807 58.603 16.4572 58.383C16.2075 57.9392 15.9142 57.5185 15.6843 57.0656C15.3803 56.4663 15.3347 55.8539 15.7904 55.2921C16.266 54.7067 16.901 54.5129 17.6285 54.654C18.2279 54.7705 18.7011 55.1011 19.0596 55.5975C19.3939 56.0607 19.4019 56.0552 19.9909 55.9266C19.8677 56.1257 19.7458 56.3261 19.6201 56.5238C19.4445 56.8005 19.2711 57.0789 19.0841 57.3477C19.0369 57.4162 18.9419 57.4522 18.8693 57.503C18.8564 57.408 18.8077 57.3002 18.8365 57.22C19.0219 56.7024 18.9478 56.2165 18.6747 55.7549C18.3946 55.2806 17.8353 55.0136 17.3784 55.1199C16.9754 55.2134 16.7536 55.4973 16.8553 55.893M23.9972 58.3003C23.7054 58.1484 23.4017 58.0137 23.0913 57.9047C23.0055 57.8747 22.814 57.9341 22.7772 58.0058C22.4664 58.6076 22.1811 59.2218 21.8808 59.8475C22.7668 60.3221 23.1952 59.6452 23.68 59.1216C23.7183 59.1615 23.7569 59.2012 23.7952 59.2411C23.3582 60.1447 22.9215 61.048 22.4845 61.9509C22.4367 61.9476 22.3883 61.944 22.3402 61.9403C22.354 61.2974 22.6773 60.5325 21.6838 60.2446C21.3991 60.85 21.1027 61.4563 20.83 62.0729C20.7362 62.286 20.8649 62.444 21.0647 62.54C22.0512 63.0143 23.0128 63.2413 23.9671 62.3021C24.0186 62.2518 24.101 62.2324 24.2717 62.1474C24.1988 62.3287 24.1789 62.4165 24.1323 62.4873C23.892 62.8524 23.6371 63.2084 23.4033 63.5776C23.2868 63.7614 23.171 63.8198 22.9543 63.7296C21.4757 63.1145 19.9924 62.5103 18.512 61.8995C18.4501 61.874 18.4007 61.8186 18.3655 61.6939C18.4798 61.7103 18.5978 61.7136 18.7072 61.7463C19.0283 61.8423 19.2637 61.7481 19.4074 61.4518C20.0412 60.1423 20.6706 58.8307 21.3053 57.5215C21.4389 57.246 21.3405 57.0587 21.1009 56.9106C20.9948 56.845 20.89 56.7775 20.7846 56.7106C20.8039 56.6712 20.8229 56.6322 20.8425 56.5931C20.9406 56.6225 21.042 56.6437 21.1364 56.6821C22.517 57.2463 23.8945 57.8181 25.2784 58.3742C25.5331 58.4768 25.5935 58.5876 25.4583 58.8316C25.2876 59.1385 25.1506 59.4636 24.9925 59.7778C24.9429 59.8762 24.8724 59.9646 24.8114 60.0578C24.7768 60.0481 24.7425 60.0385 24.7081 60.0288C24.7081 59.9104 24.6965 59.7905 24.7103 59.6734C24.7887 59.0038 24.5966 58.6124 23.9972 58.3003M31.4363 66.0159C31.1586 65.9708 30.9797 65.9245 30.7986 65.9151C29.7808 65.8636 29.1474 65.3948 28.9047 64.3777C28.7855 63.8782 28.5262 63.4084 28.301 62.9386C28.2342 62.7985 28.0684 62.7044 27.9479 62.589C27.8701 62.7095 27.761 62.8206 27.7206 62.9523C27.5928 63.3685 27.484 63.7911 27.3801 64.2139C27.2532 64.7288 27.2937 64.7945 27.7984 65.0049C27.8603 65.0306 27.9158 65.0718 27.9875 65.1142C27.7117 65.2458 25.169 64.6834 24.9046 64.4273C25.7985 64.3141 25.7976 64.3138 26.0305 63.4463C26.3286 62.3357 26.6354 61.2275 26.9247 60.1147C27.0893 59.4815 27.0718 59.4685 26.4623 59.1924C26.423 59.1749 26.3955 59.1328 26.2919 59.0359C26.4895 59.0359 26.6133 59.0129 26.7252 59.0395C27.8321 59.3014 28.9393 59.5623 30.0407 59.8462C30.3205 59.9183 30.5966 60.0436 30.8442 60.1925C31.3897 60.5201 31.6511 61.114 31.5383 61.6779C31.4151 62.2933 30.9401 62.741 30.2902 62.8515C30.159 62.8736 30.0263 62.8854 29.8921 62.9023C30.0232 63.3503 30.6766 65.3018 31.4363 66.0159M34.3828 61.0558C34.8499 62.1568 35.3291 63.2522 35.8403 64.4328C36.2081 63.7117 36.5341 63.0785 36.8547 62.4422C37.0125 62.1283 37.1731 61.8144 37.3097 61.4911C37.5289 60.9741 37.4173 60.7889 36.8617 60.6887C36.7961 60.6769 36.7345 60.6463 36.6585 60.6196C36.8492 60.4468 38.2092 60.4214 38.6977 60.5703C38.6637 60.6203 38.6425 60.6902 38.6027 60.7035C38.1402 60.8551 37.9144 61.2302 37.7112 61.6216C36.9586 63.0761 36.2133 64.5345 35.4585 65.9884C35.3963 66.1085 35.2853 66.2042 35.1974 66.3113C35.1159 66.2 35.0117 66.0989 34.9562 65.976C34.3182 64.5611 33.701 63.1369 33.0476 61.7294C32.8328 61.2677 32.7614 60.6735 32.063 60.5579C32.0857 60.5261 32.1086 60.4943 32.1316 60.4622H35.0402C35.0454 60.5031 35.0509 60.5434 35.0561 60.5839C34.9148 60.6139 34.7745 60.6493 34.6323 60.6729C34.4021 60.7108 34.2921 60.8424 34.3828 61.0558M40.5339 65.1705C40.3672 64.1682 40.2054 63.1654 40.0378 62.1634C39.9762 61.7941 39.9134 61.4242 39.8355 61.058C39.7359 60.5909 39.6621 60.5406 39.165 60.5225C39.0771 60.5192 38.9897 60.4986 38.9005 60.4268C39.9474 60.1765 41.0031 60.03 42.0588 59.8865C42.0696 59.9374 42.08 59.9885 42.0907 60.0394C41.9951 60.0721 41.9004 60.1084 41.8036 60.1371C41.3883 60.2603 41.2961 60.3996 41.369 60.8309C41.5894 62.131 41.8109 63.4308 42.0377 64.7297C42.1416 65.3257 42.1977 65.3663 42.8253 65.3933C42.8798 65.3957 42.9328 65.4202 42.9868 65.4347C42.9911 65.4792 42.9951 65.524 42.999 65.5688C41.9608 65.7226 40.9225 65.8764 39.8839 66.0301C39.8705 65.989 39.857 65.9478 39.8432 65.9069C39.9348 65.8633 40.0222 65.8022 40.1187 65.7798C40.453 65.7017 40.5894 65.5053 40.5339 65.1705M48.0509 63.4481C47.871 63.2501 47.6878 63.0503 47.4788 62.8848C47.3847 62.81 47.2085 62.7631 47.0966 62.7952C46.5683 62.9483 46.0449 63.1224 45.5303 63.3164C45.4249 63.3561 45.3495 63.5053 45.2895 63.6194C45.2536 63.6878 45.2735 63.7853 45.2689 63.8701C45.2291 64.589 45.3428 64.6979 46.0639 64.638C46.1184 64.6335 46.1751 64.6513 46.2431 64.6604C46.058 64.9101 44.6343 65.3984 44.3113 65.3315C45.1126 64.431 44.8347 63.2989 44.9757 62.2633C45.1114 61.2695 45.1393 60.2616 45.2171 59.2599C45.226 59.1428 45.2533 59.0268 45.2882 58.8092C45.4822 58.9799 45.6115 59.0853 45.7307 59.2003C46.8622 60.2906 47.9899 61.3843 49.1238 62.4725C49.3251 62.6659 49.528 62.8705 49.7655 63.0116C49.9815 63.1399 50.246 63.1893 50.5123 63.3594C49.5832 63.6721 48.6534 63.9848 47.7242 64.2975C47.7037 64.2557 47.6832 64.2136 47.6629 64.1715C47.7619 64.1083 47.8591 64.0411 47.9611 63.983C48.2538 63.8162 48.2798 63.6993 48.0509 63.4481M56.4244 59.3162C55.9031 58.4965 55.3677 57.6856 54.8373 56.8713C54.6001 56.5068 54.3607 56.1433 54.0662 55.6938C54.3604 57.5848 54.6381 59.3704 54.9157 61.1554L54.8097 61.2402C53.2437 60.2046 51.6778 59.1688 50.0287 58.0785C50.1001 58.2286 50.1247 58.2994 50.1645 58.3609C50.8197 59.3689 51.473 60.3784 52.1347 61.3825C52.5303 61.9827 52.6026 62.0027 53.3069 61.8256C53.3495 61.815 53.3985 61.8308 53.4684 61.8852C52.9256 62.3166 52.3057 62.6078 51.7105 62.9405C51.6833 62.9047 51.656 62.8693 51.629 62.8336C51.6863 62.77 51.7369 62.6995 51.8016 62.6444C52.089 62.3992 52.1313 62.115 51.93 61.8044C51.1638 60.6221 50.3916 59.4437 49.6245 58.2619C49.4404 57.9777 49.1937 57.9338 48.8933 58.0467C48.7882 58.0863 48.68 58.1178 48.5737 58.1529C48.5562 58.1208 48.5388 58.0885 48.5213 58.0561C48.5973 57.9961 48.6669 57.9253 48.7502 57.8784C49.3147 57.5609 49.8743 57.2336 50.4535 56.9461C50.5782 56.8843 50.8133 56.9173 50.938 56.9975C51.8613 57.5923 52.7696 58.2101 53.6835 58.8201C53.8324 58.9194 53.9838 59.015 54.2238 59.17C54.1144 58.4932 54.0221 57.9147 53.9271 57.3365C53.8257 56.7154 53.7123 56.0961 53.6274 55.4728C53.6118 55.3572 53.6694 55.165 53.757 55.1129C54.365 54.7503 54.9893 54.4143 55.6108 54.0737C55.6573 54.0483 55.7214 54.0541 55.7778 54.0453C55.7919 54.0689 55.8063 54.0925 55.8207 54.1164C55.7778 54.1673 55.7416 54.2272 55.6901 54.2678C55.2636 54.6028 55.2357 54.7106 55.5305 55.1686C56.2467 56.2816 56.9687 57.3913 57.694 58.4986C58.0357 59.0193 58.1038 59.0344 58.717 58.8386C58.7749 58.8204 58.8435 58.8361 58.9073 58.8361L58.9468 58.9339L56.1961 60.4592C56.1703 60.425 56.1446 60.3908 56.1189 60.3566C56.1648 60.3018 56.2022 60.2364 56.2577 60.1941C56.664 59.8814 56.7005 59.7506 56.4244 59.3162M51.5886 48.0279C52.872 48.0375 54.088 47.7863 55.2188 47.1655C55.4612 47.0326 55.7281 46.9926 56.0248 47.2481C55.0585 48.9911 53.5548 50.184 51.8252 51.3122C51.6174 50.6496 51.424 50.0581 51.2487 49.4612C51.1706 49.1951 51.1206 48.9199 51.0744 48.646C51.0152 48.2948 51.2343 48.0251 51.5886 48.0279M56.1443 50.7034C56.4152 50.5034 56.5782 50.5037 56.7486 50.7991C56.8559 50.9856 57.0018 51.1511 57.1623 51.3694C56.7361 51.6769 56.3558 51.9597 55.9672 52.2309C52.3081 54.7839 48.396 56.8319 44.0615 58.0312C40.2039 59.0986 36.2917 59.4137 32.3088 58.903C28.3494 58.3954 24.641 57.1383 21.0963 55.362C18.9165 54.2699 16.8568 52.987 14.8646 51.5931C14.6375 51.4345 14.5845 51.3197 14.7668 51.0794C15.2299 50.4698 15.2213 50.4567 15.8538 50.8978C19.1751 53.2119 22.7009 55.1374 26.5631 56.4315C30.178 57.6429 33.8891 58.195 37.7026 57.965C41.8054 57.7173 45.675 56.5973 49.3591 54.8211C51.7559 53.6657 54.0117 52.2823 56.1443 50.7034M10.8862 19.9326C9.81885 14.4991 9.49094 9.01386 9.74438 3.48986C9.76644 3.00614 9.80628 2.52333 9.82007 2.03961C9.82712 1.79957 9.90588 1.68 10.167 1.69665C10.3987 1.71118 10.6322 1.69907 10.8654 1.69907H35.9421C44.4602 1.69907 52.9787 1.69907 61.4968 1.69938C62.0199 1.69938 62.0276 1.69907 62.0705 2.22668C62.4109 6.44786 62.4054 10.6657 61.9644 14.8817C61.5412 18.9289 60.7114 22.8891 59.4264 26.7549C58.588 29.2764 57.5577 31.718 56.3518 34.0924C53.925 38.8699 50.8068 43.1595 47.0816 47.0235C43.7787 50.4492 40.0841 53.4099 36.0839 56.005C35.8394 56.1636 35.6702 56.1515 35.4306 55.9932C30.9938 53.0666 26.9808 49.6597 23.471 45.6871C19.7687 41.4965 16.7989 36.8458 14.5615 31.7404C12.8953 27.9382 11.6851 23.997 10.8862 19.9326M60.1628 40.1201C57.8283 41.6339 55.2878 42.6401 52.5447 43.1501C52.4987 43.1586 52.4503 43.151 52.4034 43.151C52.3749 43.1232 52.3467 43.0947 52.3182 43.0669C54.1453 40.6758 55.764 38.154 57.223 35.4409C57.535 35.872 57.793 36.221 58.0431 36.5758C58.7648 37.598 59.481 38.6241 60.2054 39.6442C60.3356 39.8271 60.3994 39.9666 60.1628 40.1201M62.1581 33.7697C63.2181 34.1281 63.4893 34.8773 63.3131 35.974C63.1238 37.1545 62.4232 38.1005 61.574 38.9329C61.5504 38.9559 61.5094 38.9607 61.4373 38.9895C61.2158 38.681 60.9893 38.3708 60.7681 38.0572C59.9777 36.9375 59.196 35.812 58.3952 34.6999C58.2095 34.4423 58.2067 34.2967 58.5107 34.1454C59.6808 33.5621 60.8784 33.3371 62.1581 33.7697M71.0177 43.0351C70.4283 42.404 69.6809 41.9087 68.9718 41.3966C66.6927 39.7496 65.3875 37.4963 64.7706 34.8255C64.5791 33.9958 64.1881 33.3532 63.4627 32.8979C62.5139 32.3028 61.4757 32.0828 60.3712 32.1948C59.8285 32.2498 59.294 32.3818 58.6796 32.4929C58.7501 32.318 58.7954 32.1951 58.8484 32.0752C59.9621 29.5655 60.8759 26.9874 61.5998 24.3418C62.9105 19.5491 63.5764 14.6683 63.6916 9.70886C63.7596 6.76358 63.6132 3.82737 63.3603 0.894493C63.3092 0.300592 63.4523 0.309976 62.7382 0.309976C49.1318 0.310279 35.5256 0.310279 21.9188 0.310279C17.604 0.309976 13.2891 0.313306 8.97427 0.302711C8.63165 0.301803 8.51122 0.385046 8.50325 0.74072C8.44441 3.36575 8.31141 5.99048 8.3062 8.6152C8.30038 11.5115 8.57802 14.3944 9.00706 17.2598C9.78054 22.4217 11.1605 27.4175 13.2545 32.2147C13.3035 32.3273 13.3296 32.4499 13.3709 32.5828C13.2793 32.591 13.241 32.604 13.2088 32.5952C13.0908 32.5637 12.9747 32.5256 12.8582 32.4884C11.66 32.1061 10.4498 32.0113 9.25007 32.4439C8.21212 32.8183 7.35313 33.3977 7.06047 34.5531C6.90326 35.1733 6.71081 35.7857 6.51223 36.3944C5.884 38.3193 4.72714 39.8803 3.1244 41.1244C2.44162 41.6548 1.71349 42.1318 1.05707 42.6918C-0.307865 43.8566 -0.35322 45.487 0.934186 46.7208C1.93598 47.6816 2.94574 48.6375 3.99656 49.5453C6.05163 51.3203 8.32459 52.7539 10.9074 53.6754C11.0508 53.7265 11.1878 53.7968 11.3986 53.8894C11.0394 54.3725 10.6999 54.7981 10.3953 55.2467C9.97391 55.8681 9.53906 56.4863 9.18265 57.1443C8.7671 57.912 8.89275 58.676 9.43241 59.3547C9.65735 59.6377 9.90588 59.9204 10.1973 60.1311C11.2546 60.8954 12.3158 61.6573 13.4102 62.3687C16.1541 64.1531 19.0691 65.6009 22.1817 66.6582C24.8804 67.5751 27.6452 68.2114 30.4713 68.5716C32.8377 68.8737 35.1974 69.197 37.6073 68.9778C42.1309 68.5665 46.5658 67.7955 50.8264 66.1851C54.7153 64.7149 58.2579 62.6441 61.5495 60.1465C63.0101 59.038 63.1835 57.9659 62.2072 56.4257C61.7919 55.7713 61.2918 55.1698 60.837 54.539C60.6862 54.3301 60.5572 54.1058 60.4187 53.89C60.5048 53.8301 60.5318 53.8037 60.5643 53.7901C60.6884 53.738 60.8125 53.686 60.9394 53.6409C62.5887 53.0579 64.1105 52.2345 65.5481 51.2528C67.4922 49.9252 69.209 48.3381 70.8721 46.6902C72.0023 45.5708 72.1053 44.1996 71.0177 43.0351" fill="#266C34"/>
</g>
<path fill-rule="evenodd" clip-rule="evenodd" d="M46.1268 15.4391C46.2635 15.7457 46.3649 16.0678 46.4817 16.3835C46.4587 16.4116 46.4357 16.4401 46.413 16.4682C46.1439 16.3054 45.8583 16.1643 45.6101 15.9748C45.2843 15.726 45.0012 15.6957 44.6668 15.9658C44.4257 16.161 44.1373 16.2996 43.8698 16.4634C43.8385 16.4437 43.8072 16.4237 43.7757 16.4038C43.8563 16.1904 43.9372 15.9776 44.0169 15.7642C44.2896 15.031 44.3 15.1927 43.7034 14.8131C43.4747 14.6678 43.2474 14.52 43.0197 14.3732C43.0301 14.3375 43.0402 14.3015 43.0506 14.2655C43.4594 14.2655 43.8691 14.2531 44.277 14.2703C44.5118 14.2803 44.6295 14.2001 44.7021 13.9785C44.81 13.648 44.9518 13.3283 45.079 13.0041C45.1124 12.9996 45.1461 12.995 45.1792 12.9905C45.304 13.3071 45.4425 13.6195 45.5485 13.9422C45.6294 14.1871 45.7621 14.2852 46.029 14.2706C46.4259 14.2488 46.8246 14.2652 47.223 14.2652L47.2536 14.386C46.9346 14.5821 46.6211 14.7882 46.2947 14.9711C46.0876 15.0873 46.025 15.2105 46.1268 15.4391M37.2743 9.73676C37.399 9.99526 37.4821 10.2731 37.5832 10.5425C37.5596 10.5713 37.536 10.5998 37.5124 10.6282C37.2642 10.4799 37.0006 10.3512 36.7723 10.1778C36.4889 9.96257 36.2462 9.94138 35.9562 10.1696C35.7316 10.347 35.4671 10.4757 35.2201 10.6255C35.1886 10.6049 35.1564 10.584 35.1248 10.5634C35.21 10.3358 35.2689 10.0936 35.3862 9.88357C35.5796 9.53758 35.4816 9.33719 35.1392 9.17464C34.8926 9.05749 34.6695 8.89131 34.4362 8.74723C34.4494 8.7106 34.4623 8.67397 34.4755 8.63765C34.8288 8.63765 35.1828 8.62191 35.5346 8.64279C35.7895 8.65823 35.9091 8.56046 35.9817 8.32677C36.0699 8.04072 36.195 7.76556 36.3969 7.47406C36.4925 7.70896 36.6197 7.93689 36.6758 8.18087C36.7637 8.56318 36.9755 8.68608 37.3577 8.64431C37.6525 8.61161 37.9537 8.63765 38.2525 8.63765C38.2617 8.67155 38.2709 8.70485 38.2804 8.73875C37.9984 8.91583 37.7214 9.1026 37.4318 9.26727C37.225 9.38471 37.1655 9.50973 37.2743 9.73676M29.2885 8.02831C28.9367 8.24837 28.591 8.48024 28.2248 8.67337C27.9603 8.81321 27.9297 8.96911 28.0397 9.22701C28.2327 9.68167 28.3964 10.1487 28.5726 10.6107C28.5456 10.6379 28.5187 10.6648 28.4917 10.6921C27.9971 10.39 27.4933 10.1003 27.0106 9.78004C26.7952 9.63687 26.6398 9.63838 26.4259 9.78035C25.9438 10.0994 25.4419 10.3897 24.9482 10.6915L24.8608 10.6261C25.0294 10.1799 25.1737 9.72314 25.3748 9.29179C25.5234 8.97334 25.4734 8.80565 25.1547 8.63674C24.6855 8.38792 24.2467 8.0834 23.7947 7.80219C23.8011 7.76435 23.8079 7.72591 23.8146 7.68777C24.0962 7.68777 24.3782 7.69443 24.6595 7.68626C25.0965 7.67354 25.6328 7.79644 25.9414 7.5906C26.2356 7.39475 26.2923 6.8511 26.4535 6.46062C26.5261 6.28444 26.5987 6.10827 26.7676 5.91787C26.9125 6.2905 27.0529 6.66524 27.2034 7.03575C27.5123 7.79583 27.3247 7.67506 28.1531 7.68686C28.6179 7.69382 29.0831 7.69413 29.5477 7.69897C29.5701 7.69927 29.5915 7.71804 29.674 7.75648C29.5296 7.8588 29.4132 7.95021 29.2885 8.02831M20.1479 7.0857C19.6288 7.40686 19.1142 7.73529 18.5856 8.04072C18.3723 8.16392 18.3359 8.285 18.4275 8.50779C18.6573 9.06839 18.8623 9.63838 19.0759 10.2053C19.1164 10.3134 19.1498 10.4245 19.2108 10.607C19.0566 10.5386 18.969 10.5102 18.8924 10.4635C18.277 10.0894 17.6583 9.71981 17.0531 9.32993C16.8523 9.20037 16.7095 9.18342 16.4984 9.32327C15.9391 9.69377 15.3593 10.0337 14.7859 10.3833C14.6676 10.4557 14.5432 10.5186 14.3523 10.5256C14.4317 10.3031 14.5074 10.0794 14.5907 9.85844C14.7617 9.405 14.9247 8.94822 15.1157 8.50295C15.214 8.2738 15.1527 8.15877 14.948 8.038C14.3492 7.68383 13.7611 7.31151 13.17 6.94464C13.082 6.88955 13.0002 6.82446 12.9359 6.68583C13.063 6.67796 13.1902 6.66343 13.3171 6.66282C14.0158 6.6607 14.7145 6.6495 15.4123 6.66767C15.712 6.67554 15.8717 6.59502 15.9691 6.29292C16.1466 5.74019 16.3764 5.2038 16.5872 4.66196C16.6292 4.5539 16.6853 4.45098 16.7809 4.24696C16.9219 4.60324 17.0264 4.86568 17.1297 5.12873C17.2182 5.35424 17.3053 5.58036 17.3929 5.80618C17.726 6.66252 17.726 6.66252 18.6383 6.66222C19.1777 6.66222 19.7164 6.6601 20.2558 6.66282C20.3698 6.66312 20.4841 6.67977 20.5981 6.68916C20.607 6.71852 20.6153 6.74818 20.6235 6.77785C20.4654 6.88077 20.3085 6.98611 20.1479 7.0857M43.2372 8.63765C43.5716 8.63765 43.9078 8.61888 44.2406 8.6434C44.5299 8.66489 44.6935 8.58104 44.7759 8.29166C44.8544 8.01711 44.9856 7.75769 45.1385 7.37992C45.2978 7.77525 45.4278 8.06645 45.5317 8.36612C45.6021 8.56924 45.7167 8.65097 45.9368 8.64189C46.307 8.62675 46.6781 8.63765 47.0489 8.63765C47.0566 8.67094 47.0645 8.70394 47.0725 8.73724C46.7875 8.91401 46.5083 9.10018 46.2166 9.26515C46.0122 9.38078 45.9451 9.50186 46.0551 9.73191C46.1832 9.9992 46.2674 10.2868 46.371 10.5656L46.2929 10.6343C46.0398 10.4802 45.7737 10.3437 45.5372 10.1678C45.2647 9.9653 45.0318 9.9435 44.752 10.1614C44.5188 10.3431 44.2461 10.4753 43.9911 10.6294C43.9669 10.6094 43.9427 10.5895 43.9182 10.5698C43.9841 10.3824 44.0524 10.1963 44.1155 10.008C44.3258 9.37896 44.4545 9.51215 43.8125 9.11622C43.6105 8.99181 43.4131 8.86074 43.2136 8.733C43.2216 8.70121 43.2293 8.66943 43.2372 8.63765M51.7621 6.75303C52.4483 6.7503 53.135 6.73668 53.8206 6.75908C54.1371 6.76937 54.3087 6.6825 54.4117 6.37041C54.5895 5.83009 54.8138 5.3049 55.0203 4.77457C55.0632 4.66469 55.1147 4.55814 55.1984 4.36744C55.2836 4.52999 55.339 4.61535 55.3752 4.70797C55.5784 5.22681 55.807 5.73898 55.9673 6.27052C56.0886 6.67342 56.3077 6.7836 56.7126 6.76181C57.3601 6.7273 58.011 6.75212 58.6607 6.75212H59.0198C59.0367 6.78996 59.0535 6.8281 59.0701 6.86593C58.3083 7.33936 57.547 7.81309 56.7619 8.30074C57.0592 9.08201 57.35 9.84603 57.6405 10.6101C57.612 10.6343 57.5829 10.6582 57.5541 10.6824C56.8799 10.2713 56.1962 9.87418 55.5358 9.44253C55.2906 9.2824 55.1199 9.29027 54.8818 9.44586C54.3106 9.8203 53.7191 10.1657 53.1347 10.5205C53.0452 10.5749 52.949 10.6185 52.7651 10.7142C52.831 10.5038 52.8626 10.3818 52.9073 10.265C53.1194 9.71042 53.3226 9.15194 53.5552 8.60586C53.6575 8.36431 53.6061 8.24686 53.3808 8.11761C52.8093 7.78917 52.2537 7.43289 51.6932 7.0857C51.5835 7.01789 51.4793 6.94131 51.3904 6.78148C51.5142 6.77149 51.638 6.75363 51.7621 6.75303M56.5805 15.1724C56.7349 15.5722 56.8829 15.9751 57.0334 16.3765C57.004 16.3989 56.9746 16.4213 56.9455 16.4437C56.4821 16.161 56.0059 15.8955 55.5597 15.5883C55.2885 15.4015 55.085 15.3876 54.8073 15.5813C54.3608 15.8931 53.8806 16.1571 53.3385 16.3947C53.3682 16.2902 53.3906 16.1831 53.4283 16.082C53.5684 15.7075 53.6983 15.3283 53.8616 14.9641C53.9732 14.7162 53.934 14.5773 53.6885 14.4389C53.2028 14.1653 52.736 13.8586 52.262 13.5656C52.2724 13.5226 52.2828 13.48 52.2932 13.437C52.8384 13.437 53.3857 13.411 53.9284 13.4458C54.3259 13.4715 54.5272 13.3431 54.6379 12.9605C54.7641 12.5265 54.9575 12.1111 55.1218 11.6877C55.157 11.6871 55.1919 11.6865 55.2272 11.6859C55.3936 12.1057 55.5916 12.5168 55.7172 12.9481C55.8318 13.3419 56.0292 13.4897 56.4484 13.4473C56.8728 13.4046 57.3052 13.4364 57.734 13.4394C57.8483 13.44 57.9626 13.4548 58.0769 13.4633C58.0861 13.4936 58.0953 13.5239 58.1042 13.5544C57.6871 13.8151 57.2697 14.0757 56.8526 14.336C56.3126 14.6732 56.3384 14.5458 56.5805 15.1724M60.0327 17.6742C60.2616 17.6745 60.4703 17.6942 60.5107 17.3769C60.6805 16.0448 60.907 14.7183 61.0341 13.3825C61.3507 10.0449 61.234 6.70611 60.9778 3.36973C60.9373 2.84031 60.9407 2.8397 60.3934 2.8397H35.9385H11.4836C11.3855 2.84 11.2868 2.84545 11.1894 2.8397C10.9963 2.8282 10.8995 2.89176 10.8937 3.10426C10.8848 3.44268 10.84 3.77959 10.8201 4.11801C10.5658 8.4866 10.7717 12.8292 11.5746 17.1381C11.6699 17.6485 11.6678 17.6491 12.1897 17.6494C24.0923 17.6548 35.9946 17.66 47.8972 17.6654C51.9426 17.6672 55.9878 17.6697 60.0327 17.6742" fill="#266C34"/>
<path fill-rule="evenodd" clip-rule="evenodd" d="M30.7347 32.3937C31.2146 32.3937 31.2128 32.3946 31.2131 32.868C31.2152 38.9947 31.2195 45.1214 31.2165 51.2481C31.2165 51.5226 31.2915 51.7191 31.5042 51.9095C32.5569 52.853 33.5936 53.8141 34.6371 54.7679C34.9935 55.0939 35.3536 55.416 35.7158 55.7432C35.8053 55.6687 35.8638 55.6261 35.9153 55.5761C37.1662 54.3632 38.4117 53.1448 39.6709 51.941C39.893 51.7288 39.9764 51.5129 39.9758 51.2096C39.9626 45.1317 39.9602 39.0534 39.9549 32.9752V32.3931C40.5418 32.3931 41.0784 32.3934 41.615 32.3931C46.0766 32.3922 50.5389 32.3904 55.0008 32.3919C55.2307 32.3922 55.4207 32.3916 55.5255 32.1198C56.0495 30.764 56.6296 29.4278 57.1126 28.0581C57.3997 27.2444 57.5435 26.3817 57.7693 25.4706C57.5183 25.4706 57.3633 25.4706 57.2082 25.4706C51.606 25.4779 46.0043 25.4818 40.4024 25.4988C40.0539 25.4997 39.9369 25.4113 39.9427 25.0547C39.9626 23.7594 39.9369 22.4633 39.9595 21.1683C39.9663 20.7915 39.8409 20.704 39.4775 20.7058C36.8668 20.7215 34.2555 20.7233 31.6449 20.7103C31.2909 20.7085 31.2162 20.8302 31.2192 21.148C31.2315 22.4191 31.2211 23.6907 31.2189 24.9621C31.218 25.4966 31.2177 25.4973 30.6802 25.4973C25.3605 25.4963 20.0405 25.4948 14.7201 25.4933C14.5412 25.4933 14.3622 25.4933 14.1511 25.4933C14.1719 25.6474 14.1805 25.7406 14.1979 25.832C14.6077 27.9891 15.4084 30.0142 16.3073 32.0093C16.4461 32.3177 16.6171 32.4025 16.9444 32.4019C21.5412 32.3907 26.1379 32.3937 30.7347 32.3937Z" fill="#266C34"/>
<path fill-rule="evenodd" clip-rule="evenodd" d="M28.56 59.8171C28.3418 60.6334 28.1352 61.4065 27.9213 62.2069C28.5731 62.3207 29.1808 62.5853 29.681 62.0568C30.053 61.6638 30.1924 61.1547 30.0064 60.6395C29.7738 59.996 29.1324 59.996 28.56 59.8171" fill="#266C34"/>
<path fill-rule="evenodd" clip-rule="evenodd" d="M45.3427 62.981C45.9243 62.7881 46.4272 62.6216 46.8446 62.4833C46.3812 62.0144 45.9219 61.5501 45.4699 61.0933C45.4306 61.673 45.389 62.2911 45.3427 62.981" fill="#266C34"/>
<path d="M88.2963 26.4113H89.7363V28.6793L87.8643 30.6593H83.3283L81.4563 28.6793V19.1393L83.3283 17.1593H87.8643L89.7363 19.1393V21.4073H88.2963V19.8773L87.1623 18.7073H84.0483L83.1123 19.6613V28.1573L84.0303 29.1113H87.1443L88.2963 27.9413V26.4113ZM94.3192 17.1593H99.1252V18.5993H98.2972L101.465 29.2193H102.365V30.6593H98.5492V29.2193H99.8092L98.9812 26.4473H94.4632L93.6352 29.2193H94.8952V30.6593H91.0792V29.2193H91.9792L95.1472 18.5993H94.3192V17.1593ZM96.7132 18.8693L94.8952 25.0073H98.5492L96.7132 18.8693ZM104.079 17.1593H107.751L111.153 27.1673L114.555 17.1593H118.227V18.5993H116.967V29.2193H118.227V30.6593H114.051V29.2193H115.311V19.5533L111.945 29.2193H110.361L106.995 19.5533V29.2193H108.255V30.6593H104.079V29.2193H105.339V18.5993H104.079V17.1593ZM121.113 17.1593H128.313L130.185 19.1393V23.2793L128.313 25.2593H124.029V29.2193H125.469V30.6593H121.113V29.2193H122.373V18.5993H121.113V17.1593ZM124.029 18.7073V23.7113H127.593L128.637 22.6493V19.7693L127.611 18.7073H124.029ZM138.969 17.1593H142.965V18.5993H141.885V28.6793L140.013 30.6593H135.117L133.245 28.6793V18.5993H132.165V17.1593H136.161V18.5993H134.901V28.1573L135.819 29.1113H139.293L140.229 28.1573V18.5993H138.969V17.1593ZM153.589 21.4073H152.095V19.8233L151.015 18.7073H148.261L147.325 19.6613V22.1453L148.207 23.0453H151.951L153.769 24.9533V28.6793L151.897 30.6593H147.361L145.489 28.6793V26.4113H146.983V27.9953L148.081 29.1113H151.195L152.113 28.1573V25.4753L151.249 24.5933H147.505L145.669 22.6673V19.1393L147.541 17.1593H151.717L153.589 19.1393V21.4073ZM88.0803 38.1593H92.0763V39.5993H90.9963V49.6793L89.1243 51.6593H84.2283L82.3563 49.6793V39.5993H81.2763V38.1593H85.2723V39.5993H84.0123V49.1573L84.9303 50.1113H88.4043L89.3403 49.1573V39.5993H88.0803V38.1593ZM94.7805 38.1593H101.98L103.852 40.1393V44.0993L101.98 46.0793L103.906 50.2193H104.842V51.6593H101.458V50.2193H102.16L100.234 46.0793H97.6965V50.2193H98.7765V51.6593H94.7805V50.2193H96.0405V39.5993H94.7805V38.1593ZM97.6965 39.7073V44.5313H101.26L102.304 43.4693V40.7693L101.278 39.7073H97.6965ZM115.286 42.4073H113.792V40.8233L112.712 39.7073H109.958L109.022 40.6613V43.1453L109.904 44.0453H113.648L115.466 45.9533V49.6793L113.594 51.6593H109.058L107.186 49.6793V47.4113H108.68V48.9953L109.778 50.1113H112.892L113.81 49.1573V46.4753L112.946 45.5933H109.202L107.366 43.6673V40.1393L109.238 38.1593H113.414L115.286 40.1393V42.4073ZM124.783 38.1593H128.779V39.5993H127.699V49.6793L125.827 51.6593H120.931L119.059 49.6793V39.5993H117.979V38.1593H121.975V39.5993H120.715V49.1573L121.633 50.1113H125.107L126.043 49.1573V39.5993H124.783V38.1593ZM131.484 38.1593H135.84V39.5993H134.4V50.2193H138.324V48.1313H139.692V51.6593H131.484V50.2193H132.744V39.5993H131.484V38.1593ZM141.306 50.2193H142.746V39.5993H141.306V38.1593H145.842V39.5993H144.402V50.2193H145.842V51.6593H141.306V50.2193ZM151.45 50.2193H152.71V51.6593H148.534V50.2193H149.794V39.5993H148.534V38.1593H152.278L157.534 49.6253V39.5993H156.274V38.1593H160.45V39.5993H159.19V51.6593H156.706L151.45 40.2113V50.2193ZM163.142 38.1593H171.71V41.6873H170.27V39.5993H166.058V44.1893H170.27V45.6293H166.058V50.2193H170.27V48.1313H171.71V51.6593H163.142V50.2193H164.402V39.5993H163.142V38.1593ZM188.798 42.4073H187.304V40.8233L186.224 39.7073H183.47L182.534 40.6613V43.1453L183.416 44.0453H187.16L188.978 45.9533V49.6793L187.106 51.6593H182.57L180.698 49.6793V47.4113H182.192V48.9953L183.29 50.1113H186.404L187.322 49.1573V46.4753L186.458 45.5933H182.714L180.878 43.6673V40.1393L182.75 38.1593H186.926L188.798 40.1393V42.4073ZM198.295 38.1593H202.291V39.5993H201.211V49.6793L199.339 51.6593H194.443L192.571 49.6793V39.5993H191.491V38.1593H195.487V39.5993H194.227V49.1573L195.145 50.1113H198.619L199.555 49.1573V39.5993H198.295V38.1593ZM204.995 38.1593H212.195L214.067 40.1393V44.0993L212.195 46.0793L214.121 50.2193H215.057V51.6593H211.673V50.2193H212.375L210.449 46.0793H207.911V50.2193H208.991V51.6593H204.995V50.2193H206.255V39.5993H204.995V38.1593ZM207.911 39.7073V44.5313H211.475L212.519 43.4693V40.7693L211.493 39.7073H207.911ZM219.651 38.1593H224.457V39.5993H223.629L226.797 50.2193H227.697V51.6593H223.881V50.2193H225.141L224.313 47.4473H219.795L218.967 50.2193H220.227V51.6593H216.411V50.2193H217.311L220.479 39.5993H219.651V38.1593ZM222.045 39.8693L220.227 46.0073H223.881L222.045 39.8693ZM229.411 38.1593H236.611L238.483 40.1393V43.3793L237.511 44.4053L238.843 45.7913V49.6793L236.971 51.6593H229.411V50.2193H230.671V39.5993H229.411V38.1593ZM232.327 45.2513V50.1113H236.251L237.295 49.0493V46.4213L236.161 45.2513H232.327ZM232.327 39.7073V43.8113H235.891L236.935 42.7493V40.7693L235.909 39.7073H232.327ZM243.786 38.1593H248.592V39.5993H247.764L250.932 50.2193H251.832V51.6593H248.016V50.2193H249.276L248.448 47.4473H243.93L243.102 50.2193H244.362V51.6593H240.546V50.2193H241.446L244.614 39.5993H243.786V38.1593ZM246.18 39.8693L244.362 46.0073H248.016L246.18 39.8693ZM258.954 51.6593H254.058V50.2193H255.678V47.4473L252.294 39.5993H251.394V38.1593H255.21V39.5993H253.878L256.488 45.6653L259.098 39.5993H257.784V38.1593H261.6V39.5993H260.682L257.334 47.3933V50.2193H258.954V51.6593ZM264.405 38.1593H269.211V39.5993H268.383L271.551 50.2193H272.451V51.6593H268.635V50.2193H269.895L269.067 47.4473H264.549L263.721 50.2193H264.981V51.6593H261.165V50.2193H262.065L265.233 39.5993H264.405V38.1593ZM266.799 39.8693L264.981 46.0073H268.635L266.799 39.8693Z" fill="#266C34"/>
</svg>
