<svg width="101" height="101" viewBox="0 0 101 101" fill="none" xmlns="http://www.w3.org/2000/svg">
<path d="M48.7472 45.1389C47.3595 46.2891 45.3011 46.1122 44.1295 44.7352C44.1283 44.7337 44.1283 44.7337 44.1269 44.7323C42.9466 43.3423 43.1172 41.2585 44.5073 40.0781L46.686 38.2266C45.2974 39.4056 43.2149 39.2365 42.0344 37.8492C42.0332 37.8477 42.0332 37.8477 42.0319 37.8463C40.8515 36.4563 41.0222 34.3725 42.4122 33.1921L59.9128 18.3333C61.5359 16.9573 63.3289 15.8079 65.2397 14.9145C67.1504 14.021 69.1806 13.3791 71.2768 13.0167L79.2614 6.17876L95.2607 24.9805L87.4739 31.5965L86.1092 36.6195C85.2986 39.6065 83.6018 42.2772 81.2419 44.28L72.4186 51.7727C70.9111 53.053 68.6526 52.8696 67.3722 51.3649C67.3697 51.362 67.3685 51.3604 67.3671 51.3591C66.0869 49.8516 66.2687 47.5945 67.7734 46.314L56.4792 55.9019C55.0905 57.0809 53.0093 56.9133 51.8301 55.5274C51.8276 55.5245 51.8264 55.5229 51.825 55.5215C50.646 54.1329 50.8136 52.0516 52.2009 50.8711L49.9658 52.7678C48.5771 53.9468 46.4945 53.7804 45.3139 52.3931C45.3128 52.3916 45.3128 52.3916 45.3114 52.3902C44.131 51.0002 44.3003 48.9149 45.6905 47.7345L48.7472 45.1389Z" fill="#FFF3E0"/>
<path d="M82.3961 9.86242L79.2614 6.17876L71.2768 13.0167C69.1806 13.3793 67.1504 14.021 65.2397 14.9145C63.3289 15.8079 61.5359 16.9573 59.9128 18.3333L42.4122 33.1921C41.0222 34.3725 40.8515 36.4563 42.0319 37.8463C42.033 37.8478 42.033 37.8478 42.0344 37.8492C42.6605 38.5849 43.5405 38.9744 44.4359 39.0054C44.5248 38.1962 44.9085 37.4176 45.578 36.8491L63.0787 21.9902C64.7018 20.6142 66.4947 19.4649 68.4055 18.5714C70.0177 17.8176 71.7149 17.2428 73.465 16.864C74.1173 16.7228 74.7274 16.4299 75.2343 15.9957L75.3174 15.9245C76.5142 14.8996 78.3093 15.0129 79.3677 16.1802L89.8525 27.7444C90.1747 28.0997 90.5461 28.4003 90.9508 28.6423L95.2609 24.9803L82.3961 9.86242Z" fill="#FFE6C6"/>
<path d="M48.857 51.3901L51.9135 48.7944C50.5258 49.9445 48.4674 49.7676 47.2958 48.3906C47.2946 48.3891 47.2946 48.3891 47.2932 48.3877C46.934 47.9647 46.7017 47.4771 46.589 46.9706L45.6912 47.733C44.3012 48.9133 44.1319 50.9985 45.3121 52.3887C45.3134 52.3903 45.3134 52.3903 45.3146 52.3916C45.9405 53.1271 46.8203 53.5158 47.7155 53.5462C47.8044 52.737 48.1877 51.9586 48.857 51.3901Z" fill="#FFE6C6"/>
<path d="M55.3663 54.5267L53.1312 56.4235C53.1226 56.4309 53.1133 56.4367 53.1045 56.4439C53.4638 56.5889 53.8441 56.6669 54.2279 56.6801C54.3166 55.8721 54.6985 55.0949 55.3663 54.5267Z" fill="#FFE6C6"/>
<path d="M47.6733 43.7339L49.8521 41.8824C48.4634 43.0614 46.381 42.8923 45.2005 41.505C45.1993 41.5035 45.1993 41.5035 45.1979 41.5021C44.8397 41.0802 44.6078 40.594 44.4948 40.0889C43.1171 41.2712 42.9507 43.3454 44.1274 44.7311C44.1286 44.7327 44.1286 44.7327 44.1299 44.7341C44.7562 45.4701 45.6362 45.8596 46.5314 45.8904C46.6202 45.081 47.0038 44.3024 47.6733 43.7339Z" fill="#FFE6C6"/>
<path d="M47.4332 49.9808C48.7101 51.2528 48.7298 53.3186 47.4707 54.616C47.4693 54.6174 47.4693 54.6174 47.4679 54.6188C46.1965 55.9259 44.1059 55.9544 42.7988 54.6829L40.7484 52.69C42.0541 53.9601 42.084 56.0494 40.8153 57.3565C40.8139 57.3578 40.8139 57.3578 40.8125 57.3592C39.5411 58.6663 37.4505 58.6948 36.1433 57.4234L19.6871 41.4155C18.1629 39.9307 16.8484 38.2552 15.7772 36.4382C14.7061 34.6212 13.8741 32.6611 13.3137 30.6089L5.74707 23.3111L22.9417 5.59587L30.2684 12.718L35.3987 13.5988C38.4491 14.1215 41.2691 15.5568 43.4874 17.7153L51.7855 25.7857C53.2032 27.1646 53.2356 29.4301 51.8596 30.8479C51.8569 30.8506 51.8555 30.8522 51.8541 30.8535C50.4752 32.2712 48.211 32.305 46.7933 30.929L57.4119 41.2599C58.7177 42.53 58.7489 44.6179 57.4815 45.9236C57.4788 45.9264 57.4774 45.9279 57.4761 45.9293C56.206 47.2351 54.1181 47.2663 52.811 45.9975L54.9117 48.0419C56.2175 49.312 56.2501 51.4012 54.9813 52.7084C54.98 52.7097 54.98 52.7097 54.9786 52.7111C53.7072 54.0182 51.6152 54.0481 50.3081 52.7766L47.4332 49.9808Z" fill="#F8D3AA"/>
<path d="M39.0338 54.7231L22.5776 38.7153C21.0534 37.2304 19.7388 35.5549 18.6677 33.7379C17.8323 32.3208 17.1423 30.8169 16.6134 29.2499C16.3044 28.335 15.7858 27.5051 15.0909 26.8348L15.0273 26.7735C14.0498 25.8307 14.0223 24.274 14.9659 23.2972L27.2555 10.5761C27.3885 10.4384 27.5106 10.2941 27.624 10.1455L23.0814 5.72967L22.9437 5.59587L5.74902 23.3111L13.3157 30.6089C13.8758 32.6613 14.7078 34.6212 15.7792 36.4382C16.8503 38.2554 18.1651 39.9307 19.6891 41.4155L36.1453 57.4234C37.4524 58.6948 39.543 58.6665 40.8145 57.3592L40.8172 57.3565C41.2935 56.8658 41.5866 56.2649 41.6982 55.6386C40.7525 55.7424 39.7693 55.4385 39.0338 54.7231Z" fill="#FABF8E"/>
<path d="M52.6425 50.5209C54.6033 50.5209 56.1928 48.9314 56.1928 46.9706C56.1928 45.0099 54.6033 43.4204 52.6425 43.4204C50.6818 43.4204 49.0923 45.0099 49.0923 46.9706C49.0923 48.9314 50.6818 50.5209 52.6425 50.5209Z" fill="#F8D3AA"/>
<path d="M53.5444 48.7353C53.5678 46.9331 55.0364 45.4801 56.8444 45.4801H56.8483C58.6719 45.482 60.1484 46.9624 60.1464 48.786L60.1445 51.6452C60.1464 49.8236 61.6248 48.3471 63.4464 48.3471H63.4503C65.2739 48.3491 66.7504 49.8294 66.7484 51.653L66.723 74.6108C66.7191 76.7386 66.4324 78.8489 65.8746 80.8832C65.3168 82.9174 64.4899 84.8795 63.4074 86.7108L63.4406 97.2233H38.7528L38.7606 87.0053L35.8195 82.7106C34.07 80.1576 33.1358 77.1345 33.1397 74.0393L33.1514 62.4639C33.1533 60.4862 34.7565 58.885 36.7322 58.885H36.74C38.7177 58.8869 40.319 60.4882 40.319 62.4639L40.3365 47.6489C40.3385 45.8273 41.8149 44.3508 43.6346 44.3508H43.6424C45.464 44.3528 46.9405 45.8292 46.9405 47.6509L46.9444 44.7195C46.9463 42.8978 48.4227 41.4194 50.2444 41.4194H50.2483C52.0719 41.4214 53.5503 42.9017 53.5483 44.7253L53.5444 48.7353Z" fill="#FFE0D1"/>
<path d="M49.9766 44.7195C49.978 43.4445 50.7018 42.3353 51.7606 41.7859C51.3072 41.5509 50.7946 41.42 50.2487 41.4194C50.2467 41.4194 50.2467 41.4194 50.2448 41.4194C48.4232 41.4194 46.9467 42.8978 46.9448 44.7195L46.9233 61.832C48.5983 61.832 49.9567 60.4753 49.9589 58.8002L49.9766 44.7195Z" fill="#FFD1C2"/>
<path d="M56.4008 48.7774C56.4008 48.7637 56.4008 48.7481 56.4027 48.7344C56.4195 47.4433 57.18 46.3302 58.2737 45.8036C57.8419 45.5957 57.36 45.4799 56.8488 45.4793C56.8468 45.4793 56.8468 45.4793 56.8449 45.4793C55.0369 45.4793 53.5683 46.9323 53.5449 48.7344C53.5429 48.7481 53.5429 48.7637 53.5429 48.7774L53.5273 62.4709C55.1061 62.4709 56.3866 61.1918 56.3885 59.613L56.4008 48.7774Z" fill="#FFD1C2"/>
<path d="M63.0966 51.645C63.098 50.3546 63.8413 49.2361 64.9214 48.6943C64.4777 48.4718 63.9795 48.3475 63.4494 48.3469C63.4475 48.3469 63.4475 48.3469 63.4455 48.3469C61.6239 48.3469 60.1455 49.8234 60.1436 51.645L60.1455 62.9689C60.1545 62.9689 60.1635 62.9689 60.1724 62.9687C61.7901 62.962 63.0984 61.6487 63.0982 60.031L63.0966 51.645Z" fill="#FFD1C2"/>
<path d="M43.3405 47.6492C43.3418 46.3682 44.0716 45.2561 45.1379 44.71C44.6884 44.4801 44.1824 44.3518 43.6428 44.3512C43.6408 44.3512 43.6389 44.3512 43.635 44.3512C41.8153 44.3512 40.3388 45.8276 40.3369 47.6492L40.3193 62.4642V62.472L40.3154 67.5215C41.9746 67.5215 43.32 66.1771 43.3213 64.518L43.3405 47.6492Z" fill="#FFD1C2"/>
<path d="M63.4229 91.5009C63.2202 91.4746 45.0867 91.4397 45.0867 91.4397C43.9636 91.4385 43.054 90.5271 43.0548 89.4041L43.0555 88.4068C43.0567 86.8358 42.5824 85.3013 41.6946 84.005L40.1161 81.7003C38.3667 79.1473 37.4324 76.1242 37.4363 73.029L37.448 61.4535C37.4488 60.6067 37.7451 59.83 38.2366 59.2174C37.7808 59.007 37.2752 58.8861 36.74 58.8857C36.7381 58.8857 36.7361 58.8857 36.7322 58.8857C34.7565 58.8857 33.1533 60.4869 33.1514 62.4646L33.1397 74.04C33.1358 77.1353 34.07 80.1583 35.8195 82.7114L38.7606 87.0061L38.7528 97.224H41.5885H63.4406L63.4229 91.5009Z" fill="#FFD1C2"/>
<path d="M64.092 98.8135C64.4277 98.8139 64.7001 98.5424 64.7009 98.2068L64.7058 96.2933C64.707 95.2403 63.8542 94.3856 62.8012 94.3844L39.3502 94.3583C38.2972 94.3571 37.4426 95.2098 37.4414 96.2628L37.4365 98.1746C37.4357 98.5108 37.7078 98.7841 38.0441 98.7845L64.092 98.8135Z" fill="#E17983"/>
<path d="M21.4972 2.36293L25.1036 5.84726C25.861 6.57904 25.8818 7.78612 25.1501 8.54345L8.85608 25.4093C8.1243 26.1666 6.91721 26.1875 6.15989 25.4557L2.55346 21.9711C2.22716 21.6558 2.21819 21.1356 2.53337 20.8093L20.3352 2.38282C20.6506 2.05652 21.1709 2.04755 21.4972 2.36293Z" fill="#B8DE9C"/>
<path d="M98.2862 22.6718L94.7141 25.9106C93.934 26.618 92.728 26.5589 92.0208 25.7787L76.2691 8.40547C75.5617 7.62533 75.6208 6.41941 76.4009 5.71221L79.973 2.47343C80.3883 2.09701 81.0299 2.12842 81.4064 2.54365L98.3566 21.2387C98.7328 21.6537 98.7014 22.2954 98.2862 22.6718Z" fill="#FBE372"/>
<path d="M38.7532 43.6935C38.4865 43.6935 38.2465 43.6455 38.0332 43.5495C37.8198 43.4535 37.6492 43.3015 37.5212 43.0935C37.3985 42.8801 37.3372 42.6055 37.3372 42.2695V39.6135H38.4332V42.0055C38.4332 42.3148 38.4972 42.5308 38.6252 42.6535C38.7532 42.7708 38.9372 42.8295 39.1772 42.8295C39.2892 42.8295 39.3985 42.8108 39.5052 42.7735C39.6118 42.7308 39.7052 42.6668 39.7852 42.5815C39.8705 42.4961 39.9372 42.3868 39.9852 42.2535C40.0332 42.1148 40.0572 41.9521 40.0572 41.7655V39.6135H41.1532V43.6135H40.1772L40.1372 42.9175C40.0038 43.1841 39.8198 43.3815 39.5852 43.5095C39.3558 43.6321 39.0785 43.6935 38.7532 43.6935ZM42.3065 43.6135V39.6135H43.2905L43.3545 40.8135L43.2185 40.6855C43.2825 40.4241 43.3838 40.2108 43.5225 40.0455C43.6611 39.8748 43.8291 39.7468 44.0265 39.6615C44.2291 39.5761 44.4505 39.5335 44.6905 39.5335C44.9678 39.5335 45.2131 39.5868 45.4265 39.6935C45.6451 39.8001 45.8158 39.9628 45.9385 40.1815C46.0665 40.3948 46.1305 40.6641 46.1305 40.9895V43.6135H45.0345V41.3015C45.0345 40.9601 44.9678 40.7255 44.8345 40.5975C44.7011 40.4641 44.5278 40.3975 44.3145 40.3975C44.1651 40.3975 44.0185 40.4348 43.8745 40.5095C43.7358 40.5788 43.6211 40.6935 43.5305 40.8535C43.4451 41.0135 43.4025 41.2268 43.4025 41.4935V43.6135H42.3065ZM47.8116 39.0375C47.5823 39.0375 47.4116 38.9895 47.2996 38.8935C47.1876 38.7921 47.1316 38.6455 47.1316 38.4535C47.1316 38.2561 47.1876 38.1095 47.2996 38.0135C47.4116 37.9121 47.5823 37.8615 47.8116 37.8615C48.0409 37.8615 48.2116 37.9121 48.3236 38.0135C48.4356 38.1095 48.4916 38.2561 48.4916 38.4535C48.4916 38.6455 48.4356 38.7921 48.3236 38.8935C48.2116 38.9895 48.0409 39.0375 47.8116 39.0375ZM48.3556 39.6135V43.6135H47.2596V39.6135H48.3556ZM50.9334 38.3895V42.3095C50.9334 42.5015 50.9814 42.6428 51.0774 42.7335C51.1787 42.8188 51.3147 42.8615 51.4854 42.8615C51.6241 42.8615 51.7414 42.8428 51.8374 42.8055C51.9387 42.7628 52.0294 42.7068 52.1094 42.6375L52.2854 43.3655C52.1574 43.4668 51.9974 43.5468 51.8054 43.6055C51.6134 43.6641 51.4107 43.6935 51.1974 43.6935C50.9307 43.6935 50.6934 43.6535 50.4854 43.5735C50.2827 43.4935 50.1227 43.3655 50.0054 43.1895C49.8934 43.0135 49.8374 42.7788 49.8374 42.4855V38.6935L50.9334 38.3895ZM52.2134 39.6135V40.4295H49.1014V39.6135H52.2134ZM56.7149 39.6135L55.0989 43.8615C54.9709 44.2241 54.8269 44.5121 54.6669 44.7255C54.5122 44.9388 54.3309 45.0935 54.1229 45.1895C53.9202 45.2855 53.6776 45.3335 53.3949 45.3335C53.1869 45.3335 52.9949 45.3068 52.8189 45.2535C52.6482 45.2055 52.4989 45.1415 52.3709 45.0615L52.6029 44.2695C52.7042 44.3495 52.8109 44.4055 52.9229 44.4375C53.0349 44.4748 53.1629 44.4935 53.3069 44.4935C53.4562 44.4935 53.5842 44.4615 53.6909 44.3975C53.8029 44.3335 53.8962 44.2055 53.9709 44.0135L54.1069 43.6695L53.6669 42.6295L52.4429 39.6135H53.6589L54.4189 42.0135L54.6269 42.8135L54.8749 41.9655L55.6029 39.6135H56.7149ZM60.1319 39.0375C59.9026 39.0375 59.7319 38.9895 59.6199 38.8935C59.5079 38.7921 59.4519 38.6455 59.4519 38.4535C59.4519 38.2561 59.5079 38.1095 59.6199 38.0135C59.7319 37.9121 59.9026 37.8615 60.1319 37.8615C60.3612 37.8615 60.5319 37.9121 60.6439 38.0135C60.7559 38.1095 60.8119 38.2561 60.8119 38.4535C60.8119 38.6455 60.7559 38.7921 60.6439 38.8935C60.5319 38.9895 60.3612 39.0375 60.1319 39.0375ZM60.6759 39.6135V43.6135H59.5799V39.6135H60.6759ZM61.8377 43.6135V39.6135H62.8217L62.8857 40.8135L62.7497 40.6855C62.8137 40.4241 62.9151 40.2108 63.0537 40.0455C63.1924 39.8748 63.3604 39.7468 63.5577 39.6615C63.7604 39.5761 63.9817 39.5335 64.2217 39.5335C64.4991 39.5335 64.7444 39.5868 64.9577 39.6935C65.1764 39.8001 65.3471 39.9628 65.4697 40.1815C65.5977 40.3948 65.6617 40.6641 65.6617 40.9895V43.6135H64.5657V41.3015C64.5657 40.9601 64.4991 40.7255 64.3657 40.5975C64.2324 40.4641 64.0591 40.3975 63.8457 40.3975C63.6964 40.3975 63.5497 40.4348 63.4057 40.5095C63.2671 40.5788 63.1524 40.6935 63.0617 40.8535C62.9764 41.0135 62.9337 41.2268 62.9337 41.4935V43.6135H61.8377ZM36.6818 52.6935C36.3511 52.6935 36.0551 52.6108 35.7938 52.4455C35.5378 52.2801 35.3351 52.0428 35.1858 51.7335C35.0418 51.4241 34.9698 51.0535 34.9698 50.6215C34.9698 50.1788 35.0471 49.8028 35.2018 49.4935C35.3564 49.1788 35.5644 48.9415 35.8258 48.7815C36.0924 48.6161 36.3911 48.5335 36.7218 48.5335C37.0738 48.5335 37.3644 48.6348 37.5938 48.8375C37.8231 49.0401 37.9724 49.3015 38.0418 49.6215L37.9378 49.7495V46.8615H39.0338V52.6135H38.0498L37.9778 51.3975L38.1058 51.4615C38.0738 51.7121 37.9911 51.9308 37.8578 52.1175C37.7244 52.2988 37.5564 52.4401 37.3538 52.5415C37.1511 52.6428 36.9271 52.6935 36.6818 52.6935ZM37.0018 51.8535C37.1938 51.8535 37.3591 51.8055 37.4978 51.7095C37.6364 51.6081 37.7431 51.4615 37.8178 51.2695C37.8978 51.0775 37.9378 50.8481 37.9378 50.5815C37.9378 50.3255 37.9004 50.1095 37.8258 49.9335C37.7511 49.7521 37.6444 49.6135 37.5058 49.5175C37.3671 49.4215 37.2044 49.3735 37.0178 49.3735C36.7191 49.3735 36.4844 49.4801 36.3138 49.6935C36.1484 49.9015 36.0658 50.2081 36.0658 50.6135C36.0658 51.0188 36.1484 51.3281 36.3138 51.5415C36.4791 51.7495 36.7084 51.8535 37.0018 51.8535ZM40.7374 48.0375C40.508 48.0375 40.3374 47.9895 40.2254 47.8935C40.1134 47.7921 40.0574 47.6455 40.0574 47.4535C40.0574 47.2561 40.1134 47.1095 40.2254 47.0135C40.3374 46.9121 40.508 46.8615 40.7374 46.8615C40.9667 46.8615 41.1374 46.9121 41.2494 47.0135C41.3614 47.1095 41.4174 47.2561 41.4174 47.4535C41.4174 47.6455 41.3614 47.7921 41.2494 47.8935C41.1374 47.9895 40.9667 48.0375 40.7374 48.0375ZM41.2814 48.6135V52.6135H40.1854V48.6135H41.2814ZM45.0672 48.6135H46.2032L44.6832 52.6135H43.4192L41.8992 48.6135H43.0752L44.0592 51.7735L45.0672 48.6135ZM48.6195 52.6935C48.1982 52.6935 47.8302 52.6108 47.5155 52.4455C47.2062 52.2801 46.9662 52.0428 46.7955 51.7335C46.6248 51.4241 46.5395 51.0508 46.5395 50.6135C46.5395 50.1761 46.6248 49.8028 46.7955 49.4935C46.9662 49.1841 47.2035 48.9468 47.5075 48.7815C47.8168 48.6161 48.1688 48.5335 48.5635 48.5335C48.9688 48.5335 49.3128 48.6161 49.5955 48.7815C49.8782 48.9415 50.0942 49.1628 50.2435 49.4455C50.3928 49.7228 50.4675 50.0401 50.4675 50.3975C50.4675 50.5041 50.4648 50.6055 50.4595 50.7015C50.4542 50.7975 50.4462 50.8828 50.4355 50.9575H47.2435V50.1975H49.9555L49.4275 50.3895C49.4275 50.0535 49.3502 49.7948 49.1955 49.6135C49.0462 49.4321 48.8328 49.3415 48.5555 49.3415C48.3528 49.3415 48.1768 49.3895 48.0275 49.4855C47.8835 49.5815 47.7742 49.7255 47.6995 49.9175C47.6248 50.1041 47.5875 50.3415 47.5875 50.6295C47.5875 50.9121 47.6275 51.1468 47.7075 51.3335C47.7928 51.5148 47.9102 51.6508 48.0595 51.7415C48.2142 51.8321 48.3982 51.8775 48.6115 51.8775C48.8462 51.8775 49.0355 51.8321 49.1795 51.7415C49.3235 51.6508 49.4355 51.5255 49.5155 51.3655L50.3875 51.7015C50.3022 51.9095 50.1715 52.0881 49.9955 52.2375C49.8248 52.3868 49.6195 52.5015 49.3795 52.5815C49.1448 52.6561 48.8915 52.6935 48.6195 52.6935ZM51.3963 52.6135V48.6135H52.3483L52.4203 49.3975C52.527 49.1201 52.6816 48.9068 52.8843 48.7575C53.0923 48.6081 53.351 48.5335 53.6603 48.5335C53.751 48.5335 53.8336 48.5415 53.9083 48.5575C53.983 48.5735 54.0443 48.5948 54.0923 48.6215L53.9643 49.5415C53.911 49.5201 53.8443 49.5041 53.7643 49.4935C53.6896 49.4828 53.591 49.4775 53.4683 49.4775C53.3083 49.4775 53.1536 49.5175 53.0043 49.5975C52.855 49.6721 52.7323 49.7895 52.6363 49.9495C52.5403 50.1041 52.4923 50.3015 52.4923 50.5415V52.6135H51.3963ZM56.2698 52.6935C55.8644 52.6935 55.4938 52.6215 55.1578 52.4775C54.8271 52.3335 54.5578 52.1308 54.3498 51.8695L54.9818 51.2295C55.1098 51.4215 55.2804 51.5788 55.4938 51.7015C55.7071 51.8241 55.9604 51.8855 56.2538 51.8855C56.4618 51.8855 56.6271 51.8561 56.7498 51.7975C56.8778 51.7335 56.9418 51.6348 56.9418 51.5015C56.9418 51.4161 56.9124 51.3441 56.8538 51.2855C56.7951 51.2215 56.6778 51.1708 56.5018 51.1335L55.7978 50.9895C55.3338 50.8935 55.0031 50.7495 54.8058 50.5575C54.6138 50.3601 54.5178 50.1068 54.5178 49.7975C54.5178 49.5788 54.5818 49.3735 54.7098 49.1815C54.8431 48.9895 55.0404 48.8348 55.3018 48.7175C55.5631 48.5948 55.8884 48.5335 56.2778 48.5335C56.6778 48.5335 57.0244 48.5975 57.3178 48.7255C57.6164 48.8481 57.8511 49.0321 58.0218 49.2775L57.3658 49.9175C57.2484 49.7308 57.0938 49.5895 56.9018 49.4935C56.7151 49.3921 56.5178 49.3415 56.3098 49.3415C56.1604 49.3415 56.0324 49.3575 55.9258 49.3895C55.8191 49.4215 55.7391 49.4668 55.6858 49.5255C55.6324 49.5788 55.6058 49.6481 55.6058 49.7335C55.6058 49.8188 55.6431 49.8935 55.7178 49.9575C55.7924 50.0161 55.9284 50.0668 56.1258 50.1095L56.9418 50.2775C57.3364 50.3575 57.6191 50.4935 57.7898 50.6855C57.9604 50.8721 58.0458 51.0988 58.0458 51.3655C58.0458 51.6215 57.9764 51.8508 57.8378 52.0535C57.7044 52.2508 57.5044 52.4081 57.2378 52.5255C56.9764 52.6375 56.6538 52.6935 56.2698 52.6935ZM59.4718 48.0375C59.2424 48.0375 59.0718 47.9895 58.9598 47.8935C58.8478 47.7921 58.7918 47.6455 58.7918 47.4535C58.7918 47.2561 58.8478 47.1095 58.9598 47.0135C59.0718 46.9121 59.2424 46.8615 59.4718 46.8615C59.7011 46.8615 59.8718 46.9121 59.9838 47.0135C60.0958 47.1095 60.1518 47.2561 60.1518 47.4535C60.1518 47.6455 60.0958 47.7921 59.9838 47.8935C59.8718 47.9895 59.7011 48.0375 59.4718 48.0375ZM60.0158 48.6135V52.6135H58.9198V48.6135H60.0158ZM62.5936 47.3895V51.3095C62.5936 51.5015 62.6416 51.6428 62.7376 51.7335C62.8389 51.8188 62.9749 51.8615 63.1456 51.8615C63.2842 51.8615 63.4016 51.8428 63.4976 51.8055C63.5989 51.7628 63.6896 51.7068 63.7696 51.6375L63.9456 52.3655C63.8176 52.4668 63.6576 52.5468 63.4656 52.6055C63.2736 52.6641 63.0709 52.6935 62.8576 52.6935C62.5909 52.6935 62.3536 52.6535 62.1456 52.5735C61.9429 52.4935 61.7829 52.3655 61.6656 52.1895C61.5536 52.0135 61.4976 51.7788 61.4976 51.4855V47.6935L62.5936 47.3895ZM63.8736 48.6135V49.4295H60.7616V48.6135H63.8736ZM68.3751 48.6135L66.7591 52.8615C66.6311 53.2241 66.4871 53.5121 66.3271 53.7255C66.1724 53.9388 65.9911 54.0935 65.7831 54.1895C65.5804 54.2855 65.3377 54.3335 65.0551 54.3335C64.8471 54.3335 64.6551 54.3068 64.4791 54.2535C64.3084 54.2055 64.1591 54.1415 64.0311 54.0615L64.2631 53.2695C64.3644 53.3495 64.4711 53.4055 64.5831 53.4375C64.6951 53.4748 64.8231 53.4935 64.9671 53.4935C65.1164 53.4935 65.2444 53.4615 65.3511 53.3975C65.4631 53.3335 65.5564 53.2055 65.6311 53.0135L65.7671 52.6695L65.3271 51.6295L64.1031 48.6135H65.3191L66.0791 51.0135L66.2871 51.8135L66.5351 50.9655L67.2631 48.6135H68.3751Z" fill="#BF7A2C"/>
</svg>
