<svg width="101" height="101" viewBox="0 0 101 101" fill="none" xmlns="http://www.w3.org/2000/svg">
<path d="M93.5703 38.452C94.5662 38.452 95.3736 39.2594 95.3736 40.2554V90.7829C95.3736 94.9025 92.0341 98.242 87.9146 98.242H16.2926C12.173 98.242 8.8335 94.9025 8.8335 90.7829V40.2554C8.8335 39.2594 9.64091 38.452 10.6369 38.452H93.5703Z" fill="#E79098"/>
<path d="M14.3022 38.452V89.4337C14.3022 92.808 17.0466 95.5531 20.4198 95.5531H83.9824C87.3557 95.5531 90.1 92.808 90.1 89.4337V38.452H14.3022Z" fill="#E17983"/>
<path d="M84.7039 34.8073H19.6969C18.8492 34.8073 18.1636 35.4948 18.1636 36.3425V82.4696L39.1124 90.1214L52.2003 91.6267L83.5688 85.9642L86.2371 82.4696V36.3425C86.2373 35.4948 85.5516 34.8073 84.7039 34.8073Z" fill="#F9F7F7"/>
<path d="M26.2023 84.0969V34.8073H19.6959C18.8482 34.8073 18.1626 35.4948 18.1626 36.3425V82.4696L26.4631 85.5014C26.2972 85.0643 26.2023 84.5922 26.2023 84.0969Z" fill="#F8F3F2"/>
<path d="M52.1969 91.6275V91.6913H20.4156C19.1701 91.6913 18.1602 90.6813 18.1602 89.4339V82.4706H43.0398C48.0972 82.4704 52.1969 86.5701 52.1969 91.6275Z" fill="#F2EAE7"/>
<path d="M86.234 82.4703V89.4336C86.234 90.6811 85.224 91.6909 83.9786 91.6909H52.1973V91.6272C52.1973 86.5697 56.2969 82.4701 61.3544 82.4701H86.234V82.4703Z" fill="#F2EAE7"/>
<path d="M52.9223 88.0589C52.458 89.1553 52.2012 90.361 52.2012 91.6269V91.6906H83.9825C85.2279 91.6906 86.2379 90.6807 86.2379 89.4333V88.0591H52.9223V88.0589Z" fill="#EDE2DD"/>
<path d="M30.1649 88.0591C27.9768 88.0591 26.2031 86.2854 26.2031 84.0973V82.47H18.1636V89.4334C18.1636 90.6809 19.1736 91.6907 20.419 91.6907H52.2003V91.6269C52.2003 90.3613 51.9435 89.1555 51.4792 88.0589H30.1649V88.0591Z" fill="#EDE2DD"/>
<path d="M56.2646 65.7733H47.1753C43.7471 65.7733 40.9678 62.9941 40.9678 59.5657V52.6377C40.9678 51.5789 41.8261 50.7206 42.8848 50.7206H60.5549C61.6136 50.7206 62.4719 51.5789 62.4719 52.6377V59.5657C62.4719 62.9941 59.6928 65.7733 56.2646 65.7733Z" fill="#A59CA6"/>
<path d="M60.5836 62.6997H51.4944C48.0662 62.6997 45.2868 59.9205 45.2868 56.4923V50.7216H42.8848C41.8261 50.7216 40.9678 51.5799 40.9678 52.6387V59.5667C40.9678 62.9949 43.7469 65.7742 47.1753 65.7742H56.2646C58.5903 65.7742 60.616 64.4944 61.6793 62.6015C61.3233 62.6649 60.9575 62.6997 60.5836 62.6997Z" fill="#8F8390"/>
<path d="M52.9174 5.17908L57.2196 13.8963C57.3985 14.259 57.7446 14.5104 58.1448 14.5685L67.7649 15.9663C68.7728 16.1127 69.1753 17.3516 68.446 18.0623L61.4849 24.8477C61.1954 25.1301 61.0632 25.5367 61.1314 25.9354L62.7748 35.5166C62.9469 36.5205 61.8933 37.2859 60.9919 36.8119L52.3874 32.2882C52.0294 32.1 51.6017 32.1 51.2437 32.2882L42.6392 36.8119C41.7376 37.2859 40.684 36.5203 40.8563 35.5166L42.4997 25.9354C42.5679 25.5367 42.4359 25.1301 42.1462 24.8477L35.1849 18.0625C34.4556 17.3516 34.8581 16.1129 35.866 15.9665L45.4861 14.5686C45.8863 14.5104 46.2324 14.259 46.4113 13.8965L50.7136 5.17927C51.1643 4.26575 52.4666 4.26575 52.9174 5.17908Z" fill="#FBE88C"/>
<path d="M62.7757 35.5202L62.5249 34.0574L52.7766 28.9325C52.3557 28.7112 51.8528 28.7112 51.432 28.9325L46.1928 31.687C45.6797 31.9567 45.0799 31.5211 45.1779 30.9498L46.4058 23.7905C46.474 23.3918 46.342 22.9851 46.0523 22.7028L42.6545 19.3908C42.0175 18.7699 42.3691 17.6882 43.2493 17.5604L48.7955 16.7545C49.1957 16.6962 49.5418 16.4449 49.7207 16.0823L54.009 7.39331L52.918 5.18271C52.4673 4.26938 51.1648 4.26938 50.714 5.18271L46.4118 13.8999C46.2327 14.2627 45.8868 14.514 45.4866 14.5721L35.8665 15.97C34.8586 16.1164 34.4561 17.355 35.1854 18.0661L42.1465 24.8515C42.436 25.1337 42.5682 25.5405 42.5 25.9392L40.8568 35.5204C40.6847 36.5243 41.7383 37.2899 42.6399 36.8159L51.2444 32.2924C51.6024 32.1042 52.03 32.1042 52.3881 32.2924L60.9925 36.8161C61.8941 37.2895 62.9478 36.5241 62.7757 35.5202Z" fill="#FBE372"/>
<path d="M55.1039 46.2611H51.7197V43.9913C51.7197 41.7773 53.5146 39.9826 55.7284 39.9826H58.2344C58.7194 39.9826 59.1126 40.3758 59.1126 40.8608V42.2524C59.1128 44.4664 57.3179 46.2611 55.1039 46.2611Z" fill="#B8DE9C"/>
<path d="M48.3373 46.261H51.7215V43.9912C51.7215 41.7772 49.9268 39.9825 47.7128 39.9825H45.2068C44.7218 39.9825 44.3286 40.3758 44.3286 40.8607V42.2523C44.3284 44.4663 46.1233 46.261 48.3373 46.261Z" fill="#B8DE9C"/>
<path d="M36.0889 73.0375C35.8596 73.0375 35.6889 72.9895 35.5769 72.8935C35.4649 72.7921 35.4089 72.6455 35.4089 72.4535C35.4089 72.2561 35.4649 72.1095 35.5769 72.0135C35.6889 71.9121 35.8596 71.8615 36.0889 71.8615C36.3183 71.8615 36.4889 71.9121 36.6009 72.0135C36.7129 72.1095 36.7689 72.2561 36.7689 72.4535C36.7689 72.6455 36.7129 72.7921 36.6009 72.8935C36.4889 72.9895 36.3183 73.0375 36.0889 73.0375ZM36.6329 73.6135V77.6135H35.5369V73.6135H36.6329ZM37.7948 77.6135V73.6135H38.7788L38.8428 74.8135L38.7068 74.6855C38.7708 74.4241 38.8721 74.2108 39.0108 74.0455C39.1494 73.8748 39.3174 73.7468 39.5148 73.6615C39.7174 73.5761 39.9388 73.5335 40.1788 73.5335C40.4561 73.5335 40.7014 73.5868 40.9148 73.6935C41.1334 73.8001 41.3041 73.9628 41.4268 74.1815C41.5548 74.3948 41.6188 74.6641 41.6188 74.9895V77.6135H40.5228V75.3015C40.5228 74.9601 40.4561 74.7255 40.3228 74.5975C40.1894 74.4641 40.0161 74.3975 39.8028 74.3975C39.6534 74.3975 39.5068 74.4348 39.3628 74.5095C39.2241 74.5788 39.1094 74.6935 39.0188 74.8535C38.9334 75.0135 38.8908 75.2268 38.8908 75.4935V77.6135H37.7948ZM44.1326 72.3895V76.3095C44.1326 76.5015 44.1806 76.6428 44.2766 76.7335C44.378 76.8188 44.514 76.8615 44.6846 76.8615C44.8233 76.8615 44.9406 76.8428 45.0366 76.8055C45.138 76.7628 45.2286 76.7068 45.3086 76.6375L45.4846 77.3655C45.3566 77.4668 45.1966 77.5468 45.0046 77.6055C44.8126 77.6641 44.61 77.6935 44.3966 77.6935C44.13 77.6935 43.8926 77.6535 43.6846 77.5735C43.482 77.4935 43.322 77.3655 43.2046 77.1895C43.0926 77.0135 43.0366 76.7788 43.0366 76.4855V72.6935L44.1326 72.3895ZM45.4126 73.6135V74.4295H42.3006V73.6135H45.4126ZM48.0101 77.6935C47.5888 77.6935 47.2208 77.6108 46.9061 77.4455C46.5968 77.2801 46.3568 77.0428 46.1861 76.7335C46.0155 76.4241 45.9301 76.0508 45.9301 75.6135C45.9301 75.1761 46.0155 74.8028 46.1861 74.4935C46.3568 74.1841 46.5941 73.9468 46.8981 73.7815C47.2075 73.6161 47.5595 73.5335 47.9541 73.5335C48.3595 73.5335 48.7035 73.6161 48.9861 73.7815C49.2688 73.9415 49.4848 74.1628 49.6341 74.4455C49.7835 74.7228 49.8581 75.0401 49.8581 75.3975C49.8581 75.5041 49.8555 75.6055 49.8501 75.7015C49.8448 75.7975 49.8368 75.8828 49.8261 75.9575H46.6341V75.1975H49.3461L48.8181 75.3895C48.8181 75.0535 48.7408 74.7948 48.5861 74.6135C48.4368 74.4321 48.2235 74.3415 47.9461 74.3415C47.7435 74.3415 47.5675 74.3895 47.4181 74.4855C47.2741 74.5815 47.1648 74.7255 47.0901 74.9175C47.0155 75.1041 46.9781 75.3415 46.9781 75.6295C46.9781 75.9121 47.0181 76.1468 47.0981 76.3335C47.1835 76.5148 47.3008 76.6508 47.4501 76.7415C47.6048 76.8321 47.7888 76.8775 48.0021 76.8775C48.2368 76.8775 48.4261 76.8321 48.5701 76.7415C48.7141 76.6508 48.8261 76.5255 48.9061 76.3655L49.7781 76.7015C49.6928 76.9095 49.5621 77.0881 49.3861 77.2375C49.2155 77.3868 49.0101 77.5015 48.7701 77.5815C48.5355 77.6561 48.2821 77.6935 48.0101 77.6935ZM54.4749 72.6615L54.6029 73.4455C54.5816 73.4455 54.5576 73.4455 54.5309 73.4455C54.5096 73.4401 54.4856 73.4375 54.4589 73.4375C54.2189 73.4375 54.0349 73.4935 53.9069 73.6055C53.7843 73.7121 53.7229 73.8615 53.7229 74.0535L53.2749 73.8695C53.2749 73.6561 53.3176 73.4588 53.4029 73.2775C53.4883 73.0908 53.6136 72.9415 53.7789 72.8295C53.9496 72.7175 54.1523 72.6615 54.3869 72.6615C54.3976 72.6615 54.4109 72.6615 54.4269 72.6615C54.4429 72.6615 54.4589 72.6615 54.4749 72.6615ZM53.1629 76.8615C53.5949 76.8615 53.9283 76.9548 54.1629 77.1415C54.3976 77.3281 54.5149 77.5895 54.5149 77.9255C54.5149 78.2295 54.4269 78.4855 54.2509 78.6935C54.0749 78.9068 53.8269 79.0668 53.5069 79.1735C53.1923 79.2801 52.8269 79.3335 52.4109 79.3335C51.7229 79.3335 51.2189 79.2375 50.8989 79.0455C50.5843 78.8535 50.4269 78.6028 50.4269 78.2935C50.4269 78.0748 50.5096 77.8908 50.6749 77.7415C50.8456 77.5921 51.1256 77.5095 51.5149 77.4935L51.4749 77.6215C51.1976 77.5735 50.9843 77.4828 50.8349 77.3495C50.6909 77.2108 50.6189 77.0215 50.6189 76.7815C50.6189 76.5361 50.7123 76.3361 50.8989 76.1815C51.0909 76.0215 51.3496 75.9281 51.6749 75.9015L52.1549 76.1255H52.0429C51.8136 76.1415 51.6509 76.1895 51.5549 76.2695C51.4643 76.3441 51.4189 76.4295 51.4189 76.5255C51.4189 76.6375 51.4616 76.7228 51.5469 76.7815C51.6376 76.8348 51.7656 76.8615 51.9309 76.8615H53.1629ZM52.4189 78.5815C52.6963 78.5815 52.9229 78.5575 53.0989 78.5095C53.2803 78.4615 53.4136 78.4001 53.4989 78.3255C53.5896 78.2508 53.6349 78.1681 53.6349 78.0775C53.6349 77.9761 53.5949 77.8935 53.5149 77.8295C53.4349 77.7708 53.2909 77.7415 53.0829 77.7415H51.7309C51.6029 77.7415 51.4963 77.7735 51.4109 77.8375C51.3309 77.9015 51.2909 77.9895 51.2909 78.1015C51.2909 78.2508 51.3896 78.3681 51.5869 78.4535C51.7896 78.5388 52.0669 78.5815 52.4189 78.5815ZM52.4269 73.5335C52.8003 73.5335 53.1229 73.5895 53.3949 73.7015C53.6723 73.8081 53.8829 73.9628 54.0269 74.1655C54.1763 74.3681 54.2509 74.6108 54.2509 74.8935C54.2509 75.1708 54.1763 75.4108 54.0269 75.6135C53.8829 75.8161 53.6723 75.9735 53.3949 76.0855C53.1229 76.1921 52.8003 76.2455 52.4269 76.2455C51.8349 76.2455 51.3816 76.1255 51.0669 75.8855C50.7523 75.6401 50.5949 75.3095 50.5949 74.8935C50.5949 74.6108 50.6696 74.3681 50.8189 74.1655C50.9683 73.9628 51.1789 73.8081 51.4509 73.7015C51.7229 73.5895 52.0483 73.5335 52.4269 73.5335ZM52.4269 74.2215C52.2136 74.2215 52.0376 74.2801 51.8989 74.3975C51.7603 74.5148 51.6909 74.6775 51.6909 74.8855C51.6909 75.0935 51.7603 75.2588 51.8989 75.3815C52.0376 75.4988 52.2136 75.5575 52.4269 75.5575C52.6403 75.5575 52.8136 75.4988 52.9469 75.3815C53.0856 75.2588 53.1549 75.0935 53.1549 74.8855C53.1549 74.6775 53.0856 74.5148 52.9469 74.3975C52.8136 74.2801 52.6403 74.2215 52.4269 74.2215ZM55.1776 77.6135V73.6135H56.1296L56.2016 74.3975C56.3082 74.1201 56.4629 73.9068 56.6656 73.7575C56.8736 73.6081 57.1322 73.5335 57.4416 73.5335C57.5322 73.5335 57.6149 73.5415 57.6896 73.5575C57.7642 73.5735 57.8256 73.5948 57.8736 73.6215L57.7456 74.5415C57.6922 74.5201 57.6256 74.5041 57.5456 74.4935C57.4709 74.4828 57.3722 74.4775 57.2496 74.4775C57.0896 74.4775 56.9349 74.5175 56.7856 74.5975C56.6362 74.6721 56.5136 74.7895 56.4176 74.9495C56.3216 75.1041 56.2736 75.3015 56.2736 75.5415V77.6135H55.1776ZM59.1046 73.0375C58.8752 73.0375 58.7046 72.9895 58.5926 72.8935C58.4806 72.7921 58.4246 72.6455 58.4246 72.4535C58.4246 72.2561 58.4806 72.1095 58.5926 72.0135C58.7046 71.9121 58.8752 71.8615 59.1046 71.8615C59.3339 71.8615 59.5046 71.9121 59.6166 72.0135C59.7286 72.1095 59.7846 72.2561 59.7846 72.4535C59.7846 72.6455 59.7286 72.7921 59.6166 72.8935C59.5046 72.9895 59.3339 73.0375 59.1046 73.0375ZM59.6486 73.6135V77.6135H58.5526V73.6135H59.6486ZM62.2264 72.3895V76.3095C62.2264 76.5015 62.2744 76.6428 62.3704 76.7335C62.4717 76.8188 62.6077 76.8615 62.7784 76.8615C62.917 76.8615 63.0344 76.8428 63.1304 76.8055C63.2317 76.7628 63.3224 76.7068 63.4024 76.6375L63.5784 77.3655C63.4504 77.4668 63.2904 77.5468 63.0984 77.6055C62.9064 77.6641 62.7037 77.6935 62.4904 77.6935C62.2237 77.6935 61.9864 77.6535 61.7784 77.5735C61.5757 77.4935 61.4157 77.3655 61.2984 77.1895C61.1864 77.0135 61.1304 76.7788 61.1304 76.4855V72.6935L62.2264 72.3895ZM63.5064 73.6135V74.4295H60.3944V73.6135H63.5064ZM68.0079 73.6135L66.3919 77.8615C66.2639 78.2241 66.1199 78.5121 65.9599 78.7255C65.8052 78.9388 65.6239 79.0935 65.4159 79.1895C65.2132 79.2855 64.9705 79.3335 64.6879 79.3335C64.4799 79.3335 64.2879 79.3068 64.1119 79.2535C63.9412 79.2055 63.7919 79.1415 63.6639 79.0615L63.8959 78.2695C63.9972 78.3495 64.1039 78.4055 64.2159 78.4375C64.3279 78.4748 64.4559 78.4935 64.5999 78.4935C64.7492 78.4935 64.8772 78.4615 64.9839 78.3975C65.0959 78.3335 65.1892 78.2055 65.2639 78.0135L65.3999 77.6695L64.9599 76.6295L63.7359 73.6135H64.9519L65.7119 76.0135L65.9199 76.8135L66.1679 75.9655L66.8959 73.6135H68.0079Z" fill="#B8A4A1"/>
</svg>
