<svg width="101" height="101" viewBox="0 0 101 101" fill="none" xmlns="http://www.w3.org/2000/svg">
<g clip-path="url(#clip0)">
<path d="M30.4793 87.6158C9.43987 76.1861 5.03229 47.8771 21.6009 30.5921L38.3293 13.1404C38.9552 12.4874 40.0355 12.6323 40.4674 13.4271L41.8771 16.0214L51.3154 4.34366C52.0599 3.42244 53.4438 3.36398 54.2635 4.21895L79.5433 30.5921C96.1119 47.8771 91.7043 76.1861 70.6649 87.6158L58.1335 93.7023H43.0196L30.4793 87.6158Z" fill="#FBE88C"/>
<path d="M27.6206 54.3707C27.6206 32.0691 40.6857 13.3766 58.2634 8.39206L54.2633 4.21895C53.4436 3.36398 52.0597 3.42244 51.3152 4.34366L41.8771 16.0214L40.4675 13.4271C40.0355 12.6323 38.9552 12.4874 38.3293 13.1404L21.6009 30.5921C5.03229 47.8771 9.43987 76.1861 30.4793 87.6158L43.0196 93.7023H45.4182C34.6877 85.2212 27.6206 70.772 27.6206 54.3707Z" fill="#FBE372"/>
<path d="M44.5615 86.9911L33.554 81.6485C25.4505 77.1959 19.9915 69.411 18.568 60.2674C17.1369 51.0756 20.008 41.9523 26.4453 35.2368L37.3107 23.9015C37.6924 23.5034 38.351 23.5917 38.6143 24.0762L40.2125 27.0174C40.4817 27.5128 41.1682 27.5756 41.5226 27.137L52.1705 13.9623C52.6886 13.3214 53.6516 13.2805 54.2218 13.8754L74.6975 35.2368C81.1348 41.9523 84.0058 51.0758 82.5747 60.2674C81.151 69.4115 75.6919 77.1965 67.5877 81.6489L56.5891 86.9911H44.5615Z" fill="#E79098"/>
<path d="M33.5542 81.648L35.5382 82.611C30.5621 74.7298 27.62 64.9603 27.62 54.3704C27.62 43.2435 30.8684 33.0199 36.3109 24.9441L26.4453 35.2363C20.0082 41.9518 17.1369 51.0753 18.568 60.2669C19.9919 69.4105 25.4509 77.1956 33.5542 81.648Z" fill="#E17983"/>
<path d="M51.0977 70.0188C51.4495 69.8385 51.8486 69.7377 52.2713 69.7377H57.4124C59.2598 69.7377 60.7575 71.2354 60.7575 73.0839V75.0418C60.7575 78.1046 59.7179 81.0768 57.8089 83.4719L55.4931 86.3774V99.8199C55.4931 100.625 54.8403 101.278 54.035 101.278H43.4324C42.6272 101.278 41.9744 100.625 41.9744 99.8199V84.4699L41.3264 83.6052C40.3855 82.3489 39.877 80.8212 39.877 79.2516V73.542V70.0188H51.0977Z" fill="#FFE0D1"/>
<path d="M46.3834 98.9932C45.5781 98.9932 44.9253 98.3877 44.9253 97.6407V84.2759C44.9253 83.7108 44.7315 83.1628 44.3764 82.7233L44.2773 82.6006C43.3364 81.4352 42.8279 80.0182 42.8279 78.5624V73.2663V70.0187H39.877V73.5419V79.2516C39.877 80.8211 40.3855 82.3489 41.3264 83.6052L41.9744 84.4699V99.8199C41.9744 100.625 42.6272 101.278 43.4324 101.278H54.035C54.8403 101.278 55.4931 100.625 55.4931 99.8199V98.9932H46.3834Z" fill="#FFD1C2"/>
<path d="M46.5878 73.4353H46.7363C48.734 73.4353 50.3893 71.9454 50.6521 70.0187H39.877V72.5786C40.4569 72.9131 41.1287 73.1056 41.8451 73.1056H42.103C42.5906 73.1056 43.0576 73.0166 43.4891 72.8541C43.8818 72.7064 44.3225 72.7463 44.69 72.9485C45.2536 73.2585 45.9003 73.4353 46.5878 73.4353Z" fill="#FFD1C2"/>
<path d="M50.9706 83.5977H57.7082L57.8084 83.4719C59.7174 81.0768 60.757 78.1046 60.757 75.0418V73.0839C60.757 71.2354 59.2593 69.7377 57.4119 69.7377H52.2709C51.8482 69.7377 51.4491 69.8385 51.0972 70.0188H48.7625C48.3134 70.6984 48.0718 71.4948 48.0718 72.3286C48.0718 73.7499 48.7815 75.0084 49.8651 75.7685C48.7277 77.1364 48.0718 78.8835 48.0718 80.6989C48.0718 82.2999 49.3696 83.5977 50.9706 83.5977Z" fill="#FFD1C2"/>
<path d="M53.6944 65.9575C53.6944 64.6629 52.645 63.6135 51.3504 63.6135C50.0558 63.6135 49.0063 64.6629 49.0063 65.9575V70.8475C49.0063 72.1421 50.0558 73.1915 51.3504 73.1915C52.645 73.1915 53.6944 72.1421 53.6944 70.8475V65.9575Z" fill="#FFE0D1"/>
<path d="M56.0374 64.2603C54.7428 64.2603 53.6934 65.3098 53.6934 66.6044V72.0985H58.3813V66.6044C58.3814 65.3098 57.332 64.2603 56.0374 64.2603Z" fill="#FFE0D1"/>
<path d="M57.4117 68.1286H55.8121C55.382 68.1286 55.0334 67.7799 55.0334 67.35V66.6761C55.0334 65.5708 55.7973 64.643 56.8268 64.3957C56.5637 64.3014 56.2806 64.2545 55.9834 64.2609C54.7024 64.2887 53.6934 65.3694 53.6934 66.6507V72.0984H54.4143H55.0335H58.3814V68.2245C58.0676 68.162 57.7435 68.1286 57.4117 68.1286Z" fill="#FFD1C2"/>
<path d="M50.3176 71.0911V66.2011C50.3176 64.9895 51.2358 63.9913 52.415 63.8686C52.0952 63.705 51.7343 63.6135 51.3504 63.6135C50.0558 63.6135 49.0063 64.6629 49.0063 65.9575V70.8475C49.0063 72.1421 50.0558 73.1916 51.3504 73.1916C51.4333 73.1916 51.5152 73.1872 51.5959 73.1787C50.8373 72.7905 50.3176 72.0018 50.3176 71.0911Z" fill="#FFD1C2"/>
<path d="M52.2707 68.1284C51.6079 68.1284 50.9484 68.2869 50.3723 68.5819C50.2269 68.6553 50.0879 68.7399 49.9521 68.8298V72.7297C50.3423 73.0198 50.8258 73.1916 51.3493 73.1916C52.6439 73.1916 53.6933 72.1421 53.6933 70.8475V68.1283H52.2707V68.1284Z" fill="#FFD1C2"/>
<path d="M53.3823 74.9184H52.272C50.8419 74.9184 49.6821 73.7587 49.6821 72.3286C49.6821 71.613 49.9718 70.965 50.4406 70.4962C50.6327 70.3041 50.8537 70.1421 51.0983 70.0188C51.4502 69.8385 51.8493 69.7377 52.272 69.7377H57.413C59.2604 69.7377 60.7581 71.2354 60.7581 73.0839V75.0418C60.7581 78.1037 59.7196 81.0754 57.811 83.47L56.5762 85.0192H49.6821V80.6989C49.6821 78.5768 50.7871 76.6081 52.5992 75.5031L53.3823 75.0257V74.9184Z" fill="#FFE0D1"/>
<path d="M46.7347 64.2599H46.5862C45.2916 64.2599 44.2422 65.3093 44.2422 66.6039V69.4818C44.2422 70.7764 45.2916 71.8258 46.5862 71.8258H46.7347C48.0293 71.8258 49.0788 70.7764 49.0788 69.4818V66.6039C49.0788 65.3093 48.0293 64.2599 46.7347 64.2599Z" fill="#FFE0D1"/>
<path d="M45.8141 69.3828V66.5049C45.8141 65.5166 46.4254 64.671 47.2908 64.3263C47.1122 64.2827 46.9266 64.2599 46.7347 64.2599H46.5862C45.2916 64.2599 44.2422 65.3093 44.2422 66.6039V69.4818C44.2422 70.7764 45.2916 71.8258 46.5862 71.8258H46.7347C47.0409 71.8258 47.3331 71.7681 47.6014 71.6613C46.5756 71.4113 45.8141 70.4854 45.8141 69.3828Z" fill="#FFD1C2"/>
<path d="M42.102 64.5443H41.844C40.5494 64.5443 39.5 65.5937 39.5 66.8883V69.1518C39.5 70.4464 40.5494 71.4958 41.844 71.4958H42.102C43.3965 71.4958 44.446 70.4464 44.446 69.1518V66.8883C44.446 65.5937 43.3965 64.5443 42.102 64.5443Z" fill="#FFE0D1"/>
<path d="M41.0365 69.1743V66.9108C41.0365 65.8235 41.7769 64.9094 42.781 64.6446C42.566 64.5795 42.3381 64.5443 42.102 64.5443H41.844C40.5495 64.5443 39.5 65.5937 39.5 66.8883V69.1518C39.5 70.4464 40.5495 71.4958 41.844 71.4958H42.102C42.3092 71.4958 42.5102 71.4687 42.7016 71.4181C41.7382 71.1269 41.0365 70.2328 41.0365 69.1743Z" fill="#FFD1C2"/>
<path d="M37.2943 35.5335C37.6517 35.5335 37.953 35.5868 38.1983 35.6935C38.449 35.7948 38.649 35.9361 38.7983 36.1175C38.953 36.2935 39.0623 36.4908 39.1263 36.7095L38.1023 37.0775C38.049 36.8375 37.9583 36.6561 37.8303 36.5335C37.7023 36.4108 37.529 36.3495 37.3103 36.3495C37.1077 36.3495 36.9343 36.3975 36.7903 36.4935C36.6463 36.5841 36.537 36.7255 36.4623 36.9175C36.3877 37.1041 36.3503 37.3388 36.3503 37.6215C36.3503 37.9041 36.3877 38.1388 36.4623 38.3255C36.5423 38.5121 36.6543 38.6508 36.7983 38.7415C36.9477 38.8321 37.121 38.8775 37.3183 38.8775C37.4783 38.8775 37.6143 38.8508 37.7263 38.7975C37.8383 38.7388 37.929 38.6561 37.9983 38.5495C38.073 38.4428 38.1237 38.3148 38.1503 38.1655L39.1423 38.4855C39.0837 38.7255 38.9743 38.9361 38.8143 39.1175C38.6543 39.2988 38.449 39.4401 38.1983 39.5415C37.9477 39.6428 37.657 39.6935 37.3263 39.6935C36.9157 39.6935 36.553 39.6108 36.2383 39.4455C35.9237 39.2801 35.681 39.0428 35.5103 38.7335C35.3397 38.4241 35.2543 38.0508 35.2543 37.6135C35.2543 37.1761 35.3397 36.8028 35.5103 36.4935C35.681 36.1841 35.921 35.9468 36.2303 35.7815C36.5397 35.6161 36.8943 35.5335 37.2943 35.5335ZM41.818 35.5335C42.2233 35.5335 42.578 35.6161 42.882 35.7815C43.1913 35.9468 43.4313 36.1841 43.602 36.4935C43.778 36.8028 43.866 37.1761 43.866 37.6135C43.866 38.0455 43.778 38.4188 43.602 38.7335C43.4313 39.0428 43.1913 39.2801 42.882 39.4455C42.578 39.6108 42.2233 39.6935 41.818 39.6935C41.418 39.6935 41.0633 39.6108 40.754 39.4455C40.4446 39.2801 40.202 39.0428 40.026 38.7335C39.8553 38.4188 39.77 38.0455 39.77 37.6135C39.77 37.1761 39.8553 36.8028 40.026 36.4935C40.202 36.1841 40.4446 35.9468 40.754 35.7815C41.0633 35.6161 41.418 35.5335 41.818 35.5335ZM41.818 36.3495C41.6153 36.3495 41.442 36.3975 41.298 36.4935C41.1593 36.5841 41.0526 36.7228 40.978 36.9095C40.9033 37.0961 40.866 37.3308 40.866 37.6135C40.866 37.8961 40.9033 38.1308 40.978 38.3175C41.0526 38.5041 41.1593 38.6455 41.298 38.7415C41.442 38.8321 41.6153 38.8775 41.818 38.8775C42.0153 38.8775 42.1833 38.8321 42.322 38.7415C42.466 38.6455 42.5753 38.5041 42.65 38.3175C42.7246 38.1308 42.762 37.8961 42.762 37.6135C42.762 37.3308 42.7246 37.0961 42.65 36.9095C42.5753 36.7228 42.466 36.5841 42.322 36.4935C42.1833 36.3975 42.0153 36.3495 41.818 36.3495ZM46.175 39.6935C45.9084 39.6935 45.6684 39.6455 45.455 39.5495C45.2417 39.4535 45.071 39.3015 44.943 39.0935C44.8204 38.8801 44.759 38.6055 44.759 38.2695V35.6135H45.855V38.0055C45.855 38.3148 45.919 38.5308 46.047 38.6535C46.175 38.7708 46.359 38.8295 46.599 38.8295C46.711 38.8295 46.8204 38.8108 46.927 38.7735C47.0337 38.7308 47.127 38.6668 47.207 38.5815C47.2924 38.4961 47.359 38.3868 47.407 38.2535C47.455 38.1148 47.479 37.9521 47.479 37.7655V35.6135H48.575V39.6135H47.599L47.559 38.9175C47.4257 39.1841 47.2417 39.3815 47.007 39.5095C46.7777 39.6321 46.5004 39.6935 46.175 39.6935ZM49.7283 39.6135V35.6135H50.6803L50.7523 36.3975C50.859 36.1201 51.0137 35.9068 51.2163 35.7575C51.4243 35.6081 51.683 35.5335 51.9923 35.5335C52.083 35.5335 52.1657 35.5415 52.2403 35.5575C52.315 35.5735 52.3763 35.5948 52.4243 35.6215L52.2963 36.5415C52.243 36.5201 52.1763 36.5041 52.0963 36.4935C52.0217 36.4828 51.923 36.4775 51.8003 36.4775C51.6403 36.4775 51.4857 36.5175 51.3363 36.5975C51.187 36.6721 51.0643 36.7895 50.9683 36.9495C50.8723 37.1041 50.8243 37.3015 50.8243 37.5415V39.6135H49.7283ZM55.313 37.0615C55.313 36.8321 55.2464 36.6535 55.113 36.5255C54.985 36.3975 54.8144 36.3335 54.601 36.3335C54.4037 36.3335 54.2304 36.3841 54.081 36.4855C53.9317 36.5868 53.8224 36.7548 53.753 36.9895L52.817 36.7015C52.9077 36.3495 53.105 36.0668 53.409 35.8535C53.7184 35.6401 54.1317 35.5335 54.649 35.5335C55.001 35.5335 55.3077 35.5895 55.569 35.7015C55.8304 35.8081 56.033 35.9708 56.177 36.1895C56.3264 36.4081 56.401 36.6828 56.401 37.0135V38.6375C56.401 38.8401 56.497 38.9415 56.689 38.9415C56.7797 38.9415 56.865 38.9281 56.945 38.9015L56.881 39.5815C56.7424 39.6508 56.569 39.6855 56.361 39.6855C56.1744 39.6855 56.0064 39.6535 55.857 39.5895C55.7077 39.5255 55.5904 39.4295 55.505 39.3015C55.4197 39.1681 55.377 39.0028 55.377 38.8055V38.7735L55.569 38.7415C55.537 38.9441 55.449 39.1175 55.305 39.2615C55.161 39.4001 54.985 39.5068 54.777 39.5815C54.5744 39.6561 54.3637 39.6935 54.145 39.6935C53.873 39.6935 53.6384 39.6535 53.441 39.5735C53.2437 39.4881 53.0917 39.3655 52.985 39.2055C52.8784 39.0455 52.825 38.8481 52.825 38.6135C52.825 38.3148 52.921 38.0721 53.113 37.8855C53.305 37.6935 53.5797 37.5628 53.937 37.4935L55.441 37.1895L55.433 37.8695L54.473 38.0615C54.2917 38.0988 54.153 38.1495 54.057 38.2135C53.9664 38.2721 53.921 38.3708 53.921 38.5095C53.921 38.6428 53.969 38.7441 54.065 38.8135C54.1664 38.8828 54.2864 38.9175 54.425 38.9175C54.537 38.9175 54.6464 38.9041 54.753 38.8775C54.8597 38.8508 54.9557 38.8081 55.041 38.7495C55.1264 38.6908 55.193 38.6108 55.241 38.5095C55.289 38.4081 55.313 38.2855 55.313 38.1415V37.0615ZM61.3382 34.6615L61.4662 35.4455C61.4449 35.4455 61.4209 35.4455 61.3942 35.4455C61.3729 35.4401 61.3489 35.4375 61.3222 35.4375C61.0822 35.4375 60.8982 35.4935 60.7702 35.6055C60.6476 35.7121 60.5862 35.8615 60.5862 36.0535L60.1382 35.8695C60.1382 35.6561 60.1809 35.4588 60.2662 35.2775C60.3516 35.0908 60.4769 34.9415 60.6422 34.8295C60.8129 34.7175 61.0156 34.6615 61.2502 34.6615C61.2609 34.6615 61.2742 34.6615 61.2902 34.6615C61.3062 34.6615 61.3222 34.6615 61.3382 34.6615ZM60.0262 38.8615C60.4582 38.8615 60.7916 38.9548 61.0262 39.1415C61.2609 39.3281 61.3782 39.5895 61.3782 39.9255C61.3782 40.2295 61.2902 40.4855 61.1142 40.6935C60.9382 40.9068 60.6902 41.0668 60.3702 41.1735C60.0556 41.2801 59.6902 41.3335 59.2742 41.3335C58.5862 41.3335 58.0822 41.2375 57.7622 41.0455C57.4476 40.8535 57.2902 40.6028 57.2902 40.2935C57.2902 40.0748 57.3729 39.8908 57.5382 39.7415C57.7089 39.5921 57.9889 39.5095 58.3782 39.4935L58.3382 39.6215C58.0609 39.5735 57.8476 39.4828 57.6982 39.3495C57.5542 39.2108 57.4822 39.0215 57.4822 38.7815C57.4822 38.5361 57.5756 38.3361 57.7622 38.1815C57.9542 38.0215 58.2129 37.9281 58.5382 37.9015L59.0182 38.1255H58.9062C58.6769 38.1415 58.5142 38.1895 58.4182 38.2695C58.3276 38.3441 58.2822 38.4295 58.2822 38.5255C58.2822 38.6375 58.3249 38.7228 58.4102 38.7815C58.5009 38.8348 58.6289 38.8615 58.7942 38.8615H60.0262ZM59.2822 40.5815C59.5596 40.5815 59.7862 40.5575 59.9622 40.5095C60.1436 40.4615 60.2769 40.4001 60.3622 40.3255C60.4529 40.2508 60.4982 40.1681 60.4982 40.0775C60.4982 39.9761 60.4582 39.8935 60.3782 39.8295C60.2982 39.7708 60.1542 39.7415 59.9462 39.7415H58.5942C58.4662 39.7415 58.3596 39.7735 58.2742 39.8375C58.1942 39.9015 58.1542 39.9895 58.1542 40.1015C58.1542 40.2508 58.2529 40.3681 58.4502 40.4535C58.6529 40.5388 58.9302 40.5815 59.2822 40.5815ZM59.2902 35.5335C59.6636 35.5335 59.9862 35.5895 60.2582 35.7015C60.5356 35.8081 60.7462 35.9628 60.8902 36.1655C61.0396 36.3681 61.1142 36.6108 61.1142 36.8935C61.1142 37.1708 61.0396 37.4108 60.8902 37.6135C60.7462 37.8161 60.5356 37.9735 60.2582 38.0855C59.9862 38.1921 59.6636 38.2455 59.2902 38.2455C58.6982 38.2455 58.2449 38.1255 57.9302 37.8855C57.6156 37.6401 57.4582 37.3095 57.4582 36.8935C57.4582 36.6108 57.5329 36.3681 57.6822 36.1655C57.8316 35.9628 58.0422 35.8081 58.3142 35.7015C58.5862 35.5895 58.9116 35.5335 59.2902 35.5335ZM59.2902 36.2215C59.0769 36.2215 58.9009 36.2801 58.7622 36.3975C58.6236 36.5148 58.5542 36.6775 58.5542 36.8855C58.5542 37.0935 58.6236 37.2588 58.7622 37.3815C58.9009 37.4988 59.0769 37.5575 59.2902 37.5575C59.5036 37.5575 59.6769 37.4988 59.8102 37.3815C59.9489 37.2588 60.0182 37.0935 60.0182 36.8855C60.0182 36.6775 59.9489 36.5148 59.8102 36.3975C59.6769 36.2801 59.5036 36.2215 59.2902 36.2215ZM63.8968 39.6935C63.4755 39.6935 63.1075 39.6108 62.7928 39.4455C62.4835 39.2801 62.2435 39.0428 62.0728 38.7335C61.9022 38.4241 61.8168 38.0508 61.8168 37.6135C61.8168 37.1761 61.9022 36.8028 62.0728 36.4935C62.2435 36.1841 62.4808 35.9468 62.7848 35.7815C63.0942 35.6161 63.4462 35.5335 63.8408 35.5335C64.2462 35.5335 64.5902 35.6161 64.8728 35.7815C65.1555 35.9415 65.3715 36.1628 65.5208 36.4455C65.6702 36.7228 65.7448 37.0401 65.7448 37.3975C65.7448 37.5041 65.7422 37.6055 65.7368 37.7015C65.7315 37.7975 65.7235 37.8828 65.7128 37.9575H62.5208V37.1975H65.2328L64.7048 37.3895C64.7048 37.0535 64.6275 36.7948 64.4728 36.6135C64.3235 36.4321 64.1102 36.3415 63.8328 36.3415C63.6302 36.3415 63.4542 36.3895 63.3048 36.4855C63.1608 36.5815 63.0515 36.7255 62.9768 36.9175C62.9022 37.1041 62.8648 37.3415 62.8648 37.6295C62.8648 37.9121 62.9048 38.1468 62.9848 38.3335C63.0702 38.5148 63.1875 38.6508 63.3368 38.7415C63.4915 38.8321 63.6755 38.8775 63.8888 38.8775C64.1235 38.8775 64.3128 38.8321 64.4568 38.7415C64.6008 38.6508 64.7128 38.5255 64.7928 38.3655L65.6648 38.7015C65.5795 38.9095 65.4488 39.0881 65.2728 39.2375C65.1022 39.3868 64.8968 39.5015 64.6568 39.5815C64.4222 39.6561 64.1688 39.6935 63.8968 39.6935ZM46.0748 46.0615C46.0748 45.8321 46.0081 45.6535 45.8748 45.5255C45.7468 45.3975 45.5761 45.3335 45.3628 45.3335C45.1654 45.3335 44.9921 45.3841 44.8428 45.4855C44.6934 45.5868 44.5841 45.7548 44.5148 45.9895L43.5788 45.7015C43.6694 45.3495 43.8668 45.0668 44.1708 44.8535C44.4801 44.6401 44.8934 44.5335 45.4108 44.5335C45.7628 44.5335 46.0694 44.5895 46.3308 44.7015C46.5921 44.8081 46.7948 44.9708 46.9388 45.1895C47.0881 45.4081 47.1628 45.6828 47.1628 46.0135V47.6375C47.1628 47.8401 47.2588 47.9415 47.4508 47.9415C47.5414 47.9415 47.6268 47.9281 47.7068 47.9015L47.6428 48.5815C47.5041 48.6508 47.3308 48.6855 47.1228 48.6855C46.9361 48.6855 46.7681 48.6535 46.6188 48.5895C46.4694 48.5255 46.3521 48.4295 46.2668 48.3015C46.1814 48.1681 46.1388 48.0028 46.1388 47.8055V47.7735L46.3308 47.7415C46.2988 47.9441 46.2108 48.1175 46.0668 48.2615C45.9228 48.4001 45.7468 48.5068 45.5388 48.5815C45.3361 48.6561 45.1254 48.6935 44.9068 48.6935C44.6348 48.6935 44.4001 48.6535 44.2028 48.5735C44.0054 48.4881 43.8534 48.3655 43.7467 48.2055C43.6401 48.0455 43.5868 47.8481 43.5868 47.6135C43.5868 47.3148 43.6828 47.0721 43.8748 46.8855C44.0668 46.6935 44.3414 46.5628 44.6988 46.4935L46.2028 46.1895L46.1948 46.8695L45.2348 47.0615C45.0534 47.0988 44.9148 47.1495 44.8188 47.2135C44.7281 47.2721 44.6828 47.3708 44.6828 47.5095C44.6828 47.6428 44.7308 47.7441 44.8268 47.8135C44.9281 47.8828 45.0481 47.9175 45.1868 47.9175C45.2988 47.9175 45.4081 47.9041 45.5148 47.8775C45.6214 47.8508 45.7174 47.8081 45.8028 47.7495C45.8881 47.6908 45.9548 47.6108 46.0028 47.5095C46.0508 47.4081 46.0748 47.2855 46.0748 47.1415V46.0615ZM48.3885 48.6135V44.6135H49.3725L49.4365 45.8135L49.3005 45.6855C49.3645 45.4241 49.4658 45.2108 49.6045 45.0455C49.7432 44.8748 49.9112 44.7468 50.1085 44.6615C50.3112 44.5761 50.5325 44.5335 50.7725 44.5335C51.0498 44.5335 51.2952 44.5868 51.5085 44.6935C51.7272 44.8001 51.8978 44.9628 52.0205 45.1815C52.1485 45.3948 52.2125 45.6641 52.2125 45.9895V48.6135H51.1165V46.3015C51.1165 45.9601 51.0498 45.7255 50.9165 45.5975C50.7832 45.4641 50.6098 45.3975 50.3965 45.3975C50.2472 45.3975 50.1005 45.4348 49.9565 45.5095C49.8178 45.5788 49.7032 45.6935 49.6125 45.8535C49.5272 46.0135 49.4845 46.2268 49.4845 46.4935V48.6135H48.3885ZM54.8536 48.6935C54.523 48.6935 54.227 48.6108 53.9656 48.4455C53.7096 48.2801 53.507 48.0428 53.3576 47.7335C53.2136 47.4241 53.1416 47.0535 53.1416 46.6215C53.1416 46.1788 53.219 45.8028 53.3736 45.4935C53.5283 45.1788 53.7363 44.9415 53.9976 44.7815C54.2643 44.6161 54.563 44.5335 54.8936 44.5335C55.2456 44.5335 55.5363 44.6348 55.7656 44.8375C55.995 45.0401 56.1443 45.3015 56.2136 45.6215L56.1096 45.7495V42.8615H57.2056V48.6135H56.2216L56.1496 47.3975L56.2776 47.4615C56.2456 47.7121 56.163 47.9308 56.0296 48.1175C55.8963 48.2988 55.7283 48.4401 55.5256 48.5415C55.323 48.6428 55.099 48.6935 54.8536 48.6935ZM55.1736 47.8535C55.3656 47.8535 55.531 47.8055 55.6696 47.7095C55.8083 47.6081 55.915 47.4615 55.9896 47.2695C56.0696 47.0775 56.1096 46.8481 56.1096 46.5815C56.1096 46.3255 56.0723 46.1095 55.9976 45.9335C55.923 45.7521 55.8163 45.6135 55.6776 45.5175C55.539 45.4215 55.3763 45.3735 55.1896 45.3735C54.891 45.3735 54.6563 45.4801 54.4856 45.6935C54.3203 45.9015 54.2376 46.2081 54.2376 46.6135C54.2376 47.0188 54.3203 47.3281 54.4856 47.5415C54.651 47.7495 54.8803 47.8535 55.1736 47.8535ZM32.1912 52.3895V56.3095C32.1912 56.5015 32.2392 56.6428 32.3352 56.7335C32.4366 56.8188 32.5726 56.8615 32.7432 56.8615C32.8819 56.8615 32.9992 56.8428 33.0952 56.8055C33.1966 56.7628 33.2872 56.7068 33.3672 56.6375L33.5432 57.3655C33.4152 57.4668 33.2552 57.5468 33.0632 57.6055C32.8712 57.6641 32.6686 57.6935 32.4552 57.6935C32.1886 57.6935 31.9512 57.6535 31.7432 57.5735C31.5406 57.4935 31.3806 57.3655 31.2632 57.1895C31.1512 57.0135 31.0952 56.7788 31.0952 56.4855V52.6935L32.1912 52.3895ZM33.4712 53.6135V54.4295H30.3592V53.6135H33.4712ZM36.0367 53.5335C36.4421 53.5335 36.7967 53.6161 37.1007 53.7815C37.4101 53.9468 37.6501 54.1841 37.8207 54.4935C37.9967 54.8028 38.0847 55.1761 38.0847 55.6135C38.0847 56.0455 37.9967 56.4188 37.8207 56.7335C37.6501 57.0428 37.4101 57.2801 37.1007 57.4455C36.7967 57.6108 36.4421 57.6935 36.0367 57.6935C35.6367 57.6935 35.2821 57.6108 34.9727 57.4455C34.6634 57.2801 34.4207 57.0428 34.2447 56.7335C34.0741 56.4188 33.9887 56.0455 33.9887 55.6135C33.9887 55.1761 34.0741 54.8028 34.2447 54.4935C34.4207 54.1841 34.6634 53.9468 34.9727 53.7815C35.2821 53.6161 35.6367 53.5335 36.0367 53.5335ZM36.0367 54.3495C35.8341 54.3495 35.6607 54.3975 35.5167 54.4935C35.3781 54.5841 35.2714 54.7228 35.1967 54.9095C35.1221 55.0961 35.0847 55.3308 35.0847 55.6135C35.0847 55.8961 35.1221 56.1308 35.1967 56.3175C35.2714 56.5041 35.3781 56.6455 35.5167 56.7415C35.6607 56.8321 35.8341 56.8775 36.0367 56.8775C36.2341 56.8775 36.4021 56.8321 36.5407 56.7415C36.6847 56.6455 36.7941 56.5041 36.8687 56.3175C36.9434 56.1308 36.9807 55.8961 36.9807 55.6135C36.9807 55.3308 36.9434 55.0961 36.8687 54.9095C36.7941 54.7228 36.6847 54.5841 36.5407 54.4935C36.4021 54.3975 36.2341 54.3495 36.0367 54.3495ZM40.3938 57.6935C40.1271 57.6935 39.8871 57.6455 39.6738 57.5495C39.4604 57.4535 39.2898 57.3015 39.1618 57.0935C39.0391 56.8801 38.9778 56.6055 38.9778 56.2695V53.6135H40.0738V56.0055C40.0738 56.3148 40.1378 56.5308 40.2658 56.6535C40.3938 56.7708 40.5778 56.8295 40.8178 56.8295C40.9298 56.8295 41.0391 56.8108 41.1458 56.7735C41.2524 56.7308 41.3458 56.6668 41.4258 56.5815C41.5111 56.4961 41.5778 56.3868 41.6258 56.2535C41.6738 56.1148 41.6978 55.9521 41.6978 55.7655V53.6135H42.7938V57.6135H41.8178L41.7778 56.9175C41.6444 57.1841 41.4604 57.3815 41.2258 57.5095C40.9964 57.6321 40.7191 57.6935 40.3938 57.6935ZM47.6351 52.6615L47.7631 53.4455C47.7418 53.4455 47.7178 53.4455 47.6911 53.4455C47.6698 53.4401 47.6458 53.4375 47.6191 53.4375C47.3791 53.4375 47.1951 53.4935 47.0671 53.6055C46.9444 53.7121 46.8831 53.8615 46.8831 54.0535L46.4351 53.8695C46.4351 53.6561 46.4778 53.4588 46.5631 53.2775C46.6484 53.0908 46.7738 52.9415 46.9391 52.8295C47.1098 52.7175 47.3124 52.6615 47.5471 52.6615C47.5578 52.6615 47.5711 52.6615 47.5871 52.6615C47.6031 52.6615 47.6191 52.6615 47.6351 52.6615ZM46.3231 56.8615C46.7551 56.8615 47.0884 56.9548 47.3231 57.1415C47.5578 57.3281 47.6751 57.5895 47.6751 57.9255C47.6751 58.2295 47.5871 58.4855 47.4111 58.6935C47.2351 58.9068 46.9871 59.0668 46.6671 59.1735C46.3524 59.2801 45.9871 59.3335 45.5711 59.3335C44.8831 59.3335 44.3791 59.2375 44.0591 59.0455C43.7444 58.8535 43.5871 58.6028 43.5871 58.2935C43.5871 58.0748 43.6698 57.8908 43.8351 57.7415C44.0058 57.5921 44.2858 57.5095 44.6751 57.4935L44.6351 57.6215C44.3578 57.5735 44.1444 57.4828 43.9951 57.3495C43.8511 57.2108 43.7791 57.0215 43.7791 56.7815C43.7791 56.5361 43.8724 56.3361 44.0591 56.1815C44.2511 56.0215 44.5098 55.9281 44.8351 55.9015L45.3151 56.1255H45.2031C44.9738 56.1415 44.8111 56.1895 44.7151 56.2695C44.6244 56.3441 44.5791 56.4295 44.5791 56.5255C44.5791 56.6375 44.6218 56.7228 44.7071 56.7815C44.7978 56.8348 44.9258 56.8615 45.0911 56.8615H46.3231ZM45.5791 58.5815C45.8564 58.5815 46.0831 58.5575 46.2591 58.5095C46.4404 58.4615 46.5738 58.4001 46.6591 58.3255C46.7498 58.2508 46.7951 58.1681 46.7951 58.0775C46.7951 57.9761 46.7551 57.8935 46.6751 57.8295C46.5951 57.7708 46.4511 57.7415 46.2431 57.7415H44.8911C44.7631 57.7415 44.6564 57.7735 44.5711 57.8375C44.4911 57.9015 44.4511 57.9895 44.4511 58.1015C44.4511 58.2508 44.5498 58.3681 44.7471 58.4535C44.9498 58.5388 45.2271 58.5815 45.5791 58.5815ZM45.5871 53.5335C45.9604 53.5335 46.2831 53.5895 46.5551 53.7015C46.8324 53.8081 47.0431 53.9628 47.1871 54.1655C47.3364 54.3681 47.4111 54.6108 47.4111 54.8935C47.4111 55.1708 47.3364 55.4108 47.1871 55.6135C47.0431 55.8161 46.8324 55.9735 46.5551 56.0855C46.2831 56.1921 45.9604 56.2455 45.5871 56.2455C44.9951 56.2455 44.5418 56.1255 44.2271 55.8855C43.9124 55.6401 43.7551 55.3095 43.7551 54.8935C43.7551 54.6108 43.8298 54.3681 43.9791 54.1655C44.1284 53.9628 44.3391 53.8081 44.6111 53.7015C44.8831 53.5895 45.2084 53.5335 45.5871 53.5335ZM45.5871 54.2215C45.3738 54.2215 45.1978 54.2801 45.0591 54.3975C44.9204 54.5148 44.8511 54.6775 44.8511 54.8855C44.8511 55.0935 44.9204 55.2588 45.0591 55.3815C45.1978 55.4988 45.3738 55.5575 45.5871 55.5575C45.8004 55.5575 45.9738 55.4988 46.1071 55.3815C46.2458 55.2588 46.3151 55.0935 46.3151 54.8855C46.3151 54.6775 46.2458 54.5148 46.1071 54.3975C45.9738 54.2801 45.8004 54.2215 45.5871 54.2215ZM48.3377 57.6135V51.8615H49.4337V54.2935C49.5617 54.0375 49.7377 53.8481 49.9617 53.7255C50.1857 53.5975 50.4391 53.5335 50.7217 53.5335C50.9991 53.5335 51.2444 53.5868 51.4577 53.6935C51.6764 53.8001 51.8471 53.9628 51.9697 54.1815C52.0977 54.3948 52.1617 54.6641 52.1617 54.9895V57.6135H51.0657V55.3095C51.0657 54.9628 50.9991 54.7255 50.8657 54.5975C50.7324 54.4641 50.5617 54.3975 50.3537 54.3975C50.1991 54.3975 50.0497 54.4348 49.9057 54.5095C49.7671 54.5788 49.6524 54.6961 49.5617 54.8615C49.4764 55.0215 49.4337 55.2348 49.4337 55.5015V57.6135H48.3377ZM53.2908 57.6135V53.6135H54.2748L54.3388 54.8135L54.2028 54.6855C54.2668 54.4241 54.3682 54.2108 54.5068 54.0455C54.6455 53.8748 54.8135 53.7468 55.0108 53.6615C55.2135 53.5761 55.4348 53.5335 55.6748 53.5335C55.9522 53.5335 56.1975 53.5868 56.4108 53.6935C56.6295 53.8001 56.8002 53.9628 56.9228 54.1815C57.0508 54.3948 57.1148 54.6641 57.1148 54.9895V57.6135H56.0188V55.3015C56.0188 54.9601 55.9522 54.7255 55.8188 54.5975C55.6855 54.4641 55.5122 54.3975 55.2988 54.3975C55.1495 54.3975 55.0028 54.4348 54.8588 54.5095C54.7202 54.5788 54.6055 54.6935 54.5148 54.8535C54.4295 55.0135 54.3868 55.2268 54.3868 55.4935V57.6135H53.2908ZM60.1 57.6935C59.6786 57.6935 59.3106 57.6108 58.996 57.4455C58.6866 57.2801 58.4466 57.0428 58.276 56.7335C58.1053 56.4241 58.02 56.0508 58.02 55.6135C58.02 55.1761 58.1053 54.8028 58.276 54.4935C58.4466 54.1841 58.684 53.9468 58.988 53.7815C59.2973 53.6161 59.6493 53.5335 60.044 53.5335C60.4493 53.5335 60.7933 53.6161 61.076 53.7815C61.3586 53.9415 61.5746 54.1628 61.724 54.4455C61.8733 54.7228 61.948 55.0401 61.948 55.3975C61.948 55.5041 61.9453 55.6055 61.94 55.7015C61.9346 55.7975 61.9266 55.8828 61.916 55.9575H58.724V55.1975H61.436L60.908 55.3895C60.908 55.0535 60.8306 54.7948 60.676 54.6135C60.5266 54.4321 60.3133 54.3415 60.036 54.3415C59.8333 54.3415 59.6573 54.3895 59.508 54.4855C59.364 54.5815 59.2546 54.7255 59.18 54.9175C59.1053 55.1041 59.068 55.3415 59.068 55.6295C59.068 55.9121 59.108 56.1468 59.188 56.3335C59.2733 56.5148 59.3906 56.6508 59.54 56.7415C59.6946 56.8321 59.8786 56.8775 60.092 56.8775C60.3266 56.8775 60.516 56.8321 60.66 56.7415C60.804 56.6508 60.916 56.5255 60.996 56.3655L61.868 56.7015C61.7826 56.9095 61.652 57.0881 61.476 57.2375C61.3053 57.3868 61.1 57.5015 60.86 57.5815C60.6253 57.6561 60.372 57.6935 60.1 57.6935ZM64.4768 57.6935C64.0714 57.6935 63.7008 57.6215 63.3648 57.4775C63.0341 57.3335 62.7648 57.1308 62.5568 56.8695L63.1888 56.2295C63.3168 56.4215 63.4874 56.5788 63.7008 56.7015C63.9141 56.8241 64.1674 56.8855 64.4608 56.8855C64.6688 56.8855 64.8341 56.8561 64.9568 56.7975C65.0848 56.7335 65.1488 56.6348 65.1488 56.5015C65.1488 56.4161 65.1194 56.3441 65.0608 56.2855C65.0021 56.2215 64.8848 56.1708 64.7088 56.1335L64.0048 55.9895C63.5408 55.8935 63.2101 55.7495 63.0128 55.5575C62.8208 55.3601 62.7248 55.1068 62.7248 54.7975C62.7248 54.5788 62.7888 54.3735 62.9168 54.1815C63.0501 53.9895 63.2474 53.8348 63.5088 53.7175C63.7701 53.5948 64.0954 53.5335 64.4848 53.5335C64.8848 53.5335 65.2314 53.5975 65.5248 53.7255C65.8234 53.8481 66.0581 54.0321 66.2288 54.2775L65.5728 54.9175C65.4554 54.7308 65.3008 54.5895 65.1088 54.4935C64.9221 54.3921 64.7248 54.3415 64.5168 54.3415C64.3674 54.3415 64.2394 54.3575 64.1328 54.3895C64.0261 54.4215 63.9461 54.4668 63.8928 54.5255C63.8394 54.5788 63.8128 54.6481 63.8128 54.7335C63.8128 54.8188 63.8501 54.8935 63.9248 54.9575C63.9994 55.0161 64.1354 55.0668 64.3328 55.1095L65.1488 55.2775C65.5434 55.3575 65.8261 55.4935 65.9968 55.6855C66.1674 55.8721 66.2528 56.0988 66.2528 56.3655C66.2528 56.6215 66.1834 56.8508 66.0448 57.0535C65.9114 57.2508 65.7114 57.4081 65.4448 57.5255C65.1834 57.6375 64.8608 57.6935 64.4768 57.6935ZM68.7268 57.6935C68.3214 57.6935 67.9508 57.6215 67.6148 57.4775C67.2841 57.3335 67.0148 57.1308 66.8068 56.8695L67.4388 56.2295C67.5668 56.4215 67.7374 56.5788 67.9508 56.7015C68.1641 56.8241 68.4174 56.8855 68.7108 56.8855C68.9188 56.8855 69.0841 56.8561 69.2068 56.7975C69.3348 56.7335 69.3988 56.6348 69.3988 56.5015C69.3988 56.4161 69.3694 56.3441 69.3108 56.2855C69.2521 56.2215 69.1348 56.1708 68.9588 56.1335L68.2548 55.9895C67.7908 55.8935 67.4601 55.7495 67.2628 55.5575C67.0708 55.3601 66.9748 55.1068 66.9748 54.7975C66.9748 54.5788 67.0388 54.3735 67.1668 54.1815C67.3001 53.9895 67.4974 53.8348 67.7588 53.7175C68.0201 53.5948 68.3454 53.5335 68.7348 53.5335C69.1348 53.5335 69.4814 53.5975 69.7748 53.7255C70.0734 53.8481 70.3081 54.0321 70.4788 54.2775L69.8228 54.9175C69.7054 54.7308 69.5508 54.5895 69.3588 54.4935C69.1721 54.3921 68.9748 54.3415 68.7668 54.3415C68.6174 54.3415 68.4894 54.3575 68.3828 54.3895C68.2761 54.4215 68.1961 54.4668 68.1428 54.5255C68.0894 54.5788 68.0628 54.6481 68.0628 54.7335C68.0628 54.8188 68.1001 54.8935 68.1748 54.9575C68.2494 55.0161 68.3854 55.0668 68.5828 55.1095L69.3988 55.2775C69.7934 55.3575 70.0761 55.4935 70.2468 55.6855C70.4174 55.8721 70.5028 56.0988 70.5028 56.3655C70.5028 56.6215 70.4334 56.8508 70.2948 57.0535C70.1614 57.2508 69.9614 57.4081 69.6948 57.5255C69.4334 57.6375 69.1108 57.6935 68.7268 57.6935Z" fill="#C5434F"/>
</g>
<defs>
<clipPath id="clip0">
<rect width="100" height="100" fill="white" transform="translate(0.5 0.327454)"/>
</clipPath>
</defs>
</svg>
