<svg width="25" height="19" viewBox="0 0 25 19" fill="none" xmlns="http://www.w3.org/2000/svg">
<path d="M5.95484 7.96739C5.68803 7.96739 5.43199 8.00806 5.17715 8.04515C5.25971 7.76758 5.34465 7.48522 5.48105 7.23158C5.61744 6.86307 5.83041 6.54362 6.04218 6.22178C6.21925 5.87362 6.53152 5.63792 6.76124 5.34001C7.00172 5.05047 7.32955 4.85784 7.58917 4.61736C7.84401 4.3661 8.17782 4.24048 8.44343 4.06341C8.721 3.90428 8.96268 3.7284 9.22111 3.64465L9.866 3.37904L10.4331 3.14334L9.85283 0.824646L9.13856 0.996933C8.91004 1.05436 8.63127 1.12136 8.31421 1.20152C7.98998 1.26135 7.64421 1.42526 7.25896 1.57481C6.87849 1.74471 6.4382 1.85957 6.02902 2.13235C5.61744 2.39318 5.14245 2.61093 4.7237 2.96029C4.31811 3.32042 3.82876 3.63269 3.46744 4.09092C3.07262 4.51925 2.68258 4.96911 2.37988 5.48119C2.02932 5.96933 1.79123 6.50534 1.53998 7.03536C1.31265 7.56538 1.1296 8.10737 0.980044 8.6338C0.696488 9.68906 0.569665 10.6917 0.520611 11.5495C0.479932 12.4086 0.503861 13.1228 0.554112 13.6397C0.572058 13.8838 0.605559 14.1207 0.629487 14.2846L0.659398 14.4856L0.690506 14.4784C0.903306 15.4724 1.39318 16.3859 2.10346 17.1132C2.81373 17.8404 3.71539 18.3517 4.70413 18.588C5.69286 18.8242 6.72827 18.7757 7.69058 18.448C8.65288 18.1203 9.50276 17.5269 10.1419 16.7364C10.781 15.9459 11.1833 14.9906 11.3022 13.981C11.4211 12.9715 11.2518 11.9488 10.8137 11.0315C10.3757 10.1141 9.68693 9.33954 8.82707 8.79729C7.96721 8.25505 6.9714 7.96732 5.95484 7.96739ZM19.1157 7.96739C18.8489 7.96739 18.5928 8.00806 18.338 8.04515C18.4205 7.76758 18.5055 7.48522 18.6419 7.23158C18.7783 6.86307 18.9912 6.54362 19.203 6.22178C19.3801 5.87362 19.6923 5.63792 19.9221 5.34001C20.1625 5.05047 20.4904 4.85784 20.75 4.61736C21.0048 4.3661 21.3386 4.24048 21.6043 4.06341C21.8818 3.90428 22.1235 3.7284 22.3819 3.64465L23.0268 3.37904L23.5939 3.14334L23.0137 0.824646L22.2994 0.996933C22.0709 1.05436 21.7921 1.12136 21.475 1.20152C21.1508 1.26135 20.805 1.42526 20.4198 1.57481C20.0405 1.7459 19.599 1.85957 19.1898 2.13355C18.7783 2.39437 18.3033 2.61213 17.8845 2.96149C17.4789 3.32161 16.9896 3.63388 16.6283 4.09092C16.2334 4.51925 15.8434 4.96911 15.5407 5.48119C15.1901 5.96933 14.9521 6.50534 14.7008 7.03536C14.4735 7.56538 14.2904 8.10737 14.1409 8.6338C13.8573 9.68906 13.7305 10.6917 13.6814 11.5495C13.6408 12.4086 13.6647 13.1228 13.7149 13.6397C13.7329 13.8838 13.7664 14.1207 13.7903 14.2846L13.8202 14.4856L13.8513 14.4784C14.0641 15.4724 14.554 16.3859 15.2643 17.1132C15.9746 17.8404 16.8762 18.3517 17.865 18.588C18.8537 18.8242 19.8891 18.7757 20.8514 18.448C21.8137 18.1203 22.6636 17.5269 23.3027 16.7364C23.9419 15.9459 24.3442 14.9906 24.463 13.981C24.5819 12.9715 24.4126 11.9488 23.9746 11.0315C23.5365 10.1141 22.8478 9.33954 21.9879 8.79729C21.128 8.25505 20.1322 7.96732 19.1157 7.96739Z" fill="#BDB1CD"/>
</svg>
