<svg width="101" height="101" viewBox="0 0 101 101" fill="none" xmlns="http://www.w3.org/2000/svg">
<g clip-path="url(#clip0)">
<path d="M78.599 69.7073L87.5849 62.0386C89.4333 60.4613 89.6617 57.6737 88.0954 55.8125C86.5291 53.9514 83.7609 53.7211 81.9126 55.2986L63.2349 71.2383L52.1802 79.158L62.0749 82.4031L78.599 69.7073Z" fill="#FFE0D1"/>
<path d="M66.5339 73.2485L85.2115 57.3088C86.1427 56.5141 87.309 56.174 88.4357 56.2743C88.3329 56.1138 88.2211 55.962 88.0952 55.8125C86.5289 53.9514 83.7607 53.7211 81.9126 55.2986L63.2349 71.2383L52.1802 79.158L56.368 80.5316L66.5339 73.2485Z" fill="#FFD1C2"/>
<path d="M63.5576 71.149L77.4441 59.3805C78.9733 57.8 79.0839 55.2867 77.6321 53.5734C76.0859 51.7488 73.3533 51.5232 71.5287 53.0694L59.1551 63.5558L45.6636 75.1684L52.6795 80.848L63.5576 71.149Z" fill="#FFE0D1"/>
<path d="M49.2137 77.3769L62.7054 65.7644L75.079 55.2779C75.9568 54.534 77.0435 54.2002 78.1085 54.2572C77.9743 54.0174 77.8165 53.791 77.6321 53.5734C76.0859 51.7488 73.3533 51.5232 71.5287 53.0694L59.1551 63.5558L45.6636 75.1684L52.6795 80.848L53.0708 80.4992L49.2137 77.3769Z" fill="#FFD1C2"/>
<path d="M61.3742 71.1418L61.7214 71.1804H74.9967C76.0099 71.1804 76.9886 70.821 77.7602 70.1672L91.8457 58.23C92.6599 57.5416 93.6528 57.2046 94.6417 57.2046C95.8701 57.2046 97.0904 57.7244 97.9473 58.7335C99.4945 60.5589 99.2691 63.2919 97.4437 64.8371L75.2099 83.6821C72.9135 85.6273 70.0951 86.8557 67.1063 87.2151L42.2775 90.202L32.9556 101.364C32.4327 101.99 31.5826 102.237 30.8055 101.988L4.7822 93.6639C3.44715 93.2369 2.9509 91.607 3.82137 90.5085L13.7797 77.9399L14.5695 76.2728C18.4417 68.1083 26.6712 62.9041 35.7069 62.9041H56.7366C58.2351 62.9041 59.5894 63.5112 60.5722 64.492C61.5529 65.4747 62.16 66.8291 62.16 68.3275C62.16 69.359 61.8717 70.3215 61.3742 71.1418Z" fill="#FFE0D1"/>
<path d="M62.3384 74.104L62.6982 74.145H76.4525C77.5022 74.145 78.5163 73.7631 79.3157 73.0684L93.9092 60.3852C94.7528 59.6538 95.7815 59.2957 96.8061 59.2957C97.3985 59.2957 97.991 59.41 98.5427 59.6459C98.3866 59.3229 98.19 59.0195 97.9472 58.733C97.0903 57.7239 95.87 57.2041 94.6416 57.2041C93.6527 57.2041 92.6598 57.5411 91.8456 58.2295L77.7601 70.1667C76.9885 70.8205 76.0098 71.1799 74.9966 71.1799H63.1504C63.1384 72.251 62.8432 73.2502 62.3384 74.104Z" fill="#FFD1C2"/>
<path d="M61.7222 71.1811L61.375 71.1425C61.4098 71.0855 61.4408 71.026 61.4733 70.9675H29.1494C29.1494 74.186 31.7586 76.7954 34.9773 76.7954H56.5898C56.6408 76.7962 56.6915 76.7968 56.7425 76.7968C59.6765 76.7968 62.4487 75.237 63.9795 72.7216C64.2764 72.2321 64.5207 71.7157 64.7117 71.1811H61.7222Z" fill="#FFD1C2"/>
<path d="M63.2356 71.2384L55.48 76.7946H56.5896C56.6406 76.7954 56.6914 76.796 56.7423 76.796C59.6764 76.796 62.4486 75.2362 63.9794 72.7208C64.5522 71.7763 64.9282 70.7316 65.0992 69.6481L63.2356 71.2384Z" fill="#FFD1C2"/>
<path d="M65.0604 69.8759C65.1548 69.3673 65.207 68.8497 65.207 68.3279C65.207 66.0684 64.327 63.9421 62.7247 62.3364C62.3911 62.0036 62.0337 61.7039 61.6583 61.4348L59.1551 63.5563L45.6636 75.1688L47.6725 76.795H56.5902C56.6412 76.7958 56.692 76.7964 56.7429 76.7964C56.9102 76.7964 57.0767 76.7899 57.2426 76.78L63.5576 71.1495L65.0604 69.8759Z" fill="#FFD1C2"/>
<path d="M62.1603 68.3282C62.1603 69.3597 61.872 70.3221 61.3745 71.1424C60.4019 72.7404 58.6273 73.7942 56.6191 73.7496H29.4228L18.5049 70.4419C22.8664 65.7129 29.0695 62.9048 35.7071 62.9048H56.7369C58.2354 62.9048 59.5897 63.5119 60.5725 64.4926C61.5532 65.4753 62.1603 66.8297 62.1603 68.3282Z" fill="#FFE0D1"/>
<path d="M60.0734 1.85028H25.8733C19.8018 1.85028 14.8799 6.77217 14.8799 12.8437V34.1396C14.8799 40.2112 19.8018 45.1331 25.8733 45.1331H30.5069L33.245 51.2836C33.7329 52.3795 35.2883 52.3795 35.7762 51.2836L38.5143 45.1331H60.0736C66.1451 45.1331 71.067 40.2112 71.067 34.1396V12.8437C71.067 6.77217 66.1449 1.85028 60.0734 1.85028Z" fill="#FBE88C"/>
<path d="M17.0814 82.4459L17.8713 80.7789C21.7434 72.6143 29.973 67.4102 39.0086 67.4102H60.0384C60.7827 67.4102 61.4938 67.5617 62.1391 67.8325C62.0213 66.5324 61.4435 65.3647 60.5722 64.4916C59.5894 63.5109 58.2351 62.9037 56.7366 62.9037H35.7069C26.6712 62.9037 18.4417 68.1079 14.5695 76.2725L13.7797 77.9395L3.82137 90.5082C2.9509 91.6067 3.44715 93.2365 4.7822 93.6636L7.50386 94.534L17.0814 82.4459Z" fill="#FFD1C2"/>
<path d="M33.8414 37.5212C29.1331 37.5212 25.3164 33.7045 25.3164 28.9962V5.61723C25.3164 4.26453 25.6327 2.98634 26.1933 1.85028H25.8733C19.8018 1.85028 14.8799 6.77217 14.8799 12.8437V34.1396C14.8799 40.2112 19.8018 45.1331 25.8733 45.1331H30.5069L33.245 51.2836C33.7329 52.3795 35.2883 52.3795 35.7762 51.2836L38.5143 45.1331H60.0736C64.965 45.1331 69.1104 41.9359 70.5371 37.5194L33.8414 37.5212Z" fill="#FBE372"/>
<path d="M43.5731 20.6624C47.4258 20.6624 50.549 17.5392 50.549 13.6865C50.549 9.83383 47.4258 6.7106 43.5731 6.7106C39.7204 6.7106 36.5972 9.83383 36.5972 13.6865C36.5972 17.5392 39.7204 20.6624 43.5731 20.6624Z" fill="#F9F7F7"/>
<path d="M43.5 5.61346C39.0733 5.61346 35.5 9.1868 35.5 13.6135C35.5 18.0401 39.0733 21.6135 43.5 21.6135C47.9267 21.6135 51.5 18.0401 51.5 13.6135C51.5 9.1868 47.9267 5.61346 43.5 5.61346ZM43.5 18.4135C43.1267 17.9335 38.0333 14.9735 39.0733 11.6935C40.0067 8.73346 43.1 9.93347 43.5 11.5335C43.7933 10.0401 46.94 8.68013 47.9267 11.6935C48.9667 14.9201 43.8733 18.0401 43.5 18.4135Z" fill="#FF5A79"/>
<path d="M28.5271 23.8615V28.3815C28.5271 28.5681 28.5591 28.6988 28.6231 28.7735C28.6871 28.8481 28.7938 28.8855 28.9431 28.8855C29.0338 28.8855 29.1084 28.8801 29.1671 28.8695C29.2258 28.8535 29.3004 28.8321 29.3911 28.8055L29.2951 29.5255C29.2044 29.5788 29.0898 29.6188 28.9511 29.6455C28.8178 29.6775 28.6844 29.6935 28.5511 29.6935C28.1618 29.6935 27.8764 29.6001 27.6951 29.4135C27.5191 29.2215 27.4311 28.9175 27.4311 28.5015V23.8615H28.5271ZM31.8258 25.5335C32.2311 25.5335 32.5858 25.6161 32.8898 25.7815C33.1991 25.9468 33.4391 26.1841 33.6098 26.4935C33.7858 26.8028 33.8738 27.1761 33.8738 27.6135C33.8738 28.0455 33.7858 28.4188 33.6098 28.7335C33.4391 29.0428 33.1991 29.2801 32.8898 29.4455C32.5858 29.6108 32.2311 29.6935 31.8258 29.6935C31.4258 29.6935 31.0711 29.6108 30.7618 29.4455C30.4524 29.2801 30.2098 29.0428 30.0338 28.7335C29.8631 28.4188 29.7778 28.0455 29.7778 27.6135C29.7778 27.1761 29.8631 26.8028 30.0338 26.4935C30.2098 26.1841 30.4524 25.9468 30.7618 25.7815C31.0711 25.6161 31.4258 25.5335 31.8258 25.5335ZM31.8258 26.3495C31.6231 26.3495 31.4498 26.3975 31.3058 26.4935C31.1671 26.5841 31.0604 26.7228 30.9858 26.9095C30.9111 27.0961 30.8738 27.3308 30.8738 27.6135C30.8738 27.8961 30.9111 28.1308 30.9858 28.3175C31.0604 28.5041 31.1671 28.6455 31.3058 28.7415C31.4498 28.8321 31.6231 28.8775 31.8258 28.8775C32.0231 28.8775 32.1911 28.8321 32.3298 28.7415C32.4738 28.6455 32.5831 28.5041 32.6578 28.3175C32.7324 28.1308 32.7698 27.8961 32.7698 27.6135C32.7698 27.3308 32.7324 27.0961 32.6578 26.9095C32.5831 26.7228 32.4738 26.5841 32.3298 26.4935C32.1911 26.3975 32.0231 26.3495 31.8258 26.3495ZM37.368 25.6135H38.504L36.984 29.6135H35.72L34.2 25.6135H35.376L36.36 28.7735L37.368 25.6135ZM40.9203 29.6935C40.4989 29.6935 40.1309 29.6108 39.8163 29.4455C39.5069 29.2801 39.2669 29.0428 39.0963 28.7335C38.9256 28.4241 38.8403 28.0508 38.8403 27.6135C38.8403 27.1761 38.9256 26.8028 39.0963 26.4935C39.2669 26.1841 39.5043 25.9468 39.8083 25.7815C40.1176 25.6161 40.4696 25.5335 40.8643 25.5335C41.2696 25.5335 41.6136 25.6161 41.8963 25.7815C42.1789 25.9415 42.3949 26.1628 42.5443 26.4455C42.6936 26.7228 42.7683 27.0401 42.7683 27.3975C42.7683 27.5041 42.7656 27.6055 42.7603 27.7015C42.7549 27.7975 42.7469 27.8828 42.7363 27.9575H39.5443V27.1975H42.2563L41.7283 27.3895C41.7283 27.0535 41.6509 26.7948 41.4963 26.6135C41.3469 26.4321 41.1336 26.3415 40.8563 26.3415C40.6536 26.3415 40.4776 26.3895 40.3283 26.4855C40.1843 26.5815 40.0749 26.7255 40.0003 26.9175C39.9256 27.1041 39.8883 27.3415 39.8883 27.6295C39.8883 27.9121 39.9283 28.1468 40.0083 28.3335C40.0936 28.5148 40.2109 28.6508 40.3603 28.7415C40.5149 28.8321 40.6989 28.8775 40.9123 28.8775C41.1469 28.8775 41.3363 28.8321 41.4803 28.7415C41.6243 28.6508 41.7363 28.5255 41.8163 28.3655L42.6883 28.7015C42.6029 28.9095 42.4723 29.0881 42.2963 29.2375C42.1256 29.3868 41.9203 29.5015 41.6803 29.5815C41.4456 29.6561 41.1923 29.6935 40.9203 29.6935ZM48.4224 27.0615C48.4224 26.8321 48.3557 26.6535 48.2224 26.5255C48.0944 26.3975 47.9237 26.3335 47.7104 26.3335C47.5131 26.3335 47.3397 26.3841 47.1904 26.4855C47.0411 26.5868 46.9317 26.7548 46.8624 26.9895L45.9264 26.7015C46.0171 26.3495 46.2144 26.0668 46.5184 25.8535C46.8277 25.6401 47.2411 25.5335 47.7584 25.5335C48.1104 25.5335 48.4171 25.5895 48.6784 25.7015C48.9397 25.8081 49.1424 25.9708 49.2864 26.1895C49.4357 26.4081 49.5104 26.6828 49.5104 27.0135V28.6375C49.5104 28.8401 49.6064 28.9415 49.7984 28.9415C49.8891 28.9415 49.9744 28.9281 50.0544 28.9015L49.9904 29.5815C49.8517 29.6508 49.6784 29.6855 49.4704 29.6855C49.2837 29.6855 49.1157 29.6535 48.9664 29.5895C48.8171 29.5255 48.6997 29.4295 48.6144 29.3015C48.5291 29.1681 48.4864 29.0028 48.4864 28.8055V28.7735L48.6784 28.7415C48.6464 28.9441 48.5584 29.1175 48.4144 29.2615C48.2704 29.4001 48.0944 29.5068 47.8864 29.5815C47.6837 29.6561 47.4731 29.6935 47.2544 29.6935C46.9824 29.6935 46.7477 29.6535 46.5504 29.5735C46.3531 29.4881 46.2011 29.3655 46.0944 29.2055C45.9877 29.0455 45.9344 28.8481 45.9344 28.6135C45.9344 28.3148 46.0304 28.0721 46.2224 27.8855C46.4144 27.6935 46.6891 27.5628 47.0464 27.4935L48.5504 27.1895L48.5424 27.8695L47.5824 28.0615C47.4011 28.0988 47.2624 28.1495 47.1664 28.2135C47.0757 28.2721 47.0304 28.3708 47.0304 28.5095C47.0304 28.6428 47.0784 28.7441 47.1744 28.8135C47.2757 28.8828 47.3957 28.9175 47.5344 28.9175C47.6464 28.9175 47.7557 28.9041 47.8624 28.8775C47.9691 28.8508 48.0651 28.8081 48.1504 28.7495C48.2357 28.6908 48.3024 28.6108 48.3504 28.5095C48.3984 28.4081 48.4224 28.2855 48.4224 28.1415V27.0615ZM50.7362 29.6135V25.6135H51.7202L51.7842 26.8135L51.6482 26.6855C51.7122 26.4241 51.8135 26.2108 51.9522 26.0455C52.0908 25.8748 52.2588 25.7468 52.4562 25.6615C52.6588 25.5761 52.8802 25.5335 53.1202 25.5335C53.3975 25.5335 53.6428 25.5868 53.8562 25.6935C54.0748 25.8001 54.2455 25.9628 54.3682 26.1815C54.4962 26.3948 54.5602 26.6641 54.5602 26.9895V29.6135H53.4642V27.3015C53.4642 26.9601 53.3975 26.7255 53.2642 26.5975C53.1308 26.4641 52.9575 26.3975 52.7442 26.3975C52.5948 26.3975 52.4482 26.4348 52.3042 26.5095C52.1655 26.5788 52.0508 26.6935 51.9602 26.8535C51.8748 27.0135 51.8322 27.2268 51.8322 27.4935V29.6135H50.7362ZM57.2013 29.6935C56.8706 29.6935 56.5746 29.6108 56.3133 29.4455C56.0573 29.2801 55.8546 29.0428 55.7053 28.7335C55.5613 28.4241 55.4893 28.0535 55.4893 27.6215C55.4893 27.1788 55.5666 26.8028 55.7213 26.4935C55.8759 26.1788 56.0839 25.9415 56.3453 25.7815C56.6119 25.6161 56.9106 25.5335 57.2413 25.5335C57.5933 25.5335 57.8839 25.6348 58.1133 25.8375C58.3426 26.0401 58.4919 26.3015 58.5613 26.6215L58.4573 26.7495V23.8615H59.5533V29.6135H58.5693L58.4973 28.3975L58.6253 28.4615C58.5933 28.7121 58.5106 28.9308 58.3773 29.1175C58.2439 29.2988 58.0759 29.4401 57.8733 29.5415C57.6706 29.6428 57.4466 29.6935 57.2013 29.6935ZM57.5213 28.8535C57.7133 28.8535 57.8786 28.8055 58.0173 28.7095C58.1559 28.6081 58.2626 28.4615 58.3373 28.2695C58.4173 28.0775 58.4573 27.8481 58.4573 27.5815C58.4573 27.3255 58.4199 27.1095 58.3453 26.9335C58.2706 26.7521 58.1639 26.6135 58.0253 26.5175C57.8866 26.4215 57.7239 26.3735 57.5373 26.3735C57.2386 26.3735 57.0039 26.4801 56.8333 26.6935C56.6679 26.9015 56.5853 27.2081 56.5853 27.6135C56.5853 28.0188 56.6679 28.3281 56.8333 28.5415C56.9986 28.7495 57.2279 28.8535 57.5213 28.8535ZM22.4154 34.5335C22.7728 34.5335 23.0741 34.5868 23.3194 34.6935C23.5701 34.7948 23.7701 34.9361 23.9194 35.1175C24.0741 35.2935 24.1834 35.4908 24.2474 35.7095L23.2234 36.0775C23.1701 35.8375 23.0794 35.6561 22.9514 35.5335C22.8234 35.4108 22.6501 35.3495 22.4314 35.3495C22.2288 35.3495 22.0554 35.3975 21.9114 35.4935C21.7674 35.5841 21.6581 35.7255 21.5834 35.9175C21.5088 36.1041 21.4714 36.3388 21.4714 36.6215C21.4714 36.9041 21.5088 37.1388 21.5834 37.3255C21.6634 37.5121 21.7754 37.6508 21.9194 37.7415C22.0688 37.8321 22.2421 37.8775 22.4394 37.8775C22.5994 37.8775 22.7354 37.8508 22.8474 37.7975C22.9594 37.7388 23.0501 37.6561 23.1194 37.5495C23.1941 37.4428 23.2448 37.3148 23.2714 37.1655L24.2634 37.4855C24.2048 37.7255 24.0954 37.9361 23.9354 38.1175C23.7754 38.2988 23.5701 38.4401 23.3194 38.5415C23.0688 38.6428 22.7781 38.6935 22.4474 38.6935C22.0368 38.6935 21.6741 38.6108 21.3594 38.4455C21.0448 38.2801 20.8021 38.0428 20.6314 37.7335C20.4608 37.4241 20.3754 37.0508 20.3754 36.6135C20.3754 36.1761 20.4608 35.8028 20.6314 35.4935C20.8021 35.1841 21.0421 34.9468 21.3514 34.7815C21.6608 34.6161 22.0154 34.5335 22.4154 34.5335ZM26.9391 34.5335C27.3444 34.5335 27.6991 34.6161 28.0031 34.7815C28.3124 34.9468 28.5524 35.1841 28.7231 35.4935C28.8991 35.8028 28.9871 36.1761 28.9871 36.6135C28.9871 37.0455 28.8991 37.4188 28.7231 37.7335C28.5524 38.0428 28.3124 38.2801 28.0031 38.4455C27.6991 38.6108 27.3444 38.6935 26.9391 38.6935C26.5391 38.6935 26.1844 38.6108 25.8751 38.4455C25.5657 38.2801 25.3231 38.0428 25.1471 37.7335C24.9764 37.4188 24.8911 37.0455 24.8911 36.6135C24.8911 36.1761 24.9764 35.8028 25.1471 35.4935C25.3231 35.1841 25.5657 34.9468 25.8751 34.7815C26.1844 34.6161 26.5391 34.5335 26.9391 34.5335ZM26.9391 35.3495C26.7364 35.3495 26.5631 35.3975 26.4191 35.4935C26.2804 35.5841 26.1737 35.7228 26.0991 35.9095C26.0244 36.0961 25.9871 36.3308 25.9871 36.6135C25.9871 36.8961 26.0244 37.1308 26.0991 37.3175C26.1737 37.5041 26.2804 37.6455 26.4191 37.7415C26.5631 37.8321 26.7364 37.8775 26.9391 37.8775C27.1364 37.8775 27.3044 37.8321 27.4431 37.7415C27.5871 37.6455 27.6964 37.5041 27.7711 37.3175C27.8457 37.1308 27.8831 36.8961 27.8831 36.6135C27.8831 36.3308 27.8457 36.0961 27.7711 35.9095C27.6964 35.7228 27.5871 35.5841 27.4431 35.4935C27.3044 35.3975 27.1364 35.3495 26.9391 35.3495ZM29.9041 38.6135V34.6135H30.8881L30.9281 35.3335C31.0615 35.0668 31.2428 34.8668 31.4721 34.7335C31.7068 34.6001 31.9655 34.5335 32.2481 34.5335C32.5361 34.5335 32.7948 34.6001 33.0241 34.7335C33.2588 34.8668 33.4348 35.0641 33.5521 35.3255C33.6375 35.1495 33.7521 35.0028 33.8961 34.8855C34.0401 34.7681 34.2001 34.6801 34.3761 34.6215C34.5521 34.5628 34.7308 34.5335 34.9121 34.5335C35.1735 34.5335 35.4108 34.5868 35.6241 34.6935C35.8428 34.8001 36.0161 34.9601 36.1441 35.1735C36.2721 35.3868 36.3361 35.6588 36.3361 35.9895V38.6135H35.2401V36.2055C35.2401 35.9121 35.1761 35.7041 35.0481 35.5815C34.9201 35.4588 34.7548 35.3975 34.5521 35.3975C34.3921 35.3975 34.2428 35.4375 34.1041 35.5175C33.9708 35.5975 33.8641 35.7175 33.7841 35.8775C33.7095 36.0321 33.6721 36.2268 33.6721 36.4615V38.6135H32.5761V36.2055C32.5761 35.9121 32.5095 35.7041 32.3761 35.5815C32.2481 35.4588 32.0828 35.3975 31.8801 35.3975C31.7415 35.3975 31.6028 35.4348 31.4641 35.5095C31.3308 35.5841 31.2188 35.7015 31.1281 35.8615C31.0428 36.0215 31.0001 36.2321 31.0001 36.4935V38.6135H29.9041ZM37.4666 40.2935V34.6135H38.4506L38.5226 35.8855L38.3866 35.7415C38.4346 35.5068 38.5226 35.2988 38.6506 35.1175C38.784 34.9361 38.952 34.7948 39.1546 34.6935C39.3573 34.5868 39.584 34.5335 39.8346 34.5335C40.16 34.5335 40.4506 34.6161 40.7066 34.7815C40.9626 34.9468 41.1626 35.1841 41.3066 35.4935C41.456 35.7975 41.5306 36.1681 41.5306 36.6055C41.5306 37.0428 41.456 37.4188 41.3066 37.7335C41.1573 38.0428 40.952 38.2801 40.6906 38.4455C40.4346 38.6108 40.1413 38.6935 39.8106 38.6935C39.4586 38.6935 39.1653 38.5948 38.9306 38.3975C38.7013 38.2001 38.544 37.9521 38.4586 37.6535L38.5626 37.4855V40.2935H37.4666ZM39.4906 37.8535C39.784 37.8535 40.0133 37.7495 40.1786 37.5415C40.3493 37.3281 40.4346 37.0188 40.4346 36.6135C40.4346 36.2081 40.352 35.9015 40.1866 35.6935C40.0266 35.4801 39.8 35.3735 39.5066 35.3735C39.32 35.3735 39.1546 35.4241 39.0106 35.5255C38.872 35.6215 38.7626 35.7628 38.6826 35.9495C38.6026 36.1308 38.5626 36.3521 38.5626 36.6135C38.5626 36.8641 38.6 37.0855 38.6746 37.2775C38.7493 37.4641 38.856 37.6081 38.9946 37.7095C39.1386 37.8055 39.304 37.8535 39.4906 37.8535ZM44.7388 36.0615C44.7388 35.8321 44.6721 35.6535 44.5388 35.5255C44.4108 35.3975 44.2401 35.3335 44.0268 35.3335C43.8295 35.3335 43.6561 35.3841 43.5068 35.4855C43.3575 35.5868 43.2481 35.7548 43.1788 35.9895L42.2428 35.7015C42.3335 35.3495 42.5308 35.0668 42.8348 34.8535C43.1441 34.6401 43.5575 34.5335 44.0748 34.5335C44.4268 34.5335 44.7335 34.5895 44.9948 34.7015C45.2561 34.8081 45.4588 34.9708 45.6028 35.1895C45.7521 35.4081 45.8268 35.6828 45.8268 36.0135V37.6375C45.8268 37.8401 45.9228 37.9415 46.1148 37.9415C46.2055 37.9415 46.2908 37.9281 46.3708 37.9015L46.3068 38.5815C46.1681 38.6508 45.9948 38.6855 45.7868 38.6855C45.6001 38.6855 45.4321 38.6535 45.2828 38.5895C45.1335 38.5255 45.0161 38.4295 44.9308 38.3015C44.8455 38.1681 44.8028 38.0028 44.8028 37.8055V37.7735L44.9948 37.7415C44.9628 37.9441 44.8748 38.1175 44.7308 38.2615C44.5868 38.4001 44.4108 38.5068 44.2028 38.5815C44.0001 38.6561 43.7895 38.6935 43.5708 38.6935C43.2988 38.6935 43.0641 38.6535 42.8668 38.5735C42.6695 38.4881 42.5175 38.3655 42.4108 38.2055C42.3041 38.0455 42.2508 37.8481 42.2508 37.6135C42.2508 37.3148 42.3468 37.0721 42.5388 36.8855C42.7308 36.6935 43.0055 36.5628 43.3628 36.4935L44.8668 36.1895L44.8588 36.8695L43.8988 37.0615C43.7175 37.0988 43.5788 37.1495 43.4828 37.2135C43.3921 37.2721 43.3468 37.3708 43.3468 37.5095C43.3468 37.6428 43.3948 37.7441 43.4908 37.8135C43.5921 37.8828 43.7121 37.9175 43.8508 37.9175C43.9628 37.9175 44.0721 37.9041 44.1788 37.8775C44.2855 37.8508 44.3815 37.8081 44.4668 37.7495C44.5521 37.6908 44.6188 37.6108 44.6668 37.5095C44.7148 37.4081 44.7388 37.2855 44.7388 37.1415V36.0615ZM48.6526 38.6935C48.2472 38.6935 47.8766 38.6215 47.5406 38.4775C47.2099 38.3335 46.9406 38.1308 46.7326 37.8695L47.3646 37.2295C47.4926 37.4215 47.6632 37.5788 47.8766 37.7015C48.0899 37.8241 48.3432 37.8855 48.6366 37.8855C48.8446 37.8855 49.0099 37.8561 49.1326 37.7975C49.2606 37.7335 49.3246 37.6348 49.3246 37.5015C49.3246 37.4161 49.2952 37.3441 49.2366 37.2855C49.1779 37.2215 49.0606 37.1708 48.8846 37.1335L48.1806 36.9895C47.7166 36.8935 47.3859 36.7495 47.1886 36.5575C46.9966 36.3601 46.9006 36.1068 46.9006 35.7975C46.9006 35.5788 46.9646 35.3735 47.0926 35.1815C47.2259 34.9895 47.4232 34.8348 47.6846 34.7175C47.9459 34.5948 48.2712 34.5335 48.6606 34.5335C49.0606 34.5335 49.4072 34.5975 49.7006 34.7255C49.9992 34.8481 50.2339 35.0321 50.4046 35.2775L49.7486 35.9175C49.6312 35.7308 49.4766 35.5895 49.2846 35.4935C49.0979 35.3921 48.9006 35.3415 48.6926 35.3415C48.5432 35.3415 48.4152 35.3575 48.3086 35.3895C48.2019 35.4215 48.1219 35.4668 48.0686 35.5255C48.0152 35.5788 47.9886 35.6481 47.9886 35.7335C47.9886 35.8188 48.0259 35.8935 48.1006 35.9575C48.1752 36.0161 48.3112 36.0668 48.5086 36.1095L49.3246 36.2775C49.7192 36.3575 50.0019 36.4935 50.1726 36.6855C50.3432 36.8721 50.4286 37.0988 50.4286 37.3655C50.4286 37.6215 50.3592 37.8508 50.2206 38.0535C50.0872 38.2508 49.8872 38.4081 49.6206 38.5255C49.3592 38.6375 49.0366 38.6935 48.6526 38.6935ZM52.9026 38.6935C52.4972 38.6935 52.1266 38.6215 51.7906 38.4775C51.4599 38.3335 51.1906 38.1308 50.9826 37.8695L51.6146 37.2295C51.7426 37.4215 51.9132 37.5788 52.1266 37.7015C52.3399 37.8241 52.5932 37.8855 52.8866 37.8855C53.0946 37.8855 53.2599 37.8561 53.3826 37.7975C53.5106 37.7335 53.5746 37.6348 53.5746 37.5015C53.5746 37.4161 53.5452 37.3441 53.4866 37.2855C53.4279 37.2215 53.3106 37.1708 53.1346 37.1335L52.4306 36.9895C51.9666 36.8935 51.6359 36.7495 51.4386 36.5575C51.2466 36.3601 51.1506 36.1068 51.1506 35.7975C51.1506 35.5788 51.2146 35.3735 51.3426 35.1815C51.4759 34.9895 51.6732 34.8348 51.9346 34.7175C52.1959 34.5948 52.5212 34.5335 52.9106 34.5335C53.3106 34.5335 53.6572 34.5975 53.9506 34.7255C54.2492 34.8481 54.4839 35.0321 54.6546 35.2775L53.9986 35.9175C53.8812 35.7308 53.7266 35.5895 53.5346 35.4935C53.3479 35.3921 53.1506 35.3415 52.9426 35.3415C52.7932 35.3415 52.6652 35.3575 52.5586 35.3895C52.4519 35.4215 52.3719 35.4668 52.3186 35.5255C52.2652 35.5788 52.2386 35.6481 52.2386 35.7335C52.2386 35.8188 52.2759 35.8935 52.3506 35.9575C52.4252 36.0161 52.5612 36.0668 52.7586 36.1095L53.5746 36.2775C53.9692 36.3575 54.2519 36.4935 54.4226 36.6855C54.5932 36.8721 54.6786 37.0988 54.6786 37.3655C54.6786 37.6215 54.6092 37.8508 54.4706 38.0535C54.3372 38.2508 54.1372 38.4081 53.8706 38.5255C53.6092 38.6375 53.2866 38.6935 52.9026 38.6935ZM56.1046 34.0375C55.8752 34.0375 55.7046 33.9895 55.5926 33.8935C55.4806 33.7921 55.4246 33.6455 55.4246 33.4535C55.4246 33.2561 55.4806 33.1095 55.5926 33.0135C55.7046 32.9121 55.8752 32.8615 56.1046 32.8615C56.3339 32.8615 56.5046 32.9121 56.6166 33.0135C56.7286 33.1095 56.7846 33.2561 56.7846 33.4535C56.7846 33.6455 56.7286 33.7921 56.6166 33.8935C56.5046 33.9895 56.3339 34.0375 56.1046 34.0375ZM56.6486 34.6135V38.6135H55.5526V34.6135H56.6486ZM59.6344 34.5335C60.0397 34.5335 60.3944 34.6161 60.6984 34.7815C61.0077 34.9468 61.2477 35.1841 61.4184 35.4935C61.5944 35.8028 61.6824 36.1761 61.6824 36.6135C61.6824 37.0455 61.5944 37.4188 61.4184 37.7335C61.2477 38.0428 61.0077 38.2801 60.6984 38.4455C60.3944 38.6108 60.0397 38.6935 59.6344 38.6935C59.2344 38.6935 58.8797 38.6108 58.5704 38.4455C58.261 38.2801 58.0184 38.0428 57.8424 37.7335C57.6717 37.4188 57.5864 37.0455 57.5864 36.6135C57.5864 36.1761 57.6717 35.8028 57.8424 35.4935C58.0184 35.1841 58.261 34.9468 58.5704 34.7815C58.8797 34.6161 59.2344 34.5335 59.6344 34.5335ZM59.6344 35.3495C59.4317 35.3495 59.2584 35.3975 59.1144 35.4935C58.9757 35.5841 58.869 35.7228 58.7944 35.9095C58.7197 36.0961 58.6824 36.3308 58.6824 36.6135C58.6824 36.8961 58.7197 37.1308 58.7944 37.3175C58.869 37.5041 58.9757 37.6455 59.1144 37.7415C59.2584 37.8321 59.4317 37.8775 59.6344 37.8775C59.8317 37.8775 59.9997 37.8321 60.1384 37.7415C60.2824 37.6455 60.3917 37.5041 60.4664 37.3175C60.541 37.1308 60.5784 36.8961 60.5784 36.6135C60.5784 36.3308 60.541 36.0961 60.4664 35.9095C60.3917 35.7228 60.2824 35.5841 60.1384 35.4935C59.9997 35.3975 59.8317 35.3495 59.6344 35.3495ZM62.5994 38.6135V34.6135H63.5834L63.6474 35.8135L63.5114 35.6855C63.5754 35.4241 63.6768 35.2108 63.8154 35.0455C63.9541 34.8748 64.1221 34.7468 64.3194 34.6615C64.5221 34.5761 64.7434 34.5335 64.9834 34.5335C65.2608 34.5335 65.5061 34.5868 65.7194 34.6935C65.9381 34.8001 66.1088 34.9628 66.2314 35.1815C66.3594 35.3948 66.4234 35.6641 66.4234 35.9895V38.6135H65.3274V36.3015C65.3274 35.9601 65.2608 35.7255 65.1274 35.5975C64.9941 35.4641 64.8208 35.3975 64.6074 35.3975C64.4581 35.3975 64.3114 35.4348 64.1674 35.5095C64.0288 35.5788 63.9141 35.6935 63.8234 35.8535C63.7381 36.0135 63.6954 36.2268 63.6954 36.4935V38.6135H62.5994Z" fill="#D0AF16"/>
</g>
<defs>
<clipPath id="clip0">
<rect width="100" height="100" fill="white" transform="translate(0.5 0.327454)"/>
</clipPath>
</defs>
</svg>
