<svg width="101" height="101" viewBox="0 0 101 101" fill="none" xmlns="http://www.w3.org/2000/svg">
<g clip-path="url(#clip0)">
<path d="M93.7448 72.463L85.883 69.2454H82.7387L75.0332 72.4632C74.2401 72.795 73.5134 73.24 72.8649 73.7746L67.8623 78.0968L68.5738 83.1365L71.28 83.3026L71.4808 85.623L71.4818 85.6294H98.0149C98.6927 85.6294 99.2422 85.0799 99.2422 84.4021V80.9423C99.2422 77.2097 97.0656 73.8527 93.7448 72.463Z" fill="#B3E5EE"/>
<path d="M85.883 69.2454H82.7387L81.7707 69.6496L75.0332 72.4632C74.2401 72.795 73.5134 73.24 72.8649 73.7746L67.8623 78.0968L68.1155 79.8908L68.5738 83.1365L69.5354 83.1956L71.28 83.3026L71.4808 85.6229L71.4818 85.6294H76.099C76.4297 84.9389 76.6153 84.1665 76.6153 83.3514V77.0214C76.6153 76.649 76.5996 76.2789 76.5693 75.9114C76.5018 75.0934 76.9744 74.3269 77.7319 74.0106L79.2176 73.3902C79.6618 73.2047 80.1806 73.2998 80.5137 73.6473C81.4922 74.6671 82.8672 75.3031 84.3889 75.3031C87.0542 75.3031 89.2718 73.3527 89.6917 70.8044L85.883 69.2454Z" fill="#86D7E5"/>
<path d="M87.7575 69.9283C87.7575 71.7879 86.2501 73.2953 84.3905 73.2953C82.5308 73.2953 81.0234 71.7879 81.0234 69.9283V60.1613H87.7575V69.9283Z" fill="#FFD1C2"/>
<path d="M91.5216 63.9399L91.7925 63.9815C97.6629 64.883 102.227 58.9654 99.864 53.5166L97.5992 48.2949C97.3757 47.7794 97.2219 47.2366 97.142 46.6805C96.2394 40.4085 90.8655 35.7523 84.5289 35.7523C78.1922 35.7523 72.8183 40.4085 71.9158 46.6805C71.8358 47.2366 71.682 47.7796 71.4585 48.2949L69.194 53.5168C66.8309 58.9656 71.395 64.883 77.2654 63.9817L77.5363 63.9401L82.2625 62.0869H86.371L91.5216 63.9399Z" fill="#A59CA6"/>
<path d="M56.8567 65.9333H44.0669V44.8282H57.1312L56.8567 65.9333Z" fill="#FFD1C2"/>
<path d="M32.5722 75.3007L28.6406 72.278C27.7999 71.6521 26.8586 71.1424 25.8344 70.7797L20.3712 68.8447L17.8883 68.0776H15.0585L13.0643 68.8447L7.60102 70.7797C3.3447 72.2871 0.5 76.3126 0.5 80.8278V84.2983C0.5 85.0333 1.09585 85.629 1.83067 85.629H27.3201C27.3207 85.628 30.6751 78.9919 32.5722 75.3007Z" fill="#B3E5EE"/>
<path d="M61.0899 62.8277L68.5556 67.7739C71.7164 69.8679 73.6046 73.3265 73.6046 77.0219V83.3518C73.6046 84.61 72.5846 85.6298 71.3266 85.6298H27.3208V77.0219C27.3208 73.3265 29.209 69.8679 32.3698 67.7739L39.8355 62.8277L44.0679 60.1676L51.3404 63.2469C51.3404 63.2469 56.9198 60.3242 57.1365 60.1676C57.3532 60.011 61.0899 62.8277 61.0899 62.8277Z" fill="#F9F7F7"/>
<path d="M60.2699 19.4194L59.3381 19.2809L50.4615 18.4163C50.4615 18.4163 49.2992 37.546 49.508 37.546C49.7169 37.546 55.1368 41.3838 55.1368 41.3838H65.9834L66.4935 36.9797L67.586 29.2117C68.2507 24.4925 64.9833 20.1205 60.2699 19.4194Z" fill="#A59CA6"/>
<path d="M63.0249 29.5905L63.0545 29.4987C64.0317 26.465 64.0122 23.2863 63.045 20.3268C62.1991 19.8795 61.2689 19.568 60.2694 19.4194L59.3376 19.2809L50.4611 18.4163C50.4611 18.4163 49.2987 37.546 49.5075 37.546C49.7164 37.546 55.1363 41.3838 55.1363 41.3838H58.3744L63.0249 29.5905Z" fill="#8F8390"/>
<path d="M59.3392 19.281C60.8193 22.0303 61.225 25.358 60.1887 28.5753L55.1379 41.384H36.449L34.7219 36.6184C33.764 34.2928 33.29 31.8367 33.29 29.3886C33.29 25.8962 34.254 22.422 36.1478 19.3754C39.4112 14.1238 45.7573 11.6677 51.7058 13.3546L52.0994 13.4671C55.3347 14.3829 57.8671 16.5458 59.3392 19.281Z" fill="#A59CA6"/>
<path d="M63.9324 44.0217C65.9768 44.0217 67.6342 42.3642 67.6342 40.3198C67.6342 38.2754 65.9768 36.618 63.9324 36.618H55.9014V44.0219H63.9324V44.0217Z" fill="#FFD1C2"/>
<path d="M36.9919 44.0217C34.9475 44.0217 33.29 42.3642 33.29 40.3198C33.29 38.2754 34.9475 36.618 36.9919 36.618H45.0229V44.0219H36.9919V44.0217Z" fill="#FFD1C2"/>
<path d="M28.9935 52.7816L29.3208 48.9076C30.0249 40.2725 21.3223 33.9664 13.3359 37.3244L10.2022 38.642C6.23967 39.4469 3.58796 43.1965 4.14967 47.2008L4.92707 52.7432L5.68137 56.5081C5.68137 56.5081 28.393 56.7471 28.393 56.5081C28.393 56.2691 28.9935 52.7816 28.9935 52.7816Z" fill="#A59CA6"/>
<path d="M20.3714 68.8447L17.8885 68.0776H15.0585L13.6601 68.6154L13.0643 68.8447L7.60101 70.7797C3.3447 72.2873 0.5 76.3128 0.5 80.828V84.2985C0.5 85.0335 1.09585 85.6292 1.83067 85.6292H4.33498V82.193C4.33498 77.6781 7.17948 73.6527 11.4354 72.1449L11.4503 72.1397C11.7625 72.029 12.1043 72.1371 12.3126 72.3949C13.3509 73.6816 14.9394 74.5062 16.7177 74.5062C19.604 74.5062 21.991 72.3349 22.3352 69.5402L20.3714 68.8447Z" fill="#86D7E5"/>
<path d="M20.3723 68.8446C20.3723 70.8623 18.7366 72.498 16.7189 72.498C14.7012 72.498 13.0654 70.8623 13.0654 68.8446V58.7097H20.3725V68.8446H20.3723Z" fill="#FFD1C2"/>
<path d="M26.9112 58.6102C28.7262 58.6102 30.1975 57.1389 30.1975 55.3238C30.1975 53.5088 28.7262 52.0375 26.9112 52.0375H19.6816V58.6497L26.9112 58.6102Z" fill="#FFD1C2"/>
<path d="M6.95819 58.6102C5.14313 58.6102 3.67188 57.1389 3.67188 55.3238C3.67188 53.5088 5.14313 52.0375 6.95819 52.0375H13.6606V58.6102H6.95819Z" fill="#FFD1C2"/>
<path d="M50.4611 55.3243C57.0793 55.3243 62.4444 49.9592 62.4444 43.341V34.9904C62.4444 32.004 61.1415 29.1659 58.8767 27.2191L57.2342 25.8073C56.8526 25.4793 56.2913 25.4707 55.8999 25.7868L54.1467 27.2028H45.969C41.8318 27.2028 38.478 30.5566 38.478 34.6938V43.341C38.4778 49.9592 43.8429 55.3243 50.4611 55.3243Z" fill="#FFE0D1"/>
<path d="M45.7073 31.1185H56.3221C57.0461 31.1185 57.7514 30.8894 58.337 30.4638L59.9505 29.2916C60.126 29.1641 60.3294 29.0805 60.5371 29.0347C60.0633 28.3712 59.5076 27.7607 58.8776 27.2191L57.2351 25.8073C56.8535 25.4793 56.2922 25.4707 55.9006 25.7868L54.1474 27.2028H45.9697C42.2157 27.2028 39.1071 29.9597 38.5635 33.562C40.4619 32.0403 42.9638 31.1185 45.7073 31.1185Z" fill="#FFD1C2"/>
<path d="M51.9684 85.6295V63.3639C51.9684 63.2195 51.947 63.0803 51.909 62.948C51.559 63.1317 51.3399 63.2464 51.3399 63.2464L49.3151 62.3891C49.0916 62.652 48.9561 62.9918 48.9561 63.3639V85.6295H51.9684Z" fill="#F2EAE7"/>
<path d="M61.0899 62.8267C61.0899 62.8267 57.3532 60.0101 57.1365 60.1666C56.9198 60.323 51.3404 63.2458 51.3404 63.2458L44.0679 60.1666L41.1852 61.9782L39.8355 62.8265L32.3698 67.7727C29.209 69.8667 27.3208 73.3253 27.3208 77.0207V85.6285H32.1085V79.2489C32.1085 75.5535 33.9967 72.0946 37.1575 70.0006L38.8145 68.9029C39.4632 68.4731 40.3343 68.6244 40.8003 69.2473C41.4947 70.1757 42.5061 70.8387 43.6498 71.0291C44.3242 71.1413 45.0064 71.0957 45.6534 70.8991L50.4628 69.4355L55.2728 70.8993C55.6871 71.0252 56.1167 71.0891 56.5495 71.0891H56.5497C57.9259 71.0891 59.2399 70.4312 60.0643 69.3289L63.5023 64.7321C63.5541 64.6629 63.5989 64.5908 63.6459 64.5193L61.0899 62.8267Z" fill="#F2EAE7"/>
<path d="M44.0683 58.7783L50.4632 61.914V66.2874L44.7768 68.0179C44.2221 68.1866 43.6213 67.9898 43.274 67.5255L39.8359 62.9286C39.4372 62.3956 39.5222 61.6447 40.0295 61.2139L42.6989 58.9488C43.0808 58.6247 43.6185 58.5578 44.0683 58.7783Z" fill="#F9F7F7"/>
<path d="M56.8563 58.7783L50.4614 61.914V66.2874L56.1478 68.0179C56.7025 68.1866 57.3034 67.9898 57.6506 67.5255L61.0888 62.9286C61.4874 62.3956 61.4024 61.6447 60.8952 61.2139L58.2258 58.9488C57.8436 58.6247 57.306 58.5578 56.8563 58.7783Z" fill="#F9F7F7"/>
<path d="M37.3908 85.6296V77.6974C37.3908 76.8653 36.7164 76.1912 35.8846 76.1912C35.0528 76.1912 34.3784 76.8653 34.3784 77.6974V85.6296H37.3908Z" fill="#F2EAE7"/>
<path d="M66.5456 85.6296V77.6974C66.5456 76.8653 65.8712 76.1912 65.0394 76.1912C64.2076 76.1912 63.5332 76.8653 63.5332 77.6974V85.6296H66.5456Z" fill="#F2EAE7"/>
<path d="M92.855 49.4217V59.0221C92.855 63.6207 89.1271 67.3486 84.5286 67.3486C79.9301 67.3486 76.2021 63.6207 76.2021 59.0221V51.7966C76.2021 49.5737 76.9591 47.417 78.3482 45.6815C78.5898 45.3796 79.0312 45.3324 79.3312 45.5764L79.7198 45.8925C81.4688 47.3156 83.6397 48.1195 85.8938 48.1789L91.7963 48.3346C92.3855 48.35 92.855 48.8322 92.855 49.4217Z" fill="#FFE0D1"/>
<path d="M77.255 47.8424L77.75 48.1585C79.9776 49.5815 82.7422 50.3854 85.6128 50.4449L92.8554 50.5949V49.4219C92.8554 48.8324 92.3859 48.3502 91.7966 48.3348L85.8941 48.1791C83.6401 48.1197 81.4691 47.3158 79.7201 45.8927L79.3315 45.5764C79.0315 45.3324 78.5901 45.3796 78.3485 45.6815C77.8362 46.3213 77.4108 47.0188 77.0767 47.7556C77.1387 47.7791 77.199 47.8066 77.255 47.8424Z" fill="#FFD1C2"/>
<path d="M10.5512 46.7727C9.54832 48.1578 9.0083 49.8243 9.0083 51.5343V58.5642C9.0083 62.9421 12.5571 66.4909 16.9349 66.4909C21.3127 66.4909 24.8615 62.9421 24.8615 58.5642V50.7901C24.8615 50.2217 24.4008 49.7612 23.8327 49.7612H20.1134C17.1177 49.7612 14.2043 48.7814 11.8175 46.9711L11.3913 46.648C11.126 46.4464 10.7467 46.5028 10.5512 46.7727Z" fill="#FFE0D1"/>
<path d="M9.50549 49.0001C12.785 51.4874 16.7881 52.8337 20.9042 52.8337H24.8621V50.7891C24.8621 50.2207 24.4014 49.76 23.8332 49.76H20.1139C17.1182 49.76 14.2048 48.7802 11.818 46.97L11.3919 46.6468C11.1264 46.4454 10.7472 46.5018 10.5516 46.7718C10.068 47.4397 9.69326 48.1733 9.43359 48.9455L9.50549 49.0001Z" fill="#FFD1C2"/>
<path d="M22.0276 94.6935C21.6222 94.6935 21.2516 94.6215 20.9156 94.4775C20.5849 94.3335 20.3156 94.1308 20.1076 93.8695L20.7396 93.2295C20.8676 93.4215 21.0382 93.5788 21.2516 93.7015C21.4649 93.8241 21.7182 93.8855 22.0116 93.8855C22.2196 93.8855 22.3849 93.8561 22.5076 93.7975C22.6356 93.7335 22.6996 93.6348 22.6996 93.5015C22.6996 93.4161 22.6702 93.3441 22.6116 93.2855C22.5529 93.2215 22.4356 93.1708 22.2596 93.1335L21.5556 92.9895C21.0916 92.8935 20.7609 92.7495 20.5636 92.5575C20.3716 92.3601 20.2756 92.1068 20.2756 91.7975C20.2756 91.5788 20.3396 91.3735 20.4676 91.1815C20.6009 90.9895 20.7982 90.8348 21.0596 90.7175C21.3209 90.5948 21.6462 90.5335 22.0356 90.5335C22.4356 90.5335 22.7822 90.5975 23.0756 90.7255C23.3742 90.8481 23.6089 91.0321 23.7796 91.2775L23.1236 91.9175C23.0062 91.7308 22.8516 91.5895 22.6596 91.4935C22.4729 91.3921 22.2756 91.3415 22.0676 91.3415C21.9182 91.3415 21.7902 91.3575 21.6836 91.3895C21.5769 91.4215 21.4969 91.4668 21.4436 91.5255C21.3902 91.5788 21.3636 91.6481 21.3636 91.7335C21.3636 91.8188 21.4009 91.8935 21.4756 91.9575C21.5502 92.0161 21.6862 92.0668 21.8836 92.1095L22.6996 92.2775C23.0942 92.3575 23.3769 92.4935 23.5476 92.6855C23.7182 92.8721 23.8036 93.0988 23.8036 93.3655C23.8036 93.6215 23.7342 93.8508 23.5956 94.0535C23.4622 94.2508 23.2622 94.4081 22.9956 94.5255C22.7342 94.6375 22.4116 94.6935 22.0276 94.6935ZM24.6776 96.2935V90.6135H25.6616L25.7336 91.8855L25.5976 91.7415C25.6456 91.5068 25.7336 91.2988 25.8616 91.1175C25.9949 90.9361 26.1629 90.7948 26.3656 90.6935C26.5682 90.5868 26.7949 90.5335 27.0456 90.5335C27.3709 90.5335 27.6616 90.6161 27.9176 90.7815C28.1736 90.9468 28.3736 91.1841 28.5176 91.4935C28.6669 91.7975 28.7416 92.1681 28.7416 92.6055C28.7416 93.0428 28.6669 93.4188 28.5176 93.7335C28.3682 94.0428 28.1629 94.2801 27.9016 94.4455C27.6456 94.6108 27.3522 94.6935 27.0216 94.6935C26.6696 94.6935 26.3762 94.5948 26.1416 94.3975C25.9122 94.2001 25.7549 93.9521 25.6696 93.6535L25.7736 93.4855V96.2935H24.6776ZM26.7016 93.8535C26.9949 93.8535 27.2242 93.7495 27.3896 93.5415C27.5602 93.3281 27.6456 93.0188 27.6456 92.6135C27.6456 92.2081 27.5629 91.9015 27.3976 91.6935C27.2376 91.4801 27.0109 91.3735 26.7176 91.3735C26.5309 91.3735 26.3656 91.4241 26.2216 91.5255C26.0829 91.6215 25.9736 91.7628 25.8936 91.9495C25.8136 92.1308 25.7736 92.3521 25.7736 92.6135C25.7736 92.8641 25.8109 93.0855 25.8856 93.2775C25.9602 93.4641 26.0669 93.6081 26.2056 93.7095C26.3496 93.8055 26.5149 93.8535 26.7016 93.8535ZM30.2452 90.0375C30.0159 90.0375 29.8452 89.9895 29.7332 89.8935C29.6212 89.7921 29.5652 89.6455 29.5652 89.4535C29.5652 89.2561 29.6212 89.1095 29.7332 89.0135C29.8452 88.9121 30.0159 88.8615 30.2452 88.8615C30.4745 88.8615 30.6452 88.9121 30.7572 89.0135C30.8692 89.1095 30.9252 89.2561 30.9252 89.4535C30.9252 89.6455 30.8692 89.7921 30.7572 89.8935C30.6452 89.9895 30.4745 90.0375 30.2452 90.0375ZM30.7892 90.6135V94.6135H29.6932V90.6135H30.7892ZM31.951 94.6135V90.6135H32.903L32.975 91.3975C33.0817 91.1201 33.2363 90.9068 33.439 90.7575C33.647 90.6081 33.9057 90.5335 34.215 90.5335C34.3057 90.5335 34.3883 90.5415 34.463 90.5575C34.5377 90.5735 34.599 90.5948 34.647 90.6215L34.519 91.5415C34.4657 91.5201 34.399 91.5041 34.319 91.4935C34.2443 91.4828 34.1457 91.4775 34.023 91.4775C33.863 91.4775 33.7083 91.5175 33.559 91.5975C33.4097 91.6721 33.287 91.7895 33.191 91.9495C33.095 92.1041 33.047 92.3015 33.047 92.5415V94.6135H31.951ZM35.878 90.0375C35.6487 90.0375 35.478 89.9895 35.366 89.8935C35.254 89.7921 35.198 89.6455 35.198 89.4535C35.198 89.2561 35.254 89.1095 35.366 89.0135C35.478 88.9121 35.6487 88.8615 35.878 88.8615C36.1073 88.8615 36.278 88.9121 36.39 89.0135C36.502 89.1095 36.558 89.2561 36.558 89.4535C36.558 89.6455 36.502 89.7921 36.39 89.8935C36.278 89.9895 36.1073 90.0375 35.878 90.0375ZM36.422 90.6135V94.6135H35.326V90.6135H36.422ZM38.9998 89.3895V93.3095C38.9998 93.5015 39.0478 93.6428 39.1438 93.7335C39.2451 93.8188 39.3811 93.8615 39.5518 93.8615C39.6905 93.8615 39.8078 93.8428 39.9038 93.8055C40.0051 93.7628 40.0958 93.7068 40.1758 93.6375L40.3518 94.3655C40.2238 94.4668 40.0638 94.5468 39.8718 94.6055C39.6798 94.6641 39.4771 94.6935 39.2638 94.6935C38.9971 94.6935 38.7598 94.6535 38.5518 94.5735C38.3491 94.4935 38.1891 94.3655 38.0718 94.1895C37.9598 94.0135 37.9038 93.7788 37.9038 93.4855V89.6935L38.9998 89.3895ZM40.2798 90.6135V91.4295H37.1678V90.6135H40.2798ZM45.2906 90.5335C45.696 90.5335 46.0506 90.6161 46.3546 90.7815C46.664 90.9468 46.904 91.1841 47.0746 91.4935C47.2506 91.8028 47.3386 92.1761 47.3386 92.6135C47.3386 93.0455 47.2506 93.4188 47.0746 93.7335C46.904 94.0428 46.664 94.2801 46.3546 94.4455C46.0506 94.6108 45.696 94.6935 45.2906 94.6935C44.8906 94.6935 44.536 94.6108 44.2266 94.4455C43.9173 94.2801 43.6746 94.0428 43.4986 93.7335C43.328 93.4188 43.2426 93.0455 43.2426 92.6135C43.2426 92.1761 43.328 91.8028 43.4986 91.4935C43.6746 91.1841 43.9173 90.9468 44.2266 90.7815C44.536 90.6161 44.8906 90.5335 45.2906 90.5335ZM45.2906 91.3495C45.088 91.3495 44.9146 91.3975 44.7706 91.4935C44.632 91.5841 44.5253 91.7228 44.4506 91.9095C44.376 92.0961 44.3386 92.3308 44.3386 92.6135C44.3386 92.8961 44.376 93.1308 44.4506 93.3175C44.5253 93.5041 44.632 93.6455 44.7706 93.7415C44.9146 93.8321 45.088 93.8775 45.2906 93.8775C45.488 93.8775 45.656 93.8321 45.7946 93.7415C45.9386 93.6455 46.048 93.5041 46.1226 93.3175C46.1973 93.1308 46.2346 92.8961 46.2346 92.6135C46.2346 92.3308 46.1973 92.0961 46.1226 91.9095C46.048 91.7228 45.9386 91.5841 45.7946 91.4935C45.656 91.3975 45.488 91.3495 45.2906 91.3495ZM49.9928 88.7815C50.1795 88.7815 50.3475 88.8028 50.4968 88.8455C50.6515 88.8828 50.7661 88.9308 50.8408 88.9895L50.6888 89.7175C50.6301 89.6801 50.5635 89.6508 50.4888 89.6295C50.4141 89.6081 50.3261 89.5975 50.2248 89.5975C50.0168 89.5975 49.8515 89.6455 49.7288 89.7415C49.6061 89.8321 49.5448 89.9895 49.5448 90.2135V90.7655L49.5928 90.9815V94.6135H48.4968V90.1335C48.4968 89.9095 48.5341 89.7121 48.6088 89.5415C48.6835 89.3708 48.7875 89.2295 48.9208 89.1175C49.0541 89.0055 49.2115 88.9228 49.3928 88.8695C49.5795 88.8108 49.7795 88.7815 49.9928 88.7815ZM50.8088 90.6135V91.4295H47.8008V90.6135H50.8088ZM55.3088 94.6935C54.9035 94.6935 54.5328 94.6215 54.1968 94.4775C53.8661 94.3335 53.5968 94.1308 53.3888 93.8695L54.0208 93.2295C54.1488 93.4215 54.3195 93.5788 54.5328 93.7015C54.7461 93.8241 54.9995 93.8855 55.2928 93.8855C55.5008 93.8855 55.6661 93.8561 55.7888 93.7975C55.9168 93.7335 55.9808 93.6348 55.9808 93.5015C55.9808 93.4161 55.9515 93.3441 55.8928 93.2855C55.8341 93.2215 55.7168 93.1708 55.5408 93.1335L54.8368 92.9895C54.3728 92.8935 54.0421 92.7495 53.8448 92.5575C53.6528 92.3601 53.5568 92.1068 53.5568 91.7975C53.5568 91.5788 53.6208 91.3735 53.7488 91.1815C53.8821 90.9895 54.0795 90.8348 54.3408 90.7175C54.6021 90.5948 54.9275 90.5335 55.3168 90.5335C55.7168 90.5335 56.0635 90.5975 56.3568 90.7255C56.6555 90.8481 56.8901 91.0321 57.0608 91.2775L56.4048 91.9175C56.2875 91.7308 56.1328 91.5895 55.9408 91.4935C55.7541 91.3921 55.5568 91.3415 55.3488 91.3415C55.1995 91.3415 55.0715 91.3575 54.9648 91.3895C54.8581 91.4215 54.7781 91.4668 54.7248 91.5255C54.6715 91.5788 54.6448 91.6481 54.6448 91.7335C54.6448 91.8188 54.6821 91.8935 54.7568 91.9575C54.8315 92.0161 54.9675 92.0668 55.1648 92.1095L55.9808 92.2775C56.3755 92.3575 56.6581 92.4935 56.8288 92.6855C56.9995 92.8721 57.0848 93.0988 57.0848 93.3655C57.0848 93.6215 57.0155 93.8508 56.8768 94.0535C56.7435 94.2508 56.5435 94.4081 56.2768 94.5255C56.0155 94.6375 55.6928 94.6935 55.3088 94.6935ZM59.7992 94.6935C59.3779 94.6935 59.0099 94.6108 58.6952 94.4455C58.3859 94.2801 58.1459 94.0428 57.9752 93.7335C57.8045 93.4241 57.7192 93.0508 57.7192 92.6135C57.7192 92.1761 57.8045 91.8028 57.9752 91.4935C58.1459 91.1841 58.3832 90.9468 58.6872 90.7815C58.9965 90.6161 59.3485 90.5335 59.7432 90.5335C60.1485 90.5335 60.4925 90.6161 60.7752 90.7815C61.0579 90.9415 61.2739 91.1628 61.4232 91.4455C61.5725 91.7228 61.6472 92.0401 61.6472 92.3975C61.6472 92.5041 61.6445 92.6055 61.6392 92.7015C61.6339 92.7975 61.6259 92.8828 61.6152 92.9575H58.4232V92.1975H61.1352L60.6072 92.3895C60.6072 92.0535 60.5299 91.7948 60.3752 91.6135C60.2259 91.4321 60.0125 91.3415 59.7352 91.3415C59.5325 91.3415 59.3565 91.3895 59.2072 91.4855C59.0632 91.5815 58.9539 91.7255 58.8792 91.9175C58.8045 92.1041 58.7672 92.3415 58.7672 92.6295C58.7672 92.9121 58.8072 93.1468 58.8872 93.3335C58.9725 93.5148 59.0899 93.6508 59.2392 93.7415C59.3939 93.8321 59.5779 93.8775 59.7912 93.8775C60.0259 93.8775 60.2152 93.8321 60.3592 93.7415C60.5032 93.6508 60.6152 93.5255 60.6952 93.3655L61.5672 93.7015C61.4819 93.9095 61.3512 94.0881 61.1752 94.2375C61.0045 94.3868 60.7992 94.5015 60.5592 94.5815C60.3245 94.6561 60.0712 94.6935 59.7992 94.6935ZM62.576 94.6135V90.6135H63.528L63.6 91.3975C63.7067 91.1201 63.8613 90.9068 64.064 90.7575C64.272 90.6081 64.5307 90.5335 64.84 90.5335C64.9307 90.5335 65.0133 90.5415 65.088 90.5575C65.1627 90.5735 65.224 90.5948 65.272 90.6215L65.144 91.5415C65.0907 91.5201 65.024 91.5041 64.944 91.4935C64.8693 91.4828 64.7707 91.4775 64.648 91.4775C64.488 91.4775 64.3333 91.5175 64.184 91.5975C64.0347 91.6721 63.912 91.7895 63.816 91.9495C63.72 92.1041 63.672 92.3015 63.672 92.5415V94.6135H62.576ZM68.575 90.6135H69.711L68.191 94.6135H66.927L65.407 90.6135H66.583L67.567 93.7735L68.575 90.6135ZM70.8702 90.0375C70.6409 90.0375 70.4702 89.9895 70.3582 89.8935C70.2462 89.7921 70.1902 89.6455 70.1902 89.4535C70.1902 89.2561 70.2462 89.1095 70.3582 89.0135C70.4702 88.9121 70.6409 88.8615 70.8702 88.8615C71.0995 88.8615 71.2702 88.9121 71.3822 89.0135C71.4942 89.1095 71.5502 89.2561 71.5502 89.4535C71.5502 89.6455 71.4942 89.7921 71.3822 89.8935C71.2702 89.9895 71.0995 90.0375 70.8702 90.0375ZM71.4142 90.6135V94.6135H70.3182V90.6135H71.4142ZM74.392 90.5335C74.7493 90.5335 75.0507 90.5868 75.296 90.6935C75.5467 90.7948 75.7467 90.9361 75.896 91.1175C76.0507 91.2935 76.16 91.4908 76.224 91.7095L75.2 92.0775C75.1467 91.8375 75.056 91.6561 74.928 91.5335C74.8 91.4108 74.6267 91.3495 74.408 91.3495C74.2053 91.3495 74.032 91.3975 73.888 91.4935C73.744 91.5841 73.6347 91.7255 73.56 91.9175C73.4853 92.1041 73.448 92.3388 73.448 92.6215C73.448 92.9041 73.4853 93.1388 73.56 93.3255C73.64 93.5121 73.752 93.6508 73.896 93.7415C74.0453 93.8321 74.2187 93.8775 74.416 93.8775C74.576 93.8775 74.712 93.8508 74.824 93.7975C74.936 93.7388 75.0267 93.6561 75.096 93.5495C75.1707 93.4428 75.2213 93.3148 75.248 93.1655L76.24 93.4855C76.1813 93.7255 76.072 93.9361 75.912 94.1175C75.752 94.2988 75.5467 94.4401 75.296 94.5415C75.0453 94.6428 74.7547 94.6935 74.424 94.6935C74.0133 94.6935 73.6507 94.6108 73.336 94.4455C73.0213 94.2801 72.7787 94.0428 72.608 93.7335C72.4373 93.4241 72.352 93.0508 72.352 92.6135C72.352 92.1761 72.4373 91.8028 72.608 91.4935C72.7787 91.1841 73.0187 90.9468 73.328 90.7815C73.6373 90.6161 73.992 90.5335 74.392 90.5335ZM78.9476 94.6935C78.5263 94.6935 78.1583 94.6108 77.8436 94.4455C77.5343 94.2801 77.2943 94.0428 77.1236 93.7335C76.953 93.4241 76.8676 93.0508 76.8676 92.6135C76.8676 92.1761 76.953 91.8028 77.1236 91.4935C77.2943 91.1841 77.5316 90.9468 77.8356 90.7815C78.145 90.6161 78.497 90.5335 78.8916 90.5335C79.297 90.5335 79.641 90.6161 79.9236 90.7815C80.2063 90.9415 80.4223 91.1628 80.5716 91.4455C80.721 91.7228 80.7956 92.0401 80.7956 92.3975C80.7956 92.5041 80.793 92.6055 80.7876 92.7015C80.7823 92.7975 80.7743 92.8828 80.7636 92.9575H77.5716V92.1975H80.2836L79.7556 92.3895C79.7556 92.0535 79.6783 91.7948 79.5236 91.6135C79.3743 91.4321 79.161 91.3415 78.8836 91.3415C78.681 91.3415 78.505 91.3895 78.3556 91.4855C78.2116 91.5815 78.1023 91.7255 78.0276 91.9175C77.953 92.1041 77.9156 92.3415 77.9156 92.6295C77.9156 92.9121 77.9556 93.1468 78.0356 93.3335C78.121 93.5148 78.2383 93.6508 78.3876 93.7415C78.5423 93.8321 78.7263 93.8775 78.9396 93.8775C79.1743 93.8775 79.3636 93.8321 79.5076 93.7415C79.6516 93.6508 79.7636 93.5255 79.8436 93.3655L80.7156 93.7015C80.6303 93.9095 80.4996 94.0881 80.3236 94.2375C80.153 94.3868 79.9476 94.5015 79.7076 94.5815C79.473 94.6561 79.2196 94.6935 78.9476 94.6935Z" fill="#47A0B0"/>
</g>
<defs>
<clipPath id="clip0">
<rect width="100" height="100" fill="white" transform="translate(0.5 0.327515)"/>
</clipPath>
</defs>
</svg>
