<svg width="101" height="101" viewBox="0 0 101 101" fill="none" xmlns="http://www.w3.org/2000/svg">
<g clip-path="url(#clip0)">
<path d="M22.1762 14.2108L17.2779 1.4662C16.939 0.584749 15.9307 0.115072 15.0373 0.421043C11.1634 1.74732 8.37943 4.27404 6.68507 8.00161C6.29434 8.86121 6.66423 9.91017 7.50881 10.3326L19.7204 16.4398C21.1727 17.1657 22.7587 15.7262 22.1762 14.2108Z" fill="#F8D448"/>
<path d="M78.8219 14.2107L83.7204 1.4661C84.0593 0.584851 85.0675 0.115173 85.9608 0.420945C89.8346 1.74722 92.6186 4.27394 94.313 8.00151C94.7037 8.86111 94.3336 9.91007 93.4893 10.3325L81.2777 16.4397C79.8253 17.1656 78.2394 15.7261 78.8219 14.2107Z" fill="#F8D448"/>
<path d="M22.1752 86.1569L17.2767 98.9015C16.9378 99.7827 15.9296 100.252 15.0363 99.9466C11.1625 98.6204 8.37846 96.0936 6.68409 92.3661C6.29336 91.5065 6.66325 90.4575 7.50783 90.0351L19.7194 83.9279C21.1718 83.2019 22.7577 84.6414 22.1752 86.1569Z" fill="#F8D448"/>
<path d="M78.8219 86.1569L83.7204 98.9015C84.0593 99.7827 85.0675 100.252 85.9608 99.9466C89.8346 98.6204 92.6186 96.0936 94.313 92.3661C94.7037 91.5065 94.3336 90.4575 93.4893 90.0351L81.2777 83.9279C79.8253 83.2019 78.2394 84.6414 78.8219 86.1569Z" fill="#F8D448"/>
<path d="M1.28434 53.2731C0.202122 51.1656 0.268045 48.9941 1.30799 46.7685C1.59412 46.156 2.34092 45.9131 2.94445 46.2179L8.5918 49.07C9.5005 49.5289 9.47284 50.8359 8.54571 51.2561L2.8681 53.8291C2.2766 54.0972 1.5807 53.8506 1.28434 53.2731Z" fill="#FBE88C"/>
<path d="M99.7166 53.2731C100.799 51.1656 100.733 48.9941 99.6931 46.7685C99.407 46.156 98.6602 45.9131 98.0567 46.2179L92.4093 49.07C91.5006 49.5289 91.5283 50.8359 92.4554 51.2561L98.133 53.8291C98.7243 54.0972 99.4202 53.8506 99.7166 53.2731Z" fill="#FBE88C"/>
<path d="M53.0812 12.1042L62.1463 30.4723C62.5234 31.2366 63.2526 31.7663 64.096 31.8888L84.3662 34.8343C86.49 35.1428 87.3382 37.7529 85.8013 39.2509L71.1335 53.5484C70.5232 54.1433 70.2449 55.0003 70.3889 55.8403L73.8516 76.0288C74.2145 78.144 71.9941 79.7572 70.0946 78.7585L51.9643 69.2269C51.2099 68.8304 50.3088 68.8304 49.5544 69.2269L31.4241 78.7585C29.5246 79.7572 27.3042 78.1442 27.6671 76.0288L31.1298 55.8403C31.2739 55.0003 30.9953 54.1433 30.3852 53.5484L15.7174 39.2509C14.1805 37.7529 15.0287 35.1428 17.1525 34.8343L37.4227 31.8888C38.2661 31.7661 38.9953 31.2366 39.3724 30.4723L48.4375 12.1042C49.3871 10.1796 52.1314 10.1796 53.0812 12.1042Z" fill="#FBE88C"/>
<path d="M73.85 76.0288L73.3214 72.9467L52.7808 62.1479C51.8939 61.6816 50.8346 61.6816 49.9477 62.1479L38.9083 67.9517C37.8271 68.5202 36.5635 67.6021 36.7699 66.3982L39.3571 51.3131C39.5012 50.4731 39.2227 49.6161 38.6123 49.0212L31.453 42.0425C30.1109 40.7343 30.8514 38.455 32.7061 38.1855L44.3925 36.4874C45.2359 36.3647 45.9651 35.8351 46.3422 35.0709L55.3785 16.7621L53.0796 12.1042C52.1298 10.1796 49.3855 10.1796 48.4357 12.1042L39.3705 30.4723C38.9932 31.2368 38.2643 31.7663 37.4209 31.8888L17.1504 34.8343C15.0267 35.1428 14.1787 37.7527 15.7154 39.2509L30.3832 53.5486C30.9935 54.1433 31.272 55.0005 31.1279 55.8405L27.6655 76.0288C27.3026 78.1442 29.523 79.7572 31.4227 78.7585L49.553 69.2269C50.3074 68.8304 51.2085 68.8304 51.9629 69.2269L70.0933 78.7585C71.9925 79.757 74.2126 78.144 73.85 76.0288Z" fill="#FBE372"/>
<path d="M37.1526 49.6935C36.7472 49.6935 36.3766 49.6215 36.0406 49.4775C35.7099 49.3335 35.4406 49.1308 35.2326 48.8695L35.8646 48.2295C35.9926 48.4215 36.1632 48.5788 36.3766 48.7015C36.5899 48.8241 36.8432 48.8855 37.1366 48.8855C37.3446 48.8855 37.5099 48.8561 37.6326 48.7975C37.7606 48.7335 37.8246 48.6348 37.8246 48.5015C37.8246 48.4161 37.7952 48.3441 37.7366 48.2855C37.6779 48.2215 37.5606 48.1708 37.3846 48.1335L36.6806 47.9895C36.2166 47.8935 35.8859 47.7495 35.6886 47.5575C35.4966 47.3601 35.4006 47.1068 35.4006 46.7975C35.4006 46.5788 35.4646 46.3735 35.5926 46.1815C35.7259 45.9895 35.9232 45.8348 36.1846 45.7175C36.4459 45.5948 36.7712 45.5335 37.1606 45.5335C37.5606 45.5335 37.9072 45.5975 38.2006 45.7255C38.4992 45.8481 38.7339 46.0321 38.9046 46.2775L38.2486 46.9175C38.1312 46.7308 37.9766 46.5895 37.7846 46.4935C37.5979 46.3921 37.4006 46.3415 37.1926 46.3415C37.0432 46.3415 36.9152 46.3575 36.8086 46.3895C36.7019 46.4215 36.6219 46.4668 36.5686 46.5255C36.5152 46.5788 36.4886 46.6481 36.4886 46.7335C36.4886 46.8188 36.5259 46.8935 36.6006 46.9575C36.6752 47.0161 36.8112 47.0668 37.0086 47.1095L37.8246 47.2775C38.2192 47.3575 38.5019 47.4935 38.6726 47.6855C38.8432 47.8721 38.9286 48.0988 38.9286 48.3655C38.9286 48.6215 38.8592 48.8508 38.7206 49.0535C38.5872 49.2508 38.3872 49.4081 38.1206 49.5255C37.8592 49.6375 37.5366 49.6935 37.1526 49.6935ZM40.3546 45.0375C40.1252 45.0375 39.9546 44.9895 39.8426 44.8935C39.7306 44.7921 39.6746 44.6455 39.6746 44.4535C39.6746 44.2561 39.7306 44.1095 39.8426 44.0135C39.9546 43.9121 40.1252 43.8615 40.3546 43.8615C40.5839 43.8615 40.7546 43.9121 40.8666 44.0135C40.9786 44.1095 41.0346 44.2561 41.0346 44.4535C41.0346 44.6455 40.9786 44.7921 40.8666 44.8935C40.7546 44.9895 40.5839 45.0375 40.3546 45.0375ZM40.8986 45.6135V49.6135H39.8026V45.6135H40.8986ZM42.0604 49.6135V45.6135H43.0444L43.1084 46.8135L42.9724 46.6855C43.0364 46.4241 43.1377 46.2108 43.2764 46.0455C43.415 45.8748 43.583 45.7468 43.7804 45.6615C43.983 45.5761 44.2044 45.5335 44.4444 45.5335C44.7217 45.5335 44.967 45.5868 45.1804 45.6935C45.399 45.8001 45.5697 45.9628 45.6924 46.1815C45.8204 46.3948 45.8844 46.6641 45.8844 46.9895V49.6135H44.7884V47.3015C44.7884 46.9601 44.7217 46.7255 44.5884 46.5975C44.455 46.4641 44.2817 46.3975 44.0684 46.3975C43.919 46.3975 43.7724 46.4348 43.6284 46.5095C43.4897 46.5788 43.375 46.6935 43.2844 46.8535C43.199 47.0135 43.1564 47.2268 43.1564 47.4935V49.6135H42.0604ZM48.8295 45.5335C49.1868 45.5335 49.4882 45.5868 49.7335 45.6935C49.9842 45.7948 50.1842 45.9361 50.3335 46.1175C50.4882 46.2935 50.5975 46.4908 50.6615 46.7095L49.6375 47.0775C49.5842 46.8375 49.4935 46.6561 49.3655 46.5335C49.2375 46.4108 49.0642 46.3495 48.8455 46.3495C48.6428 46.3495 48.4695 46.3975 48.3255 46.4935C48.1815 46.5841 48.0722 46.7255 47.9975 46.9175C47.9228 47.1041 47.8855 47.3388 47.8855 47.6215C47.8855 47.9041 47.9228 48.1388 47.9975 48.3255C48.0775 48.5121 48.1895 48.6508 48.3335 48.7415C48.4828 48.8321 48.6562 48.8775 48.8535 48.8775C49.0135 48.8775 49.1495 48.8508 49.2615 48.7975C49.3735 48.7388 49.4642 48.6561 49.5335 48.5495C49.6082 48.4428 49.6588 48.3148 49.6855 48.1655L50.6775 48.4855C50.6188 48.7255 50.5095 48.9361 50.3495 49.1175C50.1895 49.2988 49.9842 49.4401 49.7335 49.5415C49.4828 49.6428 49.1922 49.6935 48.8615 49.6935C48.4508 49.6935 48.0882 49.6108 47.7735 49.4455C47.4588 49.2801 47.2162 49.0428 47.0455 48.7335C46.8748 48.4241 46.7895 48.0508 46.7895 47.6135C46.7895 47.1761 46.8748 46.8028 47.0455 46.4935C47.2162 46.1841 47.4562 45.9468 47.7655 45.7815C48.0748 45.6161 48.4295 45.5335 48.8295 45.5335ZM53.3851 49.6935C52.9638 49.6935 52.5958 49.6108 52.2811 49.4455C51.9718 49.2801 51.7318 49.0428 51.5611 48.7335C51.3905 48.4241 51.3051 48.0508 51.3051 47.6135C51.3051 47.1761 51.3905 46.8028 51.5611 46.4935C51.7318 46.1841 51.9691 45.9468 52.2731 45.7815C52.5825 45.6161 52.9345 45.5335 53.3291 45.5335C53.7345 45.5335 54.0785 45.6161 54.3611 45.7815C54.6438 45.9415 54.8598 46.1628 55.0091 46.4455C55.1585 46.7228 55.2331 47.0401 55.2331 47.3975C55.2331 47.5041 55.2305 47.6055 55.2251 47.7015C55.2198 47.7975 55.2118 47.8828 55.2011 47.9575H52.0091V47.1975H54.7211L54.1931 47.3895C54.1931 47.0535 54.1158 46.7948 53.9611 46.6135C53.8118 46.4321 53.5985 46.3415 53.3211 46.3415C53.1185 46.3415 52.9425 46.3895 52.7931 46.4855C52.6491 46.5815 52.5398 46.7255 52.4651 46.9175C52.3905 47.1041 52.3531 47.3415 52.3531 47.6295C52.3531 47.9121 52.3931 48.1468 52.4731 48.3335C52.5585 48.5148 52.6758 48.6508 52.8251 48.7415C52.9798 48.8321 53.1638 48.8775 53.3771 48.8775C53.6118 48.8775 53.8011 48.8321 53.9451 48.7415C54.0891 48.6508 54.2011 48.5255 54.2811 48.3655L55.1531 48.7015C55.0678 48.9095 54.9371 49.0881 54.7611 49.2375C54.5905 49.3868 54.3851 49.5015 54.1451 49.5815C53.9105 49.6561 53.6571 49.6935 53.3851 49.6935ZM56.1619 49.6135V45.6135H57.1139L57.1859 46.3975C57.2926 46.1201 57.4473 45.9068 57.6499 45.7575C57.8579 45.6081 58.1166 45.5335 58.4259 45.5335C58.5166 45.5335 58.5993 45.5415 58.6739 45.5575C58.7486 45.5735 58.8099 45.5948 58.8579 45.6215L58.7299 46.5415C58.6766 46.5201 58.6099 46.5041 58.5299 46.4935C58.4553 46.4828 58.3566 46.4775 58.2339 46.4775C58.0739 46.4775 57.9193 46.5175 57.7699 46.5975C57.6206 46.6721 57.4979 46.7895 57.4019 46.9495C57.3059 47.1041 57.2579 47.3015 57.2579 47.5415V49.6135H56.1619ZM60.0889 45.0375C59.8596 45.0375 59.6889 44.9895 59.5769 44.8935C59.4649 44.7921 59.4089 44.6455 59.4089 44.4535C59.4089 44.2561 59.4649 44.1095 59.5769 44.0135C59.6889 43.9121 59.8596 43.8615 60.0889 43.8615C60.3183 43.8615 60.4889 43.9121 60.6009 44.0135C60.7129 44.1095 60.7689 44.2561 60.7689 44.4535C60.7689 44.6455 60.7129 44.7921 60.6009 44.8935C60.4889 44.9895 60.3183 45.0375 60.0889 45.0375ZM60.6329 45.6135V49.6135H59.5369V45.6135H60.6329ZM63.2108 44.3895V48.3095C63.2108 48.5015 63.2588 48.6428 63.3548 48.7335C63.4561 48.8188 63.5921 48.8615 63.7628 48.8615C63.9014 48.8615 64.0188 48.8428 64.1148 48.8055C64.2161 48.7628 64.3068 48.7068 64.3868 48.6375L64.5628 49.3655C64.4348 49.4668 64.2748 49.5468 64.0828 49.6055C63.8908 49.6641 63.6881 49.6935 63.4748 49.6935C63.2081 49.6935 62.9708 49.6535 62.7628 49.5735C62.5601 49.4935 62.4001 49.3655 62.2828 49.1895C62.1708 49.0135 62.1148 48.7788 62.1148 48.4855V44.6935L63.2108 44.3895ZM64.4908 45.6135V46.4295H61.3788V45.6135H64.4908ZM68.9923 45.6135L67.3763 49.8615C67.2483 50.2241 67.1043 50.5121 66.9443 50.7255C66.7896 50.9388 66.6083 51.0935 66.4003 51.1895C66.1976 51.2855 65.9549 51.3335 65.6723 51.3335C65.4643 51.3335 65.2723 51.3068 65.0963 51.2535C64.9256 51.2055 64.7763 51.1415 64.6482 51.0615L64.8803 50.2695C64.9816 50.3495 65.0883 50.4055 65.2003 50.4375C65.3123 50.4748 65.4403 50.4935 65.5843 50.4935C65.7336 50.4935 65.8616 50.4615 65.9683 50.3975C66.0803 50.3335 66.1736 50.2055 66.2483 50.0135L66.3843 49.6695L65.9443 48.6295L64.7203 45.6135H65.9363L66.6963 48.0135L66.9043 48.8135L67.1523 47.9655L67.8803 45.6135H68.9923Z" fill="#A18E35"/>
</g>
<defs>
<clipPath id="clip0">
<rect width="100" height="100" fill="white" transform="translate(0.5 0.327515)"/>
</clipPath>
</defs>
</svg>
