<svg width="28" height="28" viewBox="0 0 28 28" fill="none" xmlns="http://www.w3.org/2000/svg">
<path fill-rule="evenodd" clip-rule="evenodd" d="M15.6516 17.1156C15.4847 17.3311 15.244 17.5101 14.9538 17.6346C14.6637 17.7591 14.3343 17.8246 13.999 17.8246C13.6638 17.8246 13.3344 17.7591 13.0442 17.6346C12.7541 17.5101 12.5134 17.331 12.3464 17.1156L0.783369 2.53568C0.0127222 1.56343 0.938511 0.327513 2.43596 0.327513L25.5638 0.327515C27.0629 0.327515 27.9871 1.56469 27.2164 2.53568L15.6516 17.1156Z" fill="#67568A"/>
<path d="M15.2599 26.8048L15.2599 26.8048L15.2564 26.8094C15.1491 26.9478 14.9813 27.0787 14.7567 27.1751C14.5326 27.2712 14.2708 27.3246 13.999 27.3246C13.7273 27.3246 13.4655 27.2712 13.2414 27.1751C13.0168 27.0787 12.849 26.9478 12.7417 26.8094L12.7417 26.8093L12.7382 26.8049L1.17521 12.2251C0.941733 11.9305 0.96241 11.6298 1.15939 11.3667C1.37281 11.0816 1.81896 10.8275 2.43596 10.8275L25.5638 10.8275C26.1816 10.8275 26.6277 11.0819 26.8409 11.3669C27.0377 11.6301 27.0581 11.9309 26.8248 12.2248L26.8247 12.225L15.2599 26.8048Z" stroke="#BDB1CD"/>
</svg>
