<svg width="21" height="22" viewBox="0 0 21 22" fill="none" xmlns="http://www.w3.org/2000/svg">
<path fill-rule="evenodd" clip-rule="evenodd" d="M6.0648 0.981348C7.16518 0.930691 7.51603 0.919434 10.3191 0.919434C13.1221 0.919434 13.4729 0.931629 14.5724 0.981348C15.6718 1.03107 16.4223 1.20649 17.079 1.46072C17.7666 1.72057 18.3904 2.12676 18.9064 2.6521C19.4317 3.16711 19.837 3.79001 20.0959 4.47857C20.3511 5.13524 20.5256 5.88572 20.5762 6.98329C20.6269 8.08556 20.6381 8.4364 20.6381 11.2385C20.6381 14.0415 20.6259 14.3924 20.5762 15.4928C20.5265 16.5903 20.3511 17.3408 20.0959 17.9975C19.837 18.6861 19.4311 19.3101 18.9064 19.8258C18.3904 20.3512 17.7666 20.7564 17.079 21.0153C16.4223 21.2705 15.6718 21.445 14.5743 21.4956C13.4729 21.5463 13.1221 21.5576 10.3191 21.5576C7.51603 21.5576 7.16518 21.5454 6.0648 21.4956C4.96722 21.4459 4.21675 21.2705 3.56008 21.0153C2.87144 20.7564 2.24751 20.3505 1.73173 19.8258C1.20675 19.3105 0.800492 18.6869 0.541282 17.9984C0.287058 17.3418 0.112572 16.5913 0.0619144 15.4937C0.0112571 14.3914 0 14.0406 0 11.2385C0 8.43547 0.0121952 8.08462 0.0619144 6.98517C0.111634 5.88572 0.287058 5.13524 0.541282 4.47857C0.800875 3.79009 1.20744 3.16647 1.73266 2.65116C2.24772 2.1263 2.87102 1.72005 3.55914 1.46072C4.21581 1.20649 4.96628 1.03201 6.06386 0.981348H6.0648ZM14.4889 2.83878C13.4007 2.78906 13.0743 2.77874 10.3191 2.77874C7.56387 2.77874 7.23742 2.78906 6.14922 2.83878C5.14265 2.88475 4.59667 3.05267 4.23269 3.19432C3.75145 3.38194 3.40717 3.60427 3.046 3.96543C2.70364 4.29851 2.44016 4.70398 2.27488 5.15213C2.13323 5.51611 1.96531 6.06208 1.91935 7.06866C1.86963 8.15685 1.85931 8.48331 1.85931 11.2385C1.85931 13.9937 1.86963 14.3201 1.91935 15.4083C1.96531 16.4149 2.13323 16.9609 2.27488 17.3249C2.43999 17.7723 2.7036 18.1785 3.046 18.5116C3.37902 18.854 3.78522 19.1176 4.23269 19.2827C4.59667 19.4243 5.14265 19.5923 6.14922 19.6382C7.23742 19.6879 7.56294 19.6983 10.3191 19.6983C13.0752 19.6983 13.4007 19.6879 14.4889 19.6382C15.4955 19.5923 16.0415 19.4243 16.4054 19.2827C16.8867 19.0951 17.231 18.8727 17.5921 18.5116C17.9345 18.1785 18.1981 17.7723 18.3632 17.3249C18.5049 16.9609 18.6728 16.4149 18.7188 15.4083C18.7685 14.3201 18.7788 13.9937 18.7788 11.2385C18.7788 8.48331 18.7685 8.15685 18.7188 7.06866C18.6728 6.06208 18.5049 5.51611 18.3632 5.15213C18.1756 4.67088 17.9533 4.3266 17.5921 3.96543C17.259 3.6231 16.8536 3.35962 16.4054 3.19432C16.0415 3.05267 15.4955 2.88475 14.4889 2.83878ZM9.00104 14.4196C9.73713 14.726 10.5568 14.7674 11.3199 14.5366C12.0831 14.3058 12.7425 13.8172 13.1855 13.1543C13.6285 12.4914 13.8276 11.6952 13.7488 10.9018C13.67 10.1084 13.3182 9.36697 12.7534 8.80414C12.3934 8.44436 11.9581 8.16887 11.4789 7.99751C10.9996 7.82615 10.4883 7.76319 9.98181 7.81315C9.4753 7.8631 8.98617 8.02474 8.54963 8.28643C8.11309 8.54812 7.74 8.90334 7.45722 9.32652C7.17443 9.7497 6.989 10.2303 6.91426 10.7338C6.83952 11.2372 6.87733 11.751 7.02498 12.2381C7.17262 12.7251 7.42643 13.1734 7.76812 13.5506C8.10981 13.9279 8.53089 14.2246 9.00104 14.4196ZM6.56855 7.48799C7.06108 6.99546 7.64579 6.60477 8.2893 6.33822C8.93282 6.07167 9.62253 5.93447 10.3191 5.93447C11.0156 5.93447 11.7053 6.07167 12.3488 6.33822C12.9923 6.60477 13.5771 6.99546 14.0696 7.48799C14.5621 7.98051 14.9528 8.56522 15.2193 9.20874C15.4859 9.85225 15.6231 10.542 15.6231 11.2385C15.6231 11.935 15.4859 12.6247 15.2193 13.2683C14.9528 13.9118 14.5621 14.4965 14.0696 14.989C13.0749 15.9837 11.7258 16.5425 10.3191 16.5425C8.91235 16.5425 7.56325 15.9837 6.56855 14.989C5.57386 13.9943 5.01504 12.6452 5.01504 11.2385C5.01504 9.83178 5.57386 8.48268 6.56855 7.48799ZM16.7994 6.72438C16.9215 6.60924 17.0192 6.47079 17.0868 6.31722C17.1544 6.16365 17.1904 5.99807 17.1929 5.8303C17.1953 5.66254 17.1641 5.49598 17.101 5.34051C17.0379 5.18503 16.9443 5.04379 16.8257 4.92514C16.707 4.8065 16.5658 4.71287 16.4103 4.64979C16.2548 4.58671 16.0883 4.55547 15.9205 4.55792C15.7527 4.56037 15.5872 4.59645 15.4336 4.66403C15.28 4.73161 15.1416 4.82932 15.0264 4.95137C14.8025 5.18874 14.6799 5.50403 14.6847 5.8303C14.6894 6.15658 14.8212 6.46816 15.0519 6.6989C15.2826 6.92964 15.5942 7.06137 15.9205 7.06612C16.2468 7.07088 16.5621 6.94829 16.7994 6.72438Z" fill="#1E1E1E"/>
</svg>
