<svg width="81" height="81" viewBox="0 0 81 81" fill="none" xmlns="http://www.w3.org/2000/svg">
<g filter="url(#filter0_ddd)">
<circle cx="40.5" cy="30.5773" r="19.5" transform="rotate(-180 40.5 30.5773)" fill="#FE8222" stroke="#E1E1E1"/>
<path fill-rule="evenodd" clip-rule="evenodd" d="M33.8334 30.0086C33.8334 30.2153 33.9204 30.4136 34.0751 30.5598C34.2299 30.706 34.4398 30.7881 34.6587 30.7881L44.22 30.7881L40.6764 34.1338C40.5996 34.2063 40.5388 34.2923 40.4972 34.387C40.4557 34.4817 40.4343 34.5832 40.4343 34.6857C40.4343 34.7882 40.4557 34.8897 40.4972 34.9844C40.5388 35.079 40.5996 35.1651 40.6764 35.2376C40.7531 35.31 40.8442 35.3675 40.9444 35.4068C41.0447 35.446 41.1521 35.4662 41.2606 35.4662C41.3691 35.4662 41.4766 35.446 41.5768 35.4068C41.6771 35.3675 41.7682 35.31 41.8449 35.2376L46.7964 30.5605C46.8732 30.4881 46.9342 30.4021 46.9758 30.3074C47.0174 30.2127 47.0388 30.1111 47.0388 30.0086C47.0388 29.9061 47.0174 29.8045 46.9758 29.7098C46.9342 29.6151 46.8732 29.5291 46.7964 29.4567L41.8449 24.7796C41.6899 24.6333 41.4798 24.551 41.2606 24.551C41.0415 24.551 40.8313 24.6333 40.6764 24.7796C40.5214 24.926 40.4343 25.1245 40.4343 25.3315C40.4343 25.5385 40.5214 25.737 40.6764 25.8834L44.22 29.2291L34.6587 29.2291C34.4398 29.2291 34.2299 29.3112 34.0751 29.4574C33.9204 29.6036 33.8334 29.8019 33.8334 30.0086Z" fill="white"/>
</g>
<defs>
<filter id="filter0_ddd" x="0.5" y="0.577271" width="80" height="80" filterUnits="userSpaceOnUse" color-interpolation-filters="sRGB">
<feFlood flood-opacity="0" result="BackgroundImageFix"/>
<feColorMatrix in="SourceAlpha" type="matrix" values="0 0 0 0 0 0 0 0 0 0 0 0 0 0 0 0 0 0 127 0"/>
<feOffset/>
<feGaussianBlur stdDeviation="0.5"/>
<feColorMatrix type="matrix" values="0 0 0 0 0 0 0 0 0 0 0 0 0 0 0 0 0 0 0.04 0"/>
<feBlend mode="normal" in2="BackgroundImageFix" result="effect1_dropShadow"/>
<feColorMatrix in="SourceAlpha" type="matrix" values="0 0 0 0 0 0 0 0 0 0 0 0 0 0 0 0 0 0 127 0"/>
<feOffset dy="2"/>
<feGaussianBlur stdDeviation="3"/>
<feColorMatrix type="matrix" values="0 0 0 0 0 0 0 0 0 0 0 0 0 0 0 0 0 0 0.04 0"/>
<feBlend mode="normal" in2="effect1_dropShadow" result="effect2_dropShadow"/>
<feColorMatrix in="SourceAlpha" type="matrix" values="0 0 0 0 0 0 0 0 0 0 0 0 0 0 0 0 0 0 127 0"/>
<feOffset dy="10"/>
<feGaussianBlur stdDeviation="10"/>
<feColorMatrix type="matrix" values="0 0 0 0 0 0 0 0 0 0 0 0 0 0 0 0 0 0 0.04 0"/>
<feBlend mode="normal" in2="effect2_dropShadow" result="effect3_dropShadow"/>
<feBlend mode="normal" in="SourceGraphic" in2="effect3_dropShadow" result="shape"/>
</filter>
</defs>
</svg>
