<svg width="41" height="48" viewBox="0 0 41 48" fill="none" xmlns="http://www.w3.org/2000/svg">
<path d="M40.369 0.254971C34.4497 0.412601 28.4252 2.64177 22.5836 3.6106C15.5067 4.78433 8.39608 5.28722 1.24775 5.7994C1.0299 5.81496 1.021 6.1365 1.24553 6.13577C7.45033 6.1134 13.6561 5.46087 19.789 4.56877C22.9718 4.10584 26.1414 3.56112 29.292 2.91978C32.5354 2.25957 35.8012 1.20358 39.1141 0.905086C28.9517 6.79902 18.618 12.5063 8.70852 18.7971C8.71507 18.7697 8.71427 18.7402 8.69834 18.7113C8.38047 18.1386 8.04679 17.5774 7.70511 17.0219C8.53147 17.0339 9.37291 16.9931 10.1722 16.7925C10.3124 16.7573 10.2503 16.569 10.1154 16.5863C9.26819 16.6954 8.43858 16.8131 7.58574 16.8332C6.73235 15.4594 5.82256 14.1264 4.91877 12.7888C6.2316 12.8296 7.54934 12.8211 8.85407 12.6717C8.99411 12.6556 9.00406 12.4444 8.85553 12.4511C7.48828 12.5127 6.1282 12.5727 4.76029 12.5534C4.31777 11.8973 3.88164 11.2366 3.45152 10.5714C5.08444 10.4891 6.71712 10.4124 8.34661 10.2761C8.50055 10.2632 8.50746 10.0316 8.34818 10.0374C6.66425 10.0992 4.98467 10.2243 3.30415 10.3415C2.8189 9.58498 2.35585 8.81222 1.9086 8.02809C3.97258 7.98616 6.0362 7.93821 8.09803 7.83032C8.27006 7.82128 8.27514 7.56489 8.09977 7.56632C5.98301 7.58262 3.86863 7.66177 1.75381 7.74618C1.53584 7.35628 1.31128 6.97083 1.10811 6.57013C0.949152 6.25668 0.506073 6.52842 0.63661 6.83546C0.787333 7.19011 0.956377 7.54351 1.12144 7.89708C1.11755 7.94316 1.1364 7.98316 1.17363 8.01122C3.00468 11.8953 5.66135 15.6912 8.49411 18.8633C8.50853 18.8795 8.52583 18.8826 8.54292 18.8869C8.5291 18.9003 8.51292 18.9089 8.50365 18.9254C8.48347 18.9379 8.46328 18.9505 8.44309 18.9634C8.36554 19.0127 8.43284 19.1293 8.51514 19.0856C8.51574 19.0852 8.51673 19.0846 8.51733 19.0844C8.53152 19.1059 8.53714 19.1299 8.56569 19.146C8.57204 19.1498 8.57878 19.1533 8.58513 19.1571C8.5932 19.1999 8.62102 19.2376 8.68016 19.2345C8.6929 19.2338 8.70564 19.2331 8.71819 19.2324C10.9447 20.4944 13.3453 21.862 15.7927 22.635C15.7982 22.6368 15.8019 22.6325 15.8072 22.6339C14.9268 23.4599 14.0398 24.2791 13.1587 25.1041C13.144 25.1046 13.1295 25.1053 13.1147 25.1058C13.0399 25.108 13.0156 25.1709 13.0305 25.2237C12.9156 25.3316 12.7994 25.438 12.6847 25.5463C12.4563 25.7618 12.8012 26.1026 13.0305 25.8885C13.2368 25.696 13.4447 25.5053 13.651 25.3126C15.5517 25.3983 17.459 25.2667 19.3364 24.9765C19.4892 24.9529 19.4569 24.6922 19.3013 24.7097C17.5024 24.9136 15.7093 25.0123 13.9047 25.0771C14.778 24.2623 15.6575 23.4542 16.5315 22.6404C17.6794 22.7044 18.8375 22.7204 19.9778 22.578C20.1374 22.5581 20.1511 22.3191 19.9795 22.3249C18.9114 22.3604 17.8509 22.4129 16.785 22.4054C17.1566 22.0597 17.5304 21.7165 17.9022 21.3708C17.9186 21.4119 17.949 21.4462 18.001 21.4401C19.0996 21.3104 20.1949 21.2949 21.2985 21.2473C21.4512 21.2407 21.452 21.0259 21.3 21.0158C20.2288 20.9449 19.1507 21.0515 18.0894 21.1974C24.9148 14.8516 31.7645 8.53127 38.6672 2.26534C34.3712 9.34996 30.5156 16.6864 27.1315 24.2291C26.4598 25.7264 25.7913 27.2277 25.1781 28.7492C24.6305 30.108 24.4806 31.9275 23.7927 33.1555C24.0714 34.4705 23.7151 34.7854 22.7236 34.1002C22.1307 34.0021 21.6334 33.7404 21.2315 33.3153C21.0123 33.1739 20.796 33.0134 20.5815 32.8474C21.6287 32.8795 22.6775 32.9049 23.7221 32.8704C23.8649 32.8657 23.8666 32.6591 23.7236 32.6535C22.6007 32.6087 21.4721 32.6322 20.3463 32.6604C19.7727 32.1959 19.2206 31.6869 18.6861 31.2178C19.7082 31.2995 20.7353 31.3536 21.7601 31.3071C21.8736 31.302 21.8765 31.1349 21.7613 31.1336C20.6776 31.1202 19.5971 31.1228 18.5147 31.0664C18.4886 31.0438 18.4609 31.0182 18.4349 30.9958C17.2054 29.9422 16.0112 28.8512 14.8099 27.768C16.3146 27.842 17.831 27.7811 19.3155 27.5324C19.4516 27.5095 19.4236 27.281 19.284 27.2943C17.7052 27.4435 16.1422 27.5413 14.5568 27.5429C14.0426 27.0811 13.5333 26.6139 13.008 26.1637C12.8687 26.0441 12.679 26.2248 12.8027 26.362C14.8662 28.6503 17.1845 30.7222 19.5978 32.6773C19.5693 32.678 19.5409 32.6785 19.5126 32.6792C19.4222 32.6816 19.4211 32.8139 19.5117 32.8168C19.6016 32.8197 19.6924 32.8216 19.7823 32.8247C21.1017 33.8885 22.4468 34.9199 23.7951 35.9307C23.95 36.0468 24.1813 35.8918 24.1776 35.7192C24.0382 29.3241 28.3796 22.4985 31.1838 16.8884C33.8877 11.4789 36.8612 6.21807 40.0059 1.04278C40.0533 0.999694 40.1002 0.956213 40.1476 0.913125C40.1735 0.889745 40.1908 0.863978 40.2039 0.837406C40.2578 0.83541 40.3116 0.828743 40.3658 0.827137C40.7404 0.816452 40.7458 0.244883 40.369 0.254971ZM26.1623 12.9756C22.7802 16.0976 19.4226 19.2447 16.0658 22.3925C16.0592 22.3923 16.0526 22.3924 16.0461 22.3922C16.0385 22.339 16.0173 22.2887 15.9592 22.2559C15.2969 21.8821 14.6086 21.5384 13.9118 21.2053C13.9255 21.2052 13.9417 21.2035 13.955 21.2038C14.6498 21.2179 15.3409 21.2123 16.0355 21.189C16.1568 21.1849 16.1585 21.0094 16.0367 21.0046C15.4971 20.9827 14.959 20.9642 14.4187 20.969C14.3021 20.97 13.8615 21.0145 13.5316 21.0282C12.8801 20.7229 12.2204 20.4295 11.5622 20.1355C12.5291 20.1645 13.4973 20.1964 14.4632 20.171C14.6085 20.1672 14.6101 19.9559 14.4647 19.9504C13.3666 19.9077 12.2647 19.9385 11.1653 19.9555C10.6036 19.7045 10.0502 19.4482 9.49693 19.1914C10.9813 19.1149 12.4665 19.0429 13.9463 18.9047C14.0973 18.8906 14.1051 18.6638 13.9478 18.6695C12.3185 18.7295 10.6933 18.8689 9.06789 18.9949C8.99903 18.9624 8.92758 18.932 8.85892 18.8992C13.0247 16.6125 38.7479 1.70727 38.7047 1.64202C38.809 1.79968 27.2785 11.9452 26.1623 12.9756Z" fill="#FE8222"/>
<path d="M9.07745 33.7738C6.11382 33.8947 3.80544 37.2149 3.40736 40.0153C3.40024 40.0087 3.39251 40.0032 3.38539 39.9965C0.934859 37.684 0.881287 33.1675 3.18612 30.7777C3.87971 31.5749 4.84151 32.1175 6.01391 32.1454C7.9583 32.1919 11.1565 29.5224 8.72846 27.8753C6.90717 26.6397 3.86252 27.8784 3.22726 29.8523C3.204 29.8177 3.17556 29.7839 3.15449 29.7491C0.835654 25.9118 5.06386 22.049 9.00108 23.0949C9.15924 23.1369 9.22004 22.9118 9.06952 22.8581C6.0928 21.7978 2.8533 23.3347 2.10226 26.4143C1.7653 27.7956 2.11458 29.3706 2.97543 30.5205C-0.0246128 32.9617 0.451875 38.4217 3.34302 40.7764C3.3429 40.7939 3.33999 40.8124 3.34008 40.8297C3.33057 44.71 6.45843 46.4837 9.98936 47.0228C10.3147 47.0725 10.4693 46.6021 10.1324 46.5283C7.30539 45.9102 4.63958 44.9707 4.05816 41.8358C4.02126 41.6363 3.99693 41.4323 3.98397 41.2252C4.78879 41.6968 5.73917 41.949 6.81963 41.8844C9.29935 41.7361 12.072 39.8463 12.35 37.2996C12.5644 35.3309 11.0878 33.5339 9.07745 33.7738ZM6.67143 28.127C7.71944 28.0637 9.5498 28.1664 8.6164 30.2555C7.6729 32.3675 4.9606 31.6254 3.63982 30.3448C4.0886 28.9686 5.19311 28.2162 6.67143 28.127ZM11.5915 37.7682C11.3393 38.7693 10.5476 39.556 9.72989 40.138C8.0196 41.3551 5.74519 41.6401 3.99172 40.4737C4.1695 37.8466 6.04718 34.9747 8.65742 34.2015C8.69672 34.2479 8.75024 34.2819 8.82548 34.2812C10.7179 34.2639 12.0874 35.7989 11.5915 37.7682Z" fill="#FE8222"/>
<path d="M9.36703 14.6519C8.40091 14.6725 7.43684 14.7143 6.47136 14.7586C6.33179 14.7651 6.3288 14.976 6.46995 14.9718C7.43593 14.9427 8.40053 14.9108 9.36567 14.8578C9.50008 14.8505 9.5038 14.6489 9.36703 14.6519Z" fill="#FE8222"/>
<path d="M20.4569 29.1285C19.355 29.163 18.2731 29.2895 17.1664 29.2581C17.0611 29.2551 17.0613 29.4107 17.1653 29.417C18.2533 29.4823 19.4079 29.5321 20.4833 29.3274C20.5977 29.3054 20.5732 29.1248 20.4569 29.1285Z" fill="#FE8222"/>
</svg>
