<svg width="303" height="260" viewBox="0 0 303 260" fill="none" xmlns="http://www.w3.org/2000/svg">
<path d="M246.025 28.9292C274.128 47.7993 298.086 72.1317 301.689 98.616C305.112 125.1 287.998 153.902 273.947 180.221C259.896 206.539 248.547 230.375 228.912 241.797C209.096 253.052 180.814 251.728 150.37 254.542C119.746 257.356 87.1405 264.308 63.0016 254.377C39.0427 244.28 23.7307 217.133 12.5619 188.166C1.39313 159.364 -5.81253 128.576 6.25696 106.23C18.3264 83.8841 49.4909 70.1454 77.2328 51.1098C104.794 31.9087 128.573 7.57625 156.855 1.94834C185.138 -3.51404 217.743 10.0591 246.025 28.9292Z" fill="#FF0066"/>
</svg>
