<svg width="22" height="17" viewBox="0 0 22 17" fill="none" xmlns="http://www.w3.org/2000/svg">
<path d="M21.5408 3.32814C21.4156 2.86172 21.1701 2.43636 20.8288 2.09466C20.4875 1.75295 20.0625 1.50687 19.5962 1.38104C17.8799 0.919434 11 0.919434 11 0.919434C11 0.919434 4.12009 0.919434 2.40379 1.37859C1.93733 1.504 1.51207 1.74995 1.17073 2.09172C0.829388 2.43349 0.58398 2.85906 0.459152 3.32568C-9.36644e-08 5.04443 0 8.62926 0 8.62926C0 8.62926 -9.36644e-08 12.2141 0.459152 13.9304C0.712053 14.8781 1.45848 15.6246 2.40379 15.8775C4.12009 16.3391 11 16.3391 11 16.3391C11 16.3391 17.8799 16.3391 19.5962 15.8775C20.544 15.6246 21.2879 14.8781 21.5408 13.9304C22 12.2141 22 8.62926 22 8.62926C22 8.62926 22 5.04443 21.5408 3.32814ZM8.81473 11.9194V5.33908L14.5112 8.6047L8.81473 11.9194Z" fill="#1E1E1E"/>
</svg>
