<svg width="33" height="32" viewBox="0 0 33 32" fill="none" xmlns="http://www.w3.org/2000/svg">
<path d="M0.5 5C0.5 2.23858 2.73858 0 5.5 0H27.5C30.2614 0 32.5 2.23858 32.5 5V27C32.5 29.7614 30.2614 32 27.5 32H5.5C2.73858 32 0.5 29.7614 0.5 27V5Z" fill="#0BBF40"/>
<path fill-rule="evenodd" clip-rule="evenodd" d="M20.1659 17.6342C19.9662 17.5344 18.9876 17.0534 18.8054 16.9864C18.6231 16.9201 18.4905 16.8873 18.3572 17.0869C18.2246 17.2852 17.8434 17.734 17.7275 17.8666C17.611 17.9999 17.4951 18.016 17.2961 17.9169C17.0972 17.8164 16.4554 17.6067 15.6951 16.9288C15.1036 16.4009 14.7037 15.7491 14.5878 15.5495C14.4719 15.3506 14.5751 15.2427 14.6749 15.1436C14.7647 15.0545 14.8739 14.9111 14.9737 14.7952C15.0735 14.6787 15.1063 14.5956 15.1726 14.4623C15.2396 14.3297 15.2061 14.2138 15.1559 14.114C15.1063 14.0142 14.7084 13.0341 14.5423 12.6356C14.3808 12.2477 14.2167 12.3006 14.0948 12.2939C13.9782 12.2886 13.8456 12.2872 13.713 12.2872C13.5803 12.2872 13.3646 12.3368 13.1824 12.5364C12.9995 12.7354 12.4858 13.217 12.4858 14.197C12.4858 15.1764 13.1985 16.1229 13.2983 16.2562C13.3981 16.3889 14.7017 18.3998 16.6986 19.262C17.1742 19.4669 17.5447 19.5895 17.8334 19.6806C18.3103 19.8327 18.7444 19.8113 19.0874 19.7597C19.4692 19.7027 20.265 19.278 20.4311 18.8131C20.5966 18.3483 20.5966 17.9497 20.547 17.8666C20.4975 17.7836 20.3648 17.734 20.1652 17.6342H20.1659ZM16.5338 22.5933H16.5311C15.3451 22.5935 14.1808 22.2746 13.1603 21.6702L12.9192 21.5268L10.4125 22.1846L11.0817 19.7409L10.9243 19.4904C10.2612 18.4349 9.91028 17.2133 9.9121 15.9668C9.91344 12.316 12.8837 9.34581 16.5365 9.34581C18.305 9.34581 19.9676 10.0358 21.2176 11.2871C21.8341 11.9011 22.3228 12.6313 22.6553 13.4353C22.9878 14.2394 23.1576 15.1014 23.1549 15.9715C23.1535 19.6224 20.1833 22.5933 16.5338 22.5933ZM22.1688 10.3366C21.4307 9.59361 20.5525 9.00453 19.5851 8.60345C18.6178 8.20237 17.5804 7.99727 16.5331 8.00003C12.1428 8.00003 8.56833 11.5738 8.56699 15.9662C8.56632 17.3702 8.93274 18.7408 9.63008 19.9486L8.5 24.077L12.7229 22.9691C13.8911 23.6055 15.2002 23.939 16.5305 23.939H16.5338C20.9242 23.939 24.4986 20.3652 24.5 15.9722C24.5032 14.9254 24.2988 13.8883 23.8987 12.921C23.4986 11.9536 22.9106 11.0752 22.1688 10.3366Z" fill="white"/>
</svg>
