<svg width="33" height="32" viewBox="0 0 33 32" fill="none" xmlns="http://www.w3.org/2000/svg">
<path d="M0.5 5C0.5 2.23858 2.73858 0 5.5 0H27.5C30.2614 0 32.5 2.23858 32.5 5V27C32.5 29.7614 30.2614 32 27.5 32H5.5C2.73858 32 0.5 29.7614 0.5 27V5Z" fill="#1DA1F2"/>
<path d="M13.5264 22.3438C19.564 22.3438 22.8672 17.3366 22.8672 13.0022C22.8672 12.8614 22.8672 12.7206 22.8608 12.5798C23.5041 12.1136 24.0591 11.5366 24.5 10.8758C23.8997 11.141 23.2635 11.316 22.612 11.395C23.2984 10.984 23.8124 10.3379 24.0584 9.57657C23.4132 9.95934 22.7069 10.2281 21.9704 10.371C21.6638 10.0434 21.2933 9.78234 20.8817 9.60386C20.4701 9.42538 20.0262 9.33331 19.5776 9.33337C18.7066 9.33401 17.8715 9.68029 17.2556 10.2962C16.6397 10.9121 16.2934 11.7472 16.2928 12.6182C16.2928 12.8742 16.3248 13.1238 16.376 13.367C15.0703 13.3014 13.793 12.962 12.627 12.3707C11.461 11.7794 10.4324 10.9496 9.608 9.93497C9.18903 10.6586 9.06113 11.5146 9.25027 12.3291C9.43941 13.1436 9.93141 13.8556 10.6264 14.3206C10.1057 14.3025 9.59647 14.1622 9.14 13.911V13.9558C9.1407 14.7136 9.40298 15.448 9.88253 16.0348C10.3621 16.6216 11.0295 17.0249 11.772 17.1766C11.4906 17.2542 11.1999 17.293 10.908 17.2918C10.696 17.2918 10.4912 17.2726 10.292 17.2342C10.5013 17.8868 10.9096 18.4576 11.4597 18.8665C12.0097 19.2753 12.6739 19.5018 13.3592 19.5142C12.1964 20.4282 10.7598 20.9242 9.2808 20.9222C9.0184 20.9222 8.756 20.9094 8.5 20.8774C10.0014 21.8355 11.7454 22.3442 13.5264 22.3438Z" fill="white"/>
</svg>
