<svg width="29" height="29" viewBox="0 0 29 29" fill="none" xmlns="http://www.w3.org/2000/svg">
<path d="M24.6641 14.1156L14.3336 5.14961C14.2543 5.08125 14.1531 5.04297 14.0465 5.04297H11.6266C11.4242 5.04297 11.3312 5.29453 11.4844 5.42578L21.0602 13.7383H5.05859C4.93828 13.7383 4.83984 13.8367 4.83984 13.957V15.5977C4.83984 15.718 4.93828 15.8164 5.05859 15.8164H21.0574L11.4816 24.1289C11.3285 24.2629 11.4215 24.5117 11.6238 24.5117H14.1258C14.1777 24.5117 14.2297 24.4926 14.268 24.457L24.6641 15.4391C24.7587 15.3567 24.8346 15.2551 24.8866 15.1409C24.9386 15.0268 24.9656 14.9028 24.9656 14.7773C24.9656 14.6519 24.9386 14.5279 24.8866 14.4138C24.8346 14.2996 24.7587 14.1979 24.6641 14.1156Z" fill="url(#paint0_linear_1750:8193)"/>
<defs>
<linearGradient id="paint0_linear_1750:8193" x1="4.83984" y1="5.72437" x2="27.5709" y2="12.9405" gradientUnits="userSpaceOnUse">
<stop stop-color="#5DB0C2"/>
<stop offset="0.313336" stop-color="#5DB0C2" stop-opacity="0.96055"/>
<stop offset="0.589842" stop-color="#5DB0C2" stop-opacity="0.91"/>
<stop offset="1" stop-color="#5DB0C2" stop-opacity="0.74"/>
</linearGradient>
</defs>
</svg>
